<!-- e102-v2 -->
<svg style="background:#0f1117;" xmlns:xlink="http://www.w3.org/1999/xlink" width="100%" height="auto" viewBox="0 0 344.16 196.231972" xmlns="http://www.w3.org/2000/svg" version="1.1">
 
 <defs>
  <style type="text/css">*{stroke-linejoin: round; stroke-linecap: butt}</style>
 </defs>
 <g id="figure_1">
  <g id="axes_1">
   <g id="patch_2">
    <path d="M 22.68 122.951972 
C 27.453656 122.951972 32.032438 121.055378 35.407922 117.679894 
C 38.783406 114.30441 40.68 109.725628 40.68 104.951972 
C 40.68 100.178316 38.783406 95.599534 35.407922 92.22405 
C 32.032438 88.848566 27.453656 86.951972 22.68 86.951972 
C 17.906344 86.951972 13.327562 88.848566 9.952078 92.22405 
C 6.576594 95.599534 4.68 100.178316 4.68 104.951972 
C 4.68 109.725628 6.576594 114.30441 9.952078 117.679894 
C 13.327562 121.055378 17.906344 122.951972 22.68 122.951972 
L 22.68 122.951972 
z
" clip-path="url(#pb648e78b27)" style="fill: none; stroke: #7eb8f7; stroke-width: 2; stroke-linejoin: miter"/>
   </g>
   <g id="line2d_1">
    <path d="M 22.68 176.951972 
L 22.68 122.951972 
L 22.68 122.951972 
M 22.68 86.951972 
L 22.68 86.951972 
L 22.68 32.951972 
" clip-path="url(#pb648e78b27)" style="fill: none; stroke: #7eb8f7; stroke-width: 2; stroke-linecap: round"/>
   </g>
   <g id="line2d_2">
    <path d="M 26.28 113.951972 
L 19.08 113.951972 
" clip-path="url(#pb648e78b27)" style="fill: none; stroke: #7eb8f7; stroke-width: 2; stroke-linecap: round"/>
   </g>
   <g id="line2d_3">
    <path d="M 22.68 99.551972 
L 22.68 92.351972 
" clip-path="url(#pb648e78b27)" style="fill: none; stroke: #7eb8f7; stroke-width: 2; stroke-linecap: round"/>
   </g>
   <g id="line2d_4">
    <path d="M 26.28 95.951972 
L 19.08 95.951972 
" clip-path="url(#pb648e78b27)" style="fill: none; stroke: #7eb8f7; stroke-width: 2; stroke-linecap: round"/>
   </g>
   <g id="line2d_5">
    <path d="M 22.68 32.951972 
L 29.88 32.951972 
L 37.08 32.951972 
" clip-path="url(#pb648e78b27)" style="fill: none; stroke: #7eb8f7; stroke-width: 2; stroke-linecap: round"/>
   </g>
   <g id="line2d_6">
    <path d="M 37.08 32.951972 
L 91.08 32.951972 
L 94.08 23.951972 
L 100.08 41.951972 
L 106.08 23.951972 
L 112.08 41.951972 
L 118.08 23.951972 
L 124.08 41.951972 
L 127.08 32.951972 
L 181.08 32.951972 
" clip-path="url(#pb648e78b27)" style="fill: none; stroke: #7eb8f7; stroke-width: 2; stroke-linecap: round"/>
   </g>
   <g id="line2d_7">
    <path d="M 181.08 32.951972 
L 235.08 32.951972 
L 235.258789 29.851426 
L 235.802061 26.734241 
L 236.69503 23.885924 
L 237.259174 22.645757 
L 237.890881 21.567358 
L 238.58 20.675561 
L 239.315058 19.990905 
L 240.083521 19.529158 
L 240.872091 19.300955 
L 241.667001 19.31155 
L 242.454342 19.560701 
L 243.220378 20.042669 
L 243.951864 20.746354 
L 244.63635 21.655549 
L 245.26247 22.749316 
L 245.8202 24.002465 
L 246.301093 25.386134 
L 247.007576 28.415296 
L 247.352186 31.559356 
L 247.338333 34.530343 
L 247.002259 37.05614 
L 246.409719 38.905405 
L 246.044458 39.520516 
L 245.649959 39.90876 
L 245.239705 40.061193 
L 244.82754 39.974305 
L 244.427355 39.650098 
L 244.052763 39.096038 
L 243.716788 38.324886 
L 243.208059 36.206934 
L 242.982736 33.49023 
L 243.096432 30.423602 
L 243.573706 27.287927 
L 244.405818 24.370408 
L 244.943235 23.078436 
L 245.551526 21.938265 
L 246.221077 20.976155 
L 246.940866 20.214263 
L 247.698713 19.670136 
L 248.481561 19.356306 
L 249.275778 19.28 
L 250.067469 19.442976 
L 250.842798 19.84148 
L 251.588307 20.466334 
L 252.291222 21.303149 
L 252.939752 22.332651 
L 253.523359 23.53113 
L 254.032998 24.870985 
L 254.802885 27.848847 
L 255.213871 30.993489 
L 255.263287 34.016887 
L 254.981582 36.642124 
L 254.429529 38.628748 
L 254.078088 39.322934 
L 253.692667 39.794802 
L 253.286541 40.033485 
L 252.873459 40.033485 
L 252.467333 39.794802 
L 252.081912 39.322934 
L 251.730471 38.628748 
L 251.425499 37.728232 
L 250.999316 35.395438 
L 250.87737 32.538219 
L 251.105804 29.418272 
L 251.698671 26.321358 
L 252.636641 23.53113 
L 253.220248 22.332651 
L 253.868778 21.303149 
L 254.571693 20.466334 
L 255.317202 19.84148 
L 256.092531 19.442976 
L 256.884222 19.28 
L 257.678439 19.356306 
L 258.461287 19.670136 
L 259.219134 20.214263 
L 259.938923 20.976155 
L 260.608474 21.938265 
L 261.216765 23.078436 
L 261.754182 24.370408 
L 262.586294 27.287927 
L 263.063568 30.423602 
L 263.177264 33.49023 
L 262.951941 36.206934 
L 262.443212 38.324886 
L 262.107237 39.096038 
L 261.732645 39.650098 
L 261.33246 39.974305 
L 260.920295 40.061193 
L 260.510041 39.90876 
L 260.115542 39.520516 
L 259.750281 38.905405 
L 259.427067 38.077591 
L 258.952903 35.864577 
L 258.771453 33.084167 
L 258.93431 29.991025 
L 259.46153 26.868457 
L 260.3398 24.002465 
L 260.89753 22.749316 
L 261.52365 21.655549 
L 262.208136 20.746354 
L 262.939622 20.042669 
L 263.705658 19.560701 
L 264.492999 19.31155 
L 265.287909 19.300955 
L 266.076479 19.529158 
L 266.844942 19.990905 
L 267.58 20.675561 
L 268.269119 21.567358 
L 268.900826 22.645757 
L 269.46497 23.885924 
L 269.952955 25.259294 
L 270.674992 28.276793 
L 271.035781 31.421875 
L 271.08 32.951972 
L 325.08 32.951972 
L 325.08 32.951972 
" clip-path="url(#pb648e78b27)" style="fill: none; stroke: #7eb8f7; stroke-width: 2; stroke-linecap: round"/>
   </g>
   <g id="line2d_8">
    <path d="M 325.08 32.951972 
L 332.28 32.951972 
L 339.48 32.951972 
" clip-path="url(#pb648e78b27)" style="fill: none; stroke: #7eb8f7; stroke-width: 2; stroke-linecap: round"/>
   </g>
   <g id="line2d_9">
    <path d="M 339.48 32.951972 
L 339.48 104.951972 
L 339.48 176.951972 
" clip-path="url(#pb648e78b27)" style="fill: none; stroke: #7eb8f7; stroke-width: 2; stroke-linecap: round"/>
   </g>
   <g id="line2d_10">
    <path d="M 339.48 176.951972 
L 181.08 176.951972 
L 22.68 176.951972 
" clip-path="url(#pb648e78b27)" style="fill: none; stroke: #7eb8f7; stroke-width: 2; stroke-linecap: round"/>
   </g>
   <g id="line2d_11">
    <path d="M 22.68 176.951972 
L 22.68 176.951972 
L 22.68 176.951972 
" clip-path="url(#pb648e78b27)" style="fill: none; stroke: #7eb8f7; stroke-width: 2; stroke-linecap: round"/>
   </g>
   <g id="text_1">
    <!-- Vcc -->
    <g style="fill: #7eb8f7" transform="translate(12.869375 188.910253) scale(0.11 -0.11)">
     <defs>
      <path id="DejaVuSans-56" d="M 1831 0 
L 50 4666 
L 709 4666 
L 2188 738 
L 3669 4666 
L 4325 4666 
L 2547 0 
L 1831 0 
z
" transform="scale(0.015625)"/>
      <path id="DejaVuSans-63" d="M 3122 3366 
L 3122 2828 
Q 2878 2963 2633 3030 
Q 2388 3097 2138 3097 
Q 1578 3097 1268 2742 
Q 959 2388 959 1747 
Q 959 1106 1268 751 
Q 1578 397 2138 397 
Q 2388 397 2633 464 
Q 2878 531 3122 666 
L 3122 134 
Q 2881 22 2623 -34 
Q 2366 -91 2075 -91 
Q 1284 -91 818 406 
Q 353 903 353 1747 
Q 353 2603 823 3093 
Q 1294 3584 2113 3584 
Q 2378 3584 2631 3529 
Q 2884 3475 3122 3366 
z
" transform="scale(0.015625)"/>
     </defs>
     <use xlink:href="#DejaVuSans-56"/>
     <use xlink:href="#DejaVuSans-63" transform="translate(68.408203 0)"/>
     <use xlink:href="#DejaVuSans-63" transform="translate(123.388672 0)"/>
    </g>
   </g>
   <g id="text_2">
    <!-- R₁eq = 3 Ω -->
    <g style="fill: #7eb8f7" transform="translate(78.622031 18.064316) scale(0.11 -0.11)">
     <defs>
      <path id="DejaVuSans-52" d="M 2841 2188 
Q 3044 2119 3236 1894 
Q 3428 1669 3622 1275 
L 4263 0 
L 3584 0 
L 2988 1197 
Q 2756 1666 2539 1819 
Q 2322 1972 1947 1972 
L 1259 1972 
L 1259 0 
L 628 0 
L 628 4666 
L 2053 4666 
Q 2853 4666 3247 4331 
Q 3641 3997 3641 3322 
Q 3641 2881 3436 2590 
Q 3231 2300 2841 2188 
z
M 1259 4147 
L 1259 2491 
L 2053 2491 
Q 2509 2491 2742 2702 
Q 2975 2913 2975 3322 
Q 2975 3731 2742 3939 
Q 2509 4147 2053 4147 
L 1259 4147 
z
" transform="scale(0.015625)"/>
      <path id="DejaVuSans-2081" d="M 488 319 
L 1125 319 
L 1125 2229 
L 428 2101 
L 428 2463 
L 1147 2585 
L 1575 2585 
L 1575 319 
L 2216 319 
L 2216 -24 
L 488 -24 
L 488 319 
z
" transform="scale(0.015625)"/>
      <path id="DejaVuSans-65" d="M 3597 1894 
L 3597 1613 
L 953 1613 
Q 991 1019 1311 708 
Q 1631 397 2203 397 
Q 2534 397 2845 478 
Q 3156 559 3463 722 
L 3463 178 
Q 3153 47 2828 -22 
Q 2503 -91 2169 -91 
Q 1331 -91 842 396 
Q 353 884 353 1716 
Q 353 2575 817 3079 
Q 1281 3584 2069 3584 
Q 2775 3584 3186 3129 
Q 3597 2675 3597 1894 
z
M 3022 2063 
Q 3016 2534 2758 2815 
Q 2500 3097 2075 3097 
Q 1594 3097 1305 2825 
Q 1016 2553 972 2059 
L 3022 2063 
z
" transform="scale(0.015625)"/>
      <path id="DejaVuSans-71" d="M 947 1747 
Q 947 1113 1208 752 
Q 1469 391 1925 391 
Q 2381 391 2643 752 
Q 2906 1113 2906 1747 
Q 2906 2381 2643 2742 
Q 2381 3103 1925 3103 
Q 1469 3103 1208 2742 
Q 947 2381 947 1747 
z
M 2906 525 
Q 2725 213 2448 61 
Q 2172 -91 1784 -91 
Q 1150 -91 751 415 
Q 353 922 353 1747 
Q 353 2572 751 3078 
Q 1150 3584 1784 3584 
Q 2172 3584 2448 3432 
Q 2725 3281 2906 2969 
L 2906 3500 
L 3481 3500 
L 3481 -1331 
L 2906 -1331 
L 2906 525 
z
" transform="scale(0.015625)"/>
      <path id="DejaVuSans-20" transform="scale(0.015625)"/>
      <path id="DejaVuSans-3d" d="M 678 2906 
L 4684 2906 
L 4684 2381 
L 678 2381 
L 678 2906 
z
M 678 1631 
L 4684 1631 
L 4684 1100 
L 678 1100 
L 678 1631 
z
" transform="scale(0.015625)"/>
      <path id="DejaVuSans-33" d="M 2597 2516 
Q 3050 2419 3304 2112 
Q 3559 1806 3559 1356 
Q 3559 666 3084 287 
Q 2609 -91 1734 -91 
Q 1441 -91 1130 -33 
Q 819 25 488 141 
L 488 750 
Q 750 597 1062 519 
Q 1375 441 1716 441 
Q 2309 441 2620 675 
Q 2931 909 2931 1356 
Q 2931 1769 2642 2001 
Q 2353 2234 1838 2234 
L 1294 2234 
L 1294 2753 
L 1863 2753 
Q 2328 2753 2575 2939 
Q 2822 3125 2822 3475 
Q 2822 3834 2567 4026 
Q 2313 4219 1838 4219 
Q 1578 4219 1281 4162 
Q 984 4106 628 3988 
L 628 4550 
Q 988 4650 1302 4700 
Q 1616 4750 1894 4750 
Q 2613 4750 3031 4423 
Q 3450 4097 3450 3541 
Q 3450 3153 3228 2886 
Q 3006 2619 2597 2516 
z
" transform="scale(0.015625)"/>
      <path id="DejaVuSans-3a9" d="M 4647 556 
L 4647 0 
L 2772 0 
L 2772 556 
Q 3325 859 3634 1378 
Q 3944 1897 3944 2528 
Q 3944 3278 3531 3731 
Q 3119 4184 2444 4184 
Q 1769 4184 1355 3729 
Q 941 3275 941 2528 
Q 941 1897 1250 1378 
Q 1563 859 2119 556 
L 2119 0 
L 244 0 
L 244 556 
L 1241 556 
Q 747 991 519 1456 
Q 294 1922 294 2497 
Q 294 3491 894 4106 
Q 1491 4722 2444 4722 
Q 3391 4722 3994 4106 
Q 4594 3494 4594 2528 
Q 4594 1922 4372 1459 
Q 4150 997 3647 556 
L 4647 556 
z
" transform="scale(0.015625)"/>
     </defs>
     <use xlink:href="#DejaVuSans-52"/>
     <use xlink:href="#DejaVuSans-2081" transform="translate(69.482422 0)"/>
     <use xlink:href="#DejaVuSans-65" transform="translate(109.570312 0)"/>
     <use xlink:href="#DejaVuSans-71" transform="translate(171.09375 0)"/>
     <use xlink:href="#DejaVuSans-20" transform="translate(234.570312 0)"/>
     <use xlink:href="#DejaVuSans-3d" transform="translate(266.357422 0)"/>
     <use xlink:href="#DejaVuSans-20" transform="translate(350.146484 0)"/>
     <use xlink:href="#DejaVuSans-33" transform="translate(381.933594 0)"/>
     <use xlink:href="#DejaVuSans-20" transform="translate(445.556641 0)"/>
     <use xlink:href="#DejaVuSans-3a9" transform="translate(477.34375 0)"/>
    </g>
   </g>
   <g id="text_3">
    <!-- X₁eq = 5 Ω -->
    <g style="fill: #7eb8f7" transform="translate(222.676172 13.392344) scale(0.11 -0.11)">
     <defs>
      <path id="DejaVuSans-58" d="M 403 4666 
L 1081 4666 
L 2241 2931 
L 3406 4666 
L 4084 4666 
L 2584 2425 
L 4184 0 
L 3506 0 
L 2194 1984 
L 872 0 
L 191 0 
L 1856 2491 
L 403 4666 
z
" transform="scale(0.015625)"/>
      <path id="DejaVuSans-35" d="M 691 4666 
L 3169 4666 
L 3169 4134 
L 1269 4134 
L 1269 2991 
Q 1406 3038 1543 3061 
Q 1681 3084 1819 3084 
Q 2600 3084 3056 2656 
Q 3513 2228 3513 1497 
Q 3513 744 3044 326 
Q 2575 -91 1722 -91 
Q 1428 -91 1123 -41 
Q 819 9 494 109 
L 494 744 
Q 775 591 1075 516 
Q 1375 441 1709 441 
Q 2250 441 2565 725 
Q 2881 1009 2881 1497 
Q 2881 1984 2565 2268 
Q 2250 2553 1709 2553 
Q 1456 2553 1204 2497 
Q 953 2441 691 2322 
L 691 4666 
z
" transform="scale(0.015625)"/>
     </defs>
     <use xlink:href="#DejaVuSans-58"/>
     <use xlink:href="#DejaVuSans-2081" transform="translate(68.505859 0)"/>
     <use xlink:href="#DejaVuSans-65" transform="translate(108.59375 0)"/>
     <use xlink:href="#DejaVuSans-71" transform="translate(170.117188 0)"/>
     <use xlink:href="#DejaVuSans-20" transform="translate(233.59375 0)"/>
     <use xlink:href="#DejaVuSans-3d" transform="translate(265.380859 0)"/>
     <use xlink:href="#DejaVuSans-20" transform="translate(349.169922 0)"/>
     <use xlink:href="#DejaVuSans-35" transform="translate(380.957031 0)"/>
     <use xlink:href="#DejaVuSans-20" transform="translate(444.580078 0)"/>
     <use xlink:href="#DejaVuSans-3a9" transform="translate(476.367188 0)"/>
    </g>
   </g>
  </g>
 </g>
 <defs>
  <clipPath id="pb648e78b27">
   <rect x="0" y="0" width="100%" height="196.231972"/>
  </clipPath>
 </defs>
</svg>
