<svg style="background:#0f1117;" xmlns:xlink="http://www.w3.org/1999/xlink" width="100%" height="auto" viewBox="0 0 230.85 202.56" xmlns="http://www.w3.org/2000/svg" version="1.1">
 
 <defs>
  <style type="text/css">*{stroke-linejoin: round; stroke-linecap: butt}</style>
 </defs>
 <g id="figure_1">
  <g id="axes_1">
   <g id="patch_2">
    <path d="M 22.68 129.28 
C 27.453656 129.28 32.032438 127.383406 35.407922 124.007922 
C 38.783406 120.632438 40.68 116.053656 40.68 111.28 
C 40.68 106.506344 38.783406 101.927562 35.407922 98.552078 
C 32.032438 95.176594 27.453656 93.28 22.68 93.28 
C 17.906344 93.28 13.327562 95.176594 9.952078 98.552078 
C 6.576594 101.927562 4.68 106.506344 4.68 111.28 
C 4.68 116.053656 6.576594 120.632438 9.952078 124.007922 
C 13.327562 127.383406 17.906344 129.28 22.68 129.28 
L 22.68 129.28 
z
" clip-path="url(#pe44dc9f13e)" style="fill: none; stroke: #7eb8f7; stroke-width: 2; stroke-linejoin: miter"/>
   </g>
   <g id="line2d_1">
    <path d="M 22.68 183.28 
L 22.68 129.28 
L 22.68 129.28 
M 22.68 93.28 
L 22.68 93.28 
L 22.68 39.28 
" clip-path="url(#pe44dc9f13e)" style="fill: none; stroke: #7eb8f7; stroke-width: 2; stroke-linecap: round"/>
   </g>
   <g id="line2d_2">
    <path d="M 31.68 111.28 
L 30.93 109.416503 
L 30.18 107.68 
L 29.43 106.188831 
L 28.68 105.044617 
L 27.93 104.325334 
L 27.18 104.08 
L 26.43 104.325334 
L 25.68 105.044617 
L 24.93 106.188831 
L 24.18 107.68 
L 23.43 109.416503 
L 22.68 111.28 
L 21.93 113.143497 
L 21.18 114.88 
L 20.43 116.371169 
L 19.68 117.515383 
L 18.93 118.234666 
L 18.18 118.48 
L 17.43 118.234666 
L 16.68 117.515383 
L 15.93 116.371169 
L 15.18 114.88 
L 14.43 113.143497 
L 13.68 111.28 
" clip-path="url(#pe44dc9f13e)" style="fill: none; stroke: #7eb8f7; stroke-width: 2; stroke-linecap: round"/>
   </g>
   <g id="line2d_3">
    <path d="M 22.68 39.28 
L 29.88 39.28 
L 37.08 39.28 
" clip-path="url(#pe44dc9f13e)" style="fill: none; stroke: #7eb8f7; stroke-width: 2; stroke-linecap: round"/>
   </g>
   <g id="line2d_4">
    <path d="M 37.08 39.28 
L 91.08 39.28 
L 94.08 30.28 
L 100.08 48.28 
L 106.08 30.28 
L 112.08 48.28 
L 118.08 30.28 
L 124.08 48.28 
L 127.08 39.28 
L 181.08 39.28 
" clip-path="url(#pe44dc9f13e)" style="fill: none; stroke: #7eb8f7; stroke-width: 2; stroke-linecap: round"/>
   </g>
   <g id="line2d_5">
    <path d="M 181.08 39.28 
L 188.28 39.28 
L 195.48 39.28 
" clip-path="url(#pe44dc9f13e)" style="fill: none; stroke: #7eb8f7; stroke-width: 2; stroke-linecap: round"/>
   </g>
   <g id="line2d_6">
    <path d="M 195.48 39.28 
L 195.48 93.28 
L 204.48 96.28 
L 186.48 102.28 
L 204.48 108.28 
L 186.48 114.28 
L 204.48 120.28 
L 186.48 126.28 
L 195.48 129.28 
L 195.48 183.28 
" clip-path="url(#pe44dc9f13e)" style="fill: none; stroke: #7eb8f7; stroke-width: 2; stroke-linecap: round"/>
   </g>
   <g id="line2d_7">
    <path d="M 195.48 183.28 
L 109.08 183.28 
L 22.68 183.28 
" clip-path="url(#pe44dc9f13e)" style="fill: none; stroke: #7eb8f7; stroke-width: 2; stroke-linecap: round"/>
   </g>
   <g id="line2d_8">
    <path d="M 22.68 183.28 
L 22.68 183.28 
L 22.68 183.28 
" clip-path="url(#pe44dc9f13e)" style="fill: none; stroke: #7eb8f7; stroke-width: 2; stroke-linecap: round"/>
   </g>
   <g id="text_1">
    <!-- 127 V -->
    <g style="fill: #7eb8f7" transform="translate(6.671563 195.238281) scale(0.11 -0.11)">
     <defs>
      <path id="DejaVuSans-31" d="M 794 531 
L 1825 531 
L 1825 4091 
L 703 3866 
L 703 4441 
L 1819 4666 
L 2450 4666 
L 2450 531 
L 3481 531 
L 3481 0 
L 794 0 
L 794 531 
z
" transform="scale(0.015625)"/>
      <path id="DejaVuSans-32" d="M 1228 531 
L 3431 531 
L 3431 0 
L 469 0 
L 469 531 
Q 828 903 1448 1529 
Q 2069 2156 2228 2338 
Q 2531 2678 2651 2914 
Q 2772 3150 2772 3378 
Q 2772 3750 2511 3984 
Q 2250 4219 1831 4219 
Q 1534 4219 1204 4116 
Q 875 4013 500 3803 
L 500 4441 
Q 881 4594 1212 4672 
Q 1544 4750 1819 4750 
Q 2544 4750 2975 4387 
Q 3406 4025 3406 3419 
Q 3406 3131 3298 2873 
Q 3191 2616 2906 2266 
Q 2828 2175 2409 1742 
Q 1991 1309 1228 531 
z
" transform="scale(0.015625)"/>
      <path id="DejaVuSans-37" d="M 525 4666 
L 3525 4666 
L 3525 4397 
L 1831 0 
L 1172 0 
L 2766 4134 
L 525 4134 
L 525 4666 
z
" transform="scale(0.015625)"/>
      <path id="DejaVuSans-20" transform="scale(0.015625)"/>
      <path id="DejaVuSans-56" d="M 1831 0 
L 50 4666 
L 709 4666 
L 2188 738 
L 3669 4666 
L 4325 4666 
L 2547 0 
L 1831 0 
z
" transform="scale(0.015625)"/>
     </defs>
     <use xlink:href="#DejaVuSans-31"/>
     <use xlink:href="#DejaVuSans-32" transform="translate(63.623047 0)"/>
     <use xlink:href="#DejaVuSans-37" transform="translate(127.246094 0)"/>
     <use xlink:href="#DejaVuSans-20" transform="translate(190.869141 0)"/>
     <use xlink:href="#DejaVuSans-56" transform="translate(222.65625 0)"/>
    </g>
   </g>
   <g id="text_2">
    <!-- Rcabo = 0,275 Ω -->
    <g style="fill: #7eb8f7" transform="translate(62.205391 13.746406) scale(0.11 -0.11)">
     <defs>
      <path id="DejaVuSans-52" d="M 2841 2188 
Q 3044 2119 3236 1894 
Q 3428 1669 3622 1275 
L 4263 0 
L 3584 0 
L 2988 1197 
Q 2756 1666 2539 1819 
Q 2322 1972 1947 1972 
L 1259 1972 
L 1259 0 
L 628 0 
L 628 4666 
L 2053 4666 
Q 2853 4666 3247 4331 
Q 3641 3997 3641 3322 
Q 3641 2881 3436 2590 
Q 3231 2300 2841 2188 
z
M 1259 4147 
L 1259 2491 
L 2053 2491 
Q 2509 2491 2742 2702 
Q 2975 2913 2975 3322 
Q 2975 3731 2742 3939 
Q 2509 4147 2053 4147 
L 1259 4147 
z
" transform="scale(0.015625)"/>
      <path id="DejaVuSans-63" d="M 3122 3366 
L 3122 2828 
Q 2878 2963 2633 3030 
Q 2388 3097 2138 3097 
Q 1578 3097 1268 2742 
Q 959 2388 959 1747 
Q 959 1106 1268 751 
Q 1578 397 2138 397 
Q 2388 397 2633 464 
Q 2878 531 3122 666 
L 3122 134 
Q 2881 22 2623 -34 
Q 2366 -91 2075 -91 
Q 1284 -91 818 406 
Q 353 903 353 1747 
Q 353 2603 823 3093 
Q 1294 3584 2113 3584 
Q 2378 3584 2631 3529 
Q 2884 3475 3122 3366 
z
" transform="scale(0.015625)"/>
      <path id="DejaVuSans-61" d="M 2194 1759 
Q 1497 1759 1228 1600 
Q 959 1441 959 1056 
Q 959 750 1161 570 
Q 1363 391 1709 391 
Q 2188 391 2477 730 
Q 2766 1069 2766 1631 
L 2766 1759 
L 2194 1759 
z
M 3341 1997 
L 3341 0 
L 2766 0 
L 2766 531 
Q 2569 213 2275 61 
Q 1981 -91 1556 -91 
Q 1019 -91 701 211 
Q 384 513 384 1019 
Q 384 1609 779 1909 
Q 1175 2209 1959 2209 
L 2766 2209 
L 2766 2266 
Q 2766 2663 2505 2880 
Q 2244 3097 1772 3097 
Q 1472 3097 1187 3025 
Q 903 2953 641 2809 
L 641 3341 
Q 956 3463 1253 3523 
Q 1550 3584 1831 3584 
Q 2591 3584 2966 3190 
Q 3341 2797 3341 1997 
z
" transform="scale(0.015625)"/>
      <path id="DejaVuSans-62" d="M 3116 1747 
Q 3116 2381 2855 2742 
Q 2594 3103 2138 3103 
Q 1681 3103 1420 2742 
Q 1159 2381 1159 1747 
Q 1159 1113 1420 752 
Q 1681 391 2138 391 
Q 2594 391 2855 752 
Q 3116 1113 3116 1747 
z
M 1159 2969 
Q 1341 3281 1617 3432 
Q 1894 3584 2278 3584 
Q 2916 3584 3314 3078 
Q 3713 2572 3713 1747 
Q 3713 922 3314 415 
Q 2916 -91 2278 -91 
Q 1894 -91 1617 61 
Q 1341 213 1159 525 
L 1159 0 
L 581 0 
L 581 4863 
L 1159 4863 
L 1159 2969 
z
" transform="scale(0.015625)"/>
      <path id="DejaVuSans-6f" d="M 1959 3097 
Q 1497 3097 1228 2736 
Q 959 2375 959 1747 
Q 959 1119 1226 758 
Q 1494 397 1959 397 
Q 2419 397 2687 759 
Q 2956 1122 2956 1747 
Q 2956 2369 2687 2733 
Q 2419 3097 1959 3097 
z
M 1959 3584 
Q 2709 3584 3137 3096 
Q 3566 2609 3566 1747 
Q 3566 888 3137 398 
Q 2709 -91 1959 -91 
Q 1206 -91 779 398 
Q 353 888 353 1747 
Q 353 2609 779 3096 
Q 1206 3584 1959 3584 
z
" transform="scale(0.015625)"/>
      <path id="DejaVuSans-3d" d="M 678 2906 
L 4684 2906 
L 4684 2381 
L 678 2381 
L 678 2906 
z
M 678 1631 
L 4684 1631 
L 4684 1100 
L 678 1100 
L 678 1631 
z
" transform="scale(0.015625)"/>
      <path id="DejaVuSans-30" d="M 2034 4250 
Q 1547 4250 1301 3770 
Q 1056 3291 1056 2328 
Q 1056 1369 1301 889 
Q 1547 409 2034 409 
Q 2525 409 2770 889 
Q 3016 1369 3016 2328 
Q 3016 3291 2770 3770 
Q 2525 4250 2034 4250 
z
M 2034 4750 
Q 2819 4750 3233 4129 
Q 3647 3509 3647 2328 
Q 3647 1150 3233 529 
Q 2819 -91 2034 -91 
Q 1250 -91 836 529 
Q 422 1150 422 2328 
Q 422 3509 836 4129 
Q 1250 4750 2034 4750 
z
" transform="scale(0.015625)"/>
      <path id="DejaVuSans-2c" d="M 750 794 
L 1409 794 
L 1409 256 
L 897 -744 
L 494 -744 
L 750 256 
L 750 794 
z
" transform="scale(0.015625)"/>
      <path id="DejaVuSans-35" d="M 691 4666 
L 3169 4666 
L 3169 4134 
L 1269 4134 
L 1269 2991 
Q 1406 3038 1543 3061 
Q 1681 3084 1819 3084 
Q 2600 3084 3056 2656 
Q 3513 2228 3513 1497 
Q 3513 744 3044 326 
Q 2575 -91 1722 -91 
Q 1428 -91 1123 -41 
Q 819 9 494 109 
L 494 744 
Q 775 591 1075 516 
Q 1375 441 1709 441 
Q 2250 441 2565 725 
Q 2881 1009 2881 1497 
Q 2881 1984 2565 2268 
Q 2250 2553 1709 2553 
Q 1456 2553 1204 2497 
Q 953 2441 691 2322 
L 691 4666 
z
" transform="scale(0.015625)"/>
      <path id="DejaVuSans-3a9" d="M 4647 556 
L 4647 0 
L 2772 0 
L 2772 556 
Q 3325 859 3634 1378 
Q 3944 1897 3944 2528 
Q 3944 3278 3531 3731 
Q 3119 4184 2444 4184 
Q 1769 4184 1355 3729 
Q 941 3275 941 2528 
Q 941 1897 1250 1378 
Q 1563 859 2119 556 
L 2119 0 
L 244 0 
L 244 556 
L 1241 556 
Q 747 991 519 1456 
Q 294 1922 294 2497 
Q 294 3491 894 4106 
Q 1491 4722 2444 4722 
Q 3391 4722 3994 4106 
Q 4594 3494 4594 2528 
Q 4594 1922 4372 1459 
Q 4150 997 3647 556 
L 4647 556 
z
" transform="scale(0.015625)"/>
     </defs>
     <use xlink:href="#DejaVuSans-52"/>
     <use xlink:href="#DejaVuSans-63" transform="translate(69.482422 0)"/>
     <use xlink:href="#DejaVuSans-61" transform="translate(124.462891 0)"/>
     <use xlink:href="#DejaVuSans-62" transform="translate(185.742188 0)"/>
     <use xlink:href="#DejaVuSans-6f" transform="translate(249.21875 0)"/>
     <use xlink:href="#DejaVuSans-20" transform="translate(310.400391 0)"/>
     <use xlink:href="#DejaVuSans-3d" transform="translate(342.1875 0)"/>
     <use xlink:href="#DejaVuSans-20" transform="translate(425.976562 0)"/>
     <use xlink:href="#DejaVuSans-30" transform="translate(457.763672 0)"/>
     <use xlink:href="#DejaVuSans-2c" transform="translate(521.386719 0)"/>
     <use xlink:href="#DejaVuSans-32" transform="translate(553.173828 0)"/>
     <use xlink:href="#DejaVuSans-37" transform="translate(616.796875 0)"/>
     <use xlink:href="#DejaVuSans-35" transform="translate(680.419922 0)"/>
     <use xlink:href="#DejaVuSans-20" transform="translate(744.042969 0)"/>
     <use xlink:href="#DejaVuSans-3a9" transform="translate(775.830078 0)"/>
    </g>
    <!-- (ρ=1,72×10⁻⁸, A=2,5mm², L=40m) -->
    <g style="fill: #7eb8f7" transform="translate(10.666953 24.392344) scale(0.11 -0.11)">
     <defs>
      <path id="DejaVuSans-28" d="M 1984 4856 
Q 1566 4138 1362 3434 
Q 1159 2731 1159 2009 
Q 1159 1288 1364 580 
Q 1569 -128 1984 -844 
L 1484 -844 
Q 1016 -109 783 600 
Q 550 1309 550 2009 
Q 550 2706 781 3412 
Q 1013 4119 1484 4856 
L 1984 4856 
z
" transform="scale(0.015625)"/>
      <path id="DejaVuSans-3c1" d="M 863 2875 
Q 1053 3194 1525 3475 
Q 1709 3584 2278 3584 
Q 2916 3584 3314 3078 
Q 3713 2572 3713 1747 
Q 3713 922 3314 415 
Q 2916 -91 2278 -91 
Q 1894 -91 1617 61 
Q 1341 213 1159 525 
L 1159 -1331 
L 581 -1331 
L 581 1716 
Q 581 2438 863 2875 
z
M 3116 1747 
Q 3116 2381 2855 2742 
Q 2594 3103 2138 3103 
Q 1681 3103 1420 2742 
Q 1159 2381 1159 1747 
Q 1159 1113 1420 752 
Q 1681 391 2138 391 
Q 2594 391 2855 752 
Q 3116 1113 3116 1747 
z
" transform="scale(0.015625)"/>
      <path id="DejaVuSans-d7" d="M 4488 3438 
L 3059 2003 
L 4488 575 
L 4116 197 
L 2681 1631 
L 1247 197 
L 878 575 
L 2303 2003 
L 878 3438 
L 1247 3816 
L 2681 2381 
L 4116 3816 
L 4488 3438 
z
" transform="scale(0.015625)"/>
      <path id="DejaVuSans-207b" d="M 428 3359 
L 2950 3359 
L 2950 3063 
L 428 3063 
L 428 3359 
z
" transform="scale(0.015625)"/>
      <path id="DejaVuSans-2078" d="M 1766 3194 
Q 1600 3331 1309 3331 
Q 1019 3331 853 3194 
Q 688 3059 688 2825 
Q 688 2588 853 2453 
Q 1019 2319 1309 2319 
Q 1597 2319 1766 2456 
Q 1931 2591 1931 2825 
Q 1931 3059 1766 3194 
z
M 903 3484 
Q 641 3541 497 3694 
Q 350 3850 350 4075 
Q 350 4388 606 4569 
Q 863 4750 1309 4750 
Q 1756 4750 2013 4569 
Q 2266 4388 2266 4075 
Q 2266 3844 2122 3694 
Q 1975 3541 1716 3484 
Q 1997 3428 2172 3247 
Q 2338 3075 2338 2825 
Q 2338 2447 2072 2244 
Q 1803 2041 1309 2041 
Q 813 2041 547 2244 
Q 278 2447 278 2825 
Q 278 3069 444 3247 
Q 613 3422 903 3484 
z
M 753 4041 
Q 753 3844 900 3725 
Q 1044 3609 1309 3609 
Q 1563 3609 1716 3725 
Q 1866 3838 1866 4041 
Q 1866 4238 1716 4356 
Q 1569 4472 1309 4472 
Q 1050 4472 900 4356 
Q 753 4244 753 4041 
z
" transform="scale(0.015625)"/>
      <path id="DejaVuSans-41" d="M 2188 4044 
L 1331 1722 
L 3047 1722 
L 2188 4044 
z
M 1831 4666 
L 2547 4666 
L 4325 0 
L 3669 0 
L 3244 1197 
L 1141 1197 
L 716 0 
L 50 0 
L 1831 4666 
z
" transform="scale(0.015625)"/>
      <path id="DejaVuSans-6d" d="M 3328 2828 
Q 3544 3216 3844 3400 
Q 4144 3584 4550 3584 
Q 5097 3584 5394 3201 
Q 5691 2819 5691 2113 
L 5691 0 
L 5113 0 
L 5113 2094 
Q 5113 2597 4934 2840 
Q 4756 3084 4391 3084 
Q 3944 3084 3684 2787 
Q 3425 2491 3425 1978 
L 3425 0 
L 2847 0 
L 2847 2094 
Q 2847 2600 2669 2842 
Q 2491 3084 2119 3084 
Q 1678 3084 1418 2786 
Q 1159 2488 1159 1978 
L 1159 0 
L 581 0 
L 581 3500 
L 1159 3500 
L 1159 2956 
Q 1356 3278 1631 3431 
Q 1906 3584 2284 3584 
Q 2666 3584 2933 3390 
Q 3200 3197 3328 2828 
z
" transform="scale(0.015625)"/>
      <path id="DejaVuSans-b2" d="M 838 2444 
L 2163 2444 
L 2163 2088 
L 294 2088 
L 294 2431 
Q 400 2528 597 2703 
Q 1672 3656 1672 3950 
Q 1672 4156 1509 4282 
Q 1347 4409 1081 4409 
Q 919 4409 728 4354 
Q 538 4300 313 4191 
L 313 4575 
Q 553 4663 761 4706 
Q 969 4750 1147 4750 
Q 1600 4750 1872 4544 
Q 2144 4338 2144 4000 
Q 2144 3566 1109 2678 
Q 934 2528 838 2444 
z
" transform="scale(0.015625)"/>
      <path id="DejaVuSans-4c" d="M 628 4666 
L 1259 4666 
L 1259 531 
L 3531 531 
L 3531 0 
L 628 0 
L 628 4666 
z
" transform="scale(0.015625)"/>
      <path id="DejaVuSans-34" d="M 2419 4116 
L 825 1625 
L 2419 1625 
L 2419 4116 
z
M 2253 4666 
L 3047 4666 
L 3047 1625 
L 3713 1625 
L 3713 1100 
L 3047 1100 
L 3047 0 
L 2419 0 
L 2419 1100 
L 313 1100 
L 313 1709 
L 2253 4666 
z
" transform="scale(0.015625)"/>
      <path id="DejaVuSans-29" d="M 513 4856 
L 1013 4856 
Q 1481 4119 1714 3412 
Q 1947 2706 1947 2009 
Q 1947 1309 1714 600 
Q 1481 -109 1013 -844 
L 513 -844 
Q 928 -128 1133 580 
Q 1338 1288 1338 2009 
Q 1338 2731 1133 3434 
Q 928 4138 513 4856 
z
" transform="scale(0.015625)"/>
     </defs>
     <use xlink:href="#DejaVuSans-28"/>
     <use xlink:href="#DejaVuSans-3c1" transform="translate(39.013672 0)"/>
     <use xlink:href="#DejaVuSans-3d" transform="translate(102.490234 0)"/>
     <use xlink:href="#DejaVuSans-31" transform="translate(186.279297 0)"/>
     <use xlink:href="#DejaVuSans-2c" transform="translate(249.902344 0)"/>
     <use xlink:href="#DejaVuSans-37" transform="translate(281.689453 0)"/>
     <use xlink:href="#DejaVuSans-32" transform="translate(345.3125 0)"/>
     <use xlink:href="#DejaVuSans-d7" transform="translate(408.935547 0)"/>
     <use xlink:href="#DejaVuSans-31" transform="translate(492.724609 0)"/>
     <use xlink:href="#DejaVuSans-30" transform="translate(556.347656 0)"/>
     <use xlink:href="#DejaVuSans-207b" transform="translate(619.970703 0)"/>
     <use xlink:href="#DejaVuSans-2078" transform="translate(672.753906 0)"/>
     <use xlink:href="#DejaVuSans-2c" transform="translate(712.841797 0)"/>
     <use xlink:href="#DejaVuSans-20" transform="translate(744.628906 0)"/>
     <use xlink:href="#DejaVuSans-41" transform="translate(776.416016 0)"/>
     <use xlink:href="#DejaVuSans-3d" transform="translate(844.824219 0)"/>
     <use xlink:href="#DejaVuSans-32" transform="translate(928.613281 0)"/>
     <use xlink:href="#DejaVuSans-2c" transform="translate(992.236328 0)"/>
     <use xlink:href="#DejaVuSans-35" transform="translate(1024.023438 0)"/>
     <use xlink:href="#DejaVuSans-6d" transform="translate(1087.646484 0)"/>
     <use xlink:href="#DejaVuSans-6d" transform="translate(1185.058594 0)"/>
     <use xlink:href="#DejaVuSans-b2" transform="translate(1282.470703 0)"/>
     <use xlink:href="#DejaVuSans-2c" transform="translate(1322.558594 0)"/>
     <use xlink:href="#DejaVuSans-20" transform="translate(1354.345703 0)"/>
     <use xlink:href="#DejaVuSans-4c" transform="translate(1386.132812 0)"/>
     <use xlink:href="#DejaVuSans-3d" transform="translate(1441.845703 0)"/>
     <use xlink:href="#DejaVuSans-34" transform="translate(1525.634766 0)"/>
     <use xlink:href="#DejaVuSans-30" transform="translate(1589.257812 0)"/>
     <use xlink:href="#DejaVuSans-6d" transform="translate(1652.880859 0)"/>
     <use xlink:href="#DejaVuSans-29" transform="translate(1750.292969 0)"/>
    </g>
   </g>
   <g id="text_3">
    <!-- Carga -->
    <g style="fill: #7eb8f7" transform="translate(179.242109 22.746406) scale(0.11 -0.11)">
     <defs>
      <path id="DejaVuSans-43" d="M 4122 4306 
L 4122 3641 
Q 3803 3938 3442 4084 
Q 3081 4231 2675 4231 
Q 1875 4231 1450 3742 
Q 1025 3253 1025 2328 
Q 1025 1406 1450 917 
Q 1875 428 2675 428 
Q 3081 428 3442 575 
Q 3803 722 4122 1019 
L 4122 359 
Q 3791 134 3420 21 
Q 3050 -91 2638 -91 
Q 1578 -91 968 557 
Q 359 1206 359 2328 
Q 359 3453 968 4101 
Q 1578 4750 2638 4750 
Q 3056 4750 3426 4639 
Q 3797 4528 4122 4306 
z
" transform="scale(0.015625)"/>
      <path id="DejaVuSans-72" d="M 2631 2963 
Q 2534 3019 2420 3045 
Q 2306 3072 2169 3072 
Q 1681 3072 1420 2755 
Q 1159 2438 1159 1844 
L 1159 0 
L 581 0 
L 581 3500 
L 1159 3500 
L 1159 2956 
Q 1341 3275 1631 3429 
Q 1922 3584 2338 3584 
Q 2397 3584 2469 3576 
Q 2541 3569 2628 3553 
L 2631 2963 
z
" transform="scale(0.015625)"/>
      <path id="DejaVuSans-67" d="M 2906 1791 
Q 2906 2416 2648 2759 
Q 2391 3103 1925 3103 
Q 1463 3103 1205 2759 
Q 947 2416 947 1791 
Q 947 1169 1205 825 
Q 1463 481 1925 481 
Q 2391 481 2648 825 
Q 2906 1169 2906 1791 
z
M 3481 434 
Q 3481 -459 3084 -895 
Q 2688 -1331 1869 -1331 
Q 1566 -1331 1297 -1286 
Q 1028 -1241 775 -1147 
L 775 -588 
Q 1028 -725 1275 -790 
Q 1522 -856 1778 -856 
Q 2344 -856 2625 -561 
Q 2906 -266 2906 331 
L 2906 616 
Q 2728 306 2450 153 
Q 2172 0 1784 0 
Q 1141 0 747 490 
Q 353 981 353 1791 
Q 353 2603 747 3093 
Q 1141 3584 1784 3584 
Q 2172 3584 2450 3431 
Q 2728 3278 2906 2969 
L 2906 3500 
L 3481 3500 
L 3481 434 
z
" transform="scale(0.015625)"/>
     </defs>
     <use xlink:href="#DejaVuSans-43"/>
     <use xlink:href="#DejaVuSans-61" transform="translate(69.824219 0)"/>
     <use xlink:href="#DejaVuSans-72" transform="translate(131.103516 0)"/>
     <use xlink:href="#DejaVuSans-67" transform="translate(170.466797 0)"/>
     <use xlink:href="#DejaVuSans-61" transform="translate(233.943359 0)"/>
    </g>
    <!-- 4 kW / 127 V -->
    <g style="fill: #7eb8f7" transform="translate(160.2525 33.392344) scale(0.11 -0.11)">
     <defs>
      <path id="DejaVuSans-6b" d="M 581 4863 
L 1159 4863 
L 1159 1991 
L 2875 3500 
L 3609 3500 
L 1753 1863 
L 3688 0 
L 2938 0 
L 1159 1709 
L 1159 0 
L 581 0 
L 581 4863 
z
" transform="scale(0.015625)"/>
      <path id="DejaVuSans-57" d="M 213 4666 
L 850 4666 
L 1831 722 
L 2809 4666 
L 3519 4666 
L 4500 722 
L 5478 4666 
L 6119 4666 
L 4947 0 
L 4153 0 
L 3169 4050 
L 2175 0 
L 1381 0 
L 213 4666 
z
" transform="scale(0.015625)"/>
      <path id="DejaVuSans-2f" d="M 1625 4666 
L 2156 4666 
L 531 -594 
L 0 -594 
L 1625 4666 
z
" transform="scale(0.015625)"/>
     </defs>
     <use xlink:href="#DejaVuSans-34"/>
     <use xlink:href="#DejaVuSans-20" transform="translate(63.623047 0)"/>
     <use xlink:href="#DejaVuSans-6b" transform="translate(95.410156 0)"/>
     <use xlink:href="#DejaVuSans-57" transform="translate(153.320312 0)"/>
     <use xlink:href="#DejaVuSans-20" transform="translate(252.197266 0)"/>
     <use xlink:href="#DejaVuSans-2f" transform="translate(283.984375 0)"/>
     <use xlink:href="#DejaVuSans-20" transform="translate(317.675781 0)"/>
     <use xlink:href="#DejaVuSans-31" transform="translate(349.462891 0)"/>
     <use xlink:href="#DejaVuSans-32" transform="translate(413.085938 0)"/>
     <use xlink:href="#DejaVuSans-37" transform="translate(476.708984 0)"/>
     <use xlink:href="#DejaVuSans-20" transform="translate(540.332031 0)"/>
     <use xlink:href="#DejaVuSans-56" transform="translate(572.119141 0)"/>
    </g>
   </g>
  </g>
 </g>
 <defs>
  <clipPath id="pe44dc9f13e">
   <rect x="0" y="0" width="100%" height="202.56"/>
  </clipPath>
 </defs>
</svg>
