<svg style="background:#0f1117;" xmlns:xlink="http://www.w3.org/1999/xlink" width="100%" height="auto" viewBox="0 0 249.879 182.56" xmlns="http://www.w3.org/2000/svg" version="1.1">
 
 <defs>
  <style type="text/css">*{stroke-linejoin: round; stroke-linecap: butt}</style>
 </defs>
 <g id="figure_1">
  <g id="axes_1">
   <g id="patch_2">
    <path d="M 22.68 109.28 
C 27.453656 109.28 32.032438 107.383406 35.407922 104.007922 
C 38.783406 100.632438 40.68 96.053656 40.68 91.28 
C 40.68 86.506344 38.783406 81.927562 35.407922 78.552078 
C 32.032438 75.176594 27.453656 73.28 22.68 73.28 
C 17.906344 73.28 13.327562 75.176594 9.952078 78.552078 
C 6.576594 81.927562 4.68 86.506344 4.68 91.28 
C 4.68 96.053656 6.576594 100.632438 9.952078 104.007922 
C 13.327562 107.383406 17.906344 109.28 22.68 109.28 
L 22.68 109.28 
z
" clip-path="url(#p55400819ba)" style="fill: none; stroke: #7eb8f7; stroke-width: 2; stroke-linejoin: miter"/>
   </g>
   <g id="line2d_1">
    <path d="M 22.68 163.28 
L 22.68 109.28 
L 22.68 109.28 
M 22.68 73.28 
L 22.68 73.28 
L 22.68 19.28 
" clip-path="url(#p55400819ba)" style="fill: none; stroke: #7eb8f7; stroke-width: 2; stroke-linecap: round"/>
   </g>
   <g id="line2d_2">
    <path d="M 26.28 100.28 
L 19.08 100.28 
" clip-path="url(#p55400819ba)" style="fill: none; stroke: #7eb8f7; stroke-width: 2; stroke-linecap: round"/>
   </g>
   <g id="line2d_3">
    <path d="M 22.68 85.88 
L 22.68 78.68 
" clip-path="url(#p55400819ba)" style="fill: none; stroke: #7eb8f7; stroke-width: 2; stroke-linecap: round"/>
   </g>
   <g id="line2d_4">
    <path d="M 26.28 82.28 
L 19.08 82.28 
" clip-path="url(#p55400819ba)" style="fill: none; stroke: #7eb8f7; stroke-width: 2; stroke-linecap: round"/>
   </g>
   <g id="line2d_5">
    <path d="M 22.68 19.28 
L 49.68 19.28 
L 76.68 19.28 
" clip-path="url(#p55400819ba)" style="fill: none; stroke: #7eb8f7; stroke-width: 2; stroke-linecap: round"/>
   </g>
   <g id="line2d_6">
    <path d="M 76.68 19.28 
L 76.68 73.28 
L 85.68 76.28 
L 67.68 82.28 
L 85.68 88.28 
L 67.68 94.28 
L 85.68 100.28 
L 67.68 106.28 
L 76.68 109.28 
L 76.68 163.28 
" clip-path="url(#p55400819ba)" style="fill: none; stroke: #7eb8f7; stroke-width: 2; stroke-linecap: round"/>
   </g>
   <g id="line2d_7">
    <path d="M 76.68 19.28 
L 148.68 19.28 
L 220.68 19.28 
" clip-path="url(#p55400819ba)" style="fill: none; stroke: #7eb8f7; stroke-width: 2; stroke-linecap: round"/>
   </g>
   <g id="line2d_8">
    <path d="M 220.68 19.28 
L 220.68 73.28 
L 229.68 76.28 
L 211.68 82.28 
L 229.68 88.28 
L 211.68 94.28 
L 229.68 100.28 
L 211.68 106.28 
L 220.68 109.28 
L 220.68 163.28 
" clip-path="url(#p55400819ba)" style="fill: none; stroke: #7eb8f7; stroke-width: 2; stroke-linecap: round"/>
   </g>
   <g id="line2d_9">
    <path d="M 220.68 163.28 
L 148.68 163.28 
L 76.68 163.28 
" clip-path="url(#p55400819ba)" style="fill: none; stroke: #7eb8f7; stroke-width: 2; stroke-linecap: round"/>
   </g>
   <g id="line2d_10">
    <path d="M 76.68 163.28 
L 49.68 163.28 
L 22.68 163.28 
" clip-path="url(#p55400819ba)" style="fill: none; stroke: #7eb8f7; stroke-width: 2; stroke-linecap: round"/>
   </g>
   <g id="line2d_11">
    <path d="M 22.68 163.28 
L 22.68 163.28 
L 22.68 163.28 
" clip-path="url(#p55400819ba)" style="fill: none; stroke: #7eb8f7; stroke-width: 2; stroke-linecap: round"/>
   </g>
   <g id="text_1">
    <!-- V -->
    <g style="fill: #7eb8f7" transform="translate(18.917656 175.238281) scale(0.11 -0.11)">
     <defs>
      <path id="DejaVuSans-56" d="M 1831 0 
L 50 4666 
L 709 4666 
L 2188 738 
L 3669 4666 
L 4325 4666 
L 2547 0 
L 1831 0 
z
" transform="scale(0.015625)"/>
     </defs>
     <use xlink:href="#DejaVuSans-56"/>
    </g>
   </g>
   <g id="text_2">
    <!-- R1 = 8 Ω -->
    <g style="fill: #7eb8f7" transform="translate(51.803672 13.392344) scale(0.11 -0.11)">
     <defs>
      <path id="DejaVuSans-52" d="M 2841 2188 
Q 3044 2119 3236 1894 
Q 3428 1669 3622 1275 
L 4263 0 
L 3584 0 
L 2988 1197 
Q 2756 1666 2539 1819 
Q 2322 1972 1947 1972 
L 1259 1972 
L 1259 0 
L 628 0 
L 628 4666 
L 2053 4666 
Q 2853 4666 3247 4331 
Q 3641 3997 3641 3322 
Q 3641 2881 3436 2590 
Q 3231 2300 2841 2188 
z
M 1259 4147 
L 1259 2491 
L 2053 2491 
Q 2509 2491 2742 2702 
Q 2975 2913 2975 3322 
Q 2975 3731 2742 3939 
Q 2509 4147 2053 4147 
L 1259 4147 
z
" transform="scale(0.015625)"/>
      <path id="DejaVuSans-31" d="M 794 531 
L 1825 531 
L 1825 4091 
L 703 3866 
L 703 4441 
L 1819 4666 
L 2450 4666 
L 2450 531 
L 3481 531 
L 3481 0 
L 794 0 
L 794 531 
z
" transform="scale(0.015625)"/>
      <path id="DejaVuSans-20" transform="scale(0.015625)"/>
      <path id="DejaVuSans-3d" d="M 678 2906 
L 4684 2906 
L 4684 2381 
L 678 2381 
L 678 2906 
z
M 678 1631 
L 4684 1631 
L 4684 1100 
L 678 1100 
L 678 1631 
z
" transform="scale(0.015625)"/>
      <path id="DejaVuSans-38" d="M 2034 2216 
Q 1584 2216 1326 1975 
Q 1069 1734 1069 1313 
Q 1069 891 1326 650 
Q 1584 409 2034 409 
Q 2484 409 2743 651 
Q 3003 894 3003 1313 
Q 3003 1734 2745 1975 
Q 2488 2216 2034 2216 
z
M 1403 2484 
Q 997 2584 770 2862 
Q 544 3141 544 3541 
Q 544 4100 942 4425 
Q 1341 4750 2034 4750 
Q 2731 4750 3128 4425 
Q 3525 4100 3525 3541 
Q 3525 3141 3298 2862 
Q 3072 2584 2669 2484 
Q 3125 2378 3379 2068 
Q 3634 1759 3634 1313 
Q 3634 634 3220 271 
Q 2806 -91 2034 -91 
Q 1263 -91 848 271 
Q 434 634 434 1313 
Q 434 1759 690 2068 
Q 947 2378 1403 2484 
z
M 1172 3481 
Q 1172 3119 1398 2916 
Q 1625 2713 2034 2713 
Q 2441 2713 2670 2916 
Q 2900 3119 2900 3481 
Q 2900 3844 2670 4047 
Q 2441 4250 2034 4250 
Q 1625 4250 1398 4047 
Q 1172 3844 1172 3481 
z
" transform="scale(0.015625)"/>
      <path id="DejaVuSans-3a9" d="M 4647 556 
L 4647 0 
L 2772 0 
L 2772 556 
Q 3325 859 3634 1378 
Q 3944 1897 3944 2528 
Q 3944 3278 3531 3731 
Q 3119 4184 2444 4184 
Q 1769 4184 1355 3729 
Q 941 3275 941 2528 
Q 941 1897 1250 1378 
Q 1563 859 2119 556 
L 2119 0 
L 244 0 
L 244 556 
L 1241 556 
Q 747 991 519 1456 
Q 294 1922 294 2497 
Q 294 3491 894 4106 
Q 1491 4722 2444 4722 
Q 3391 4722 3994 4106 
Q 4594 3494 4594 2528 
Q 4594 1922 4372 1459 
Q 4150 997 3647 556 
L 4647 556 
z
" transform="scale(0.015625)"/>
     </defs>
     <use xlink:href="#DejaVuSans-52"/>
     <use xlink:href="#DejaVuSans-31" transform="translate(69.482422 0)"/>
     <use xlink:href="#DejaVuSans-20" transform="translate(133.105469 0)"/>
     <use xlink:href="#DejaVuSans-3d" transform="translate(164.892578 0)"/>
     <use xlink:href="#DejaVuSans-20" transform="translate(248.681641 0)"/>
     <use xlink:href="#DejaVuSans-38" transform="translate(280.46875 0)"/>
     <use xlink:href="#DejaVuSans-20" transform="translate(344.091797 0)"/>
     <use xlink:href="#DejaVuSans-3a9" transform="translate(375.878906 0)"/>
    </g>
   </g>
   <g id="text_3">
    <!-- R2 = 12 Ω -->
    <g style="fill: #7eb8f7" transform="translate(192.304297 13.392344) scale(0.11 -0.11)">
     <defs>
      <path id="DejaVuSans-32" d="M 1228 531 
L 3431 531 
L 3431 0 
L 469 0 
L 469 531 
Q 828 903 1448 1529 
Q 2069 2156 2228 2338 
Q 2531 2678 2651 2914 
Q 2772 3150 2772 3378 
Q 2772 3750 2511 3984 
Q 2250 4219 1831 4219 
Q 1534 4219 1204 4116 
Q 875 4013 500 3803 
L 500 4441 
Q 881 4594 1212 4672 
Q 1544 4750 1819 4750 
Q 2544 4750 2975 4387 
Q 3406 4025 3406 3419 
Q 3406 3131 3298 2873 
Q 3191 2616 2906 2266 
Q 2828 2175 2409 1742 
Q 1991 1309 1228 531 
z
" transform="scale(0.015625)"/>
     </defs>
     <use xlink:href="#DejaVuSans-52"/>
     <use xlink:href="#DejaVuSans-32" transform="translate(69.482422 0)"/>
     <use xlink:href="#DejaVuSans-20" transform="translate(133.105469 0)"/>
     <use xlink:href="#DejaVuSans-3d" transform="translate(164.892578 0)"/>
     <use xlink:href="#DejaVuSans-20" transform="translate(248.681641 0)"/>
     <use xlink:href="#DejaVuSans-31" transform="translate(280.46875 0)"/>
     <use xlink:href="#DejaVuSans-32" transform="translate(344.091797 0)"/>
     <use xlink:href="#DejaVuSans-20" transform="translate(407.714844 0)"/>
     <use xlink:href="#DejaVuSans-3a9" transform="translate(439.501953 0)"/>
    </g>
   </g>
   <g id="patch_3">
    <path d="M 76.68 21.98 
C 77.396048 21.98 78.082866 21.695511 78.589188 21.189188 
C 79.095511 20.682866 79.38 19.996048 79.38 19.28 
C 79.38 18.563952 79.095511 17.877134 78.589188 17.370812 
C 78.082866 16.864489 77.396048 16.58 76.68 16.58 
C 75.963952 16.58 75.277134 16.864489 74.770812 17.370812 
C 74.264489 17.877134 73.98 18.563952 73.98 19.28 
C 73.98 19.996048 74.264489 20.682866 74.770812 21.189188 
C 75.277134 21.695511 75.963952 21.98 76.68 21.98 
z
" clip-path="url(#p55400819ba)" style="fill: #7eb8f7; stroke: #7eb8f7; stroke-width: 2; stroke-linejoin: miter"/>
   </g>
   <g id="patch_4">
    <path d="M 76.68 165.98 
C 77.396048 165.98 78.082866 165.695511 78.589188 165.189188 
C 79.095511 164.682866 79.38 163.996048 79.38 163.28 
C 79.38 162.563952 79.095511 161.877134 78.589188 161.370812 
C 78.082866 160.864489 77.396048 160.58 76.68 160.58 
C 75.963952 160.58 75.277134 160.864489 74.770812 161.370812 
C 74.264489 161.877134 73.98 162.563952 73.98 163.28 
C 73.98 163.996048 74.264489 164.682866 74.770812 165.189188 
C 75.277134 165.695511 75.963952 165.98 76.68 165.98 
z
" clip-path="url(#p55400819ba)" style="fill: #7eb8f7; stroke: #7eb8f7; stroke-width: 2; stroke-linejoin: miter"/>
   </g>
  </g>
 </g>
 <defs>
  <clipPath id="p55400819ba">
   <rect x="0" y="-0" width="100%" height="182.56"/>
  </clipPath>
 </defs>
</svg>
