<!-- e286-v2 -->
<svg style="background:#0f1117;" xmlns:xlink="http://www.w3.org/1999/xlink" width="100%" height="auto" viewBox="0 0 347.079 204.16" xmlns="http://www.w3.org/2000/svg" version="1.1">
 
 <defs>
  <style type="text/css">*{stroke-linejoin: round; stroke-linecap: butt}</style>
 </defs>
 <g id="figure_1">
  <g id="axes_1">
   <g id="patch_2">
    <path d="M 22.68 121.88 
C 27.453656 121.88 32.032438 119.983406 35.407922 116.607922 
C 38.783406 113.232438 40.68 108.653656 40.68 103.88 
C 40.68 99.106344 38.783406 94.527562 35.407922 91.152078 
C 32.032438 87.776594 27.453656 85.88 22.68 85.88 
C 17.906344 85.88 13.327562 87.776594 9.952078 91.152078 
C 6.576594 94.527562 4.68 99.106344 4.68 103.88 
C 4.68 108.653656 6.576594 113.232438 9.952078 116.607922 
C 13.327562 119.983406 17.906344 121.88 22.68 121.88 
L 22.68 121.88 
z
" clip-path="url(#pbc5c014fa0)" style="fill: none; stroke: #7eb8f7; stroke-width: 2; stroke-linejoin: miter"/>
   </g>
   <g id="line2d_1">
    <path d="M 22.68 184.88 
L 22.68 121.88 
L 22.68 121.88 
M 22.68 85.88 
L 22.68 85.88 
L 22.68 22.88 
" clip-path="url(#pbc5c014fa0)" style="fill: none; stroke: #7eb8f7; stroke-width: 2; stroke-linecap: round"/>
   </g>
   <g id="line2d_2">
    <path d="M 26.28 112.88 
L 19.08 112.88 
" clip-path="url(#pbc5c014fa0)" style="fill: none; stroke: #7eb8f7; stroke-width: 2; stroke-linecap: round"/>
   </g>
   <g id="line2d_3">
    <path d="M 22.68 98.48 
L 22.68 91.28 
" clip-path="url(#pbc5c014fa0)" style="fill: none; stroke: #7eb8f7; stroke-width: 2; stroke-linecap: round"/>
   </g>
   <g id="line2d_4">
    <path d="M 26.28 94.88 
L 19.08 94.88 
" clip-path="url(#pbc5c014fa0)" style="fill: none; stroke: #7eb8f7; stroke-width: 2; stroke-linecap: round"/>
   </g>
   <g id="line2d_5">
    <path d="M 22.68 22.88 
L 28.08 22.88 
L 33.48 22.88 
" clip-path="url(#pbc5c014fa0)" style="fill: none; stroke: #7eb8f7; stroke-width: 2; stroke-linecap: round"/>
   </g>
   <g id="line2d_6">
    <path d="M 33.48 22.88 
L 96.48 22.88 
L 99.48 13.88 
L 105.48 31.88 
L 111.48 13.88 
L 117.48 31.88 
L 123.48 13.88 
L 129.48 31.88 
L 132.48 22.88 
L 195.48 22.88 
" clip-path="url(#pbc5c014fa0)" style="fill: none; stroke: #7eb8f7; stroke-width: 2; stroke-linecap: round"/>
   </g>
   <g id="line2d_7">
    <path d="M 195.48 22.88 
L 195.48 85.88 
L 204.48 88.88 
L 186.48 94.88 
L 204.48 100.88 
L 186.48 106.88 
L 204.48 112.88 
L 186.48 118.88 
L 195.48 121.88 
L 195.48 184.88 
" clip-path="url(#pbc5c014fa0)" style="fill: none; stroke: #7eb8f7; stroke-width: 2; stroke-linecap: round"/>
   </g>
   <g id="line2d_8">
    <path d="M 195.48 22.88 
L 220.68 22.88 
L 245.88 22.88 
" clip-path="url(#pbc5c014fa0)" style="fill: none; stroke: #7eb8f7; stroke-width: 2; stroke-linecap: round"/>
   </g>
   <g id="line2d_9">
    <path d="M 195.48 184.88 
L 220.68 184.88 
L 245.88 184.88 
" clip-path="url(#pbc5c014fa0)" style="fill: none; stroke: #7eb8f7; stroke-width: 2; stroke-linecap: round"/>
   </g>
   <g id="line2d_10">
    <path d="M 245.88 22.88 
L 281.88 22.88 
L 317.88 22.88 
" clip-path="url(#pbc5c014fa0)" style="fill: none; stroke: #7eb8f7; stroke-width: 2; stroke-linecap: round"/>
   </g>
   <g id="line2d_11">
    <path d="M 317.88 22.88 
L 317.88 85.88 
L 326.88 88.88 
L 308.88 94.88 
L 326.88 100.88 
L 308.88 106.88 
L 326.88 112.88 
L 308.88 118.88 
L 317.88 121.88 
L 317.88 184.88 
" clip-path="url(#pbc5c014fa0)" style="fill: none; stroke: #7eb8f7; stroke-width: 2; stroke-linecap: round"/>
   </g>
   <g id="line2d_12">
    <path d="M 317.88 184.88 
L 281.88 184.88 
L 245.88 184.88 
" clip-path="url(#pbc5c014fa0)" style="fill: none; stroke: #7eb8f7; stroke-width: 2; stroke-linecap: round"/>
   </g>
   <g id="line2d_13">
    <path d="M 195.48 184.88 
L 109.08 184.88 
L 22.68 184.88 
" clip-path="url(#pbc5c014fa0)" style="fill: none; stroke: #7eb8f7; stroke-width: 2; stroke-linecap: round"/>
   </g>
   <g id="line2d_14">
    <path d="M 22.68 184.88 
L 22.68 184.88 
L 22.68 184.88 
" clip-path="url(#pbc5c014fa0)" style="fill: none; stroke: #7eb8f7; stroke-width: 2; stroke-linecap: round"/>
   </g>
   <g id="text_1">
    <!-- 120 V -->
    <g style="fill: #7eb8f7" transform="translate(6.671562 196.838281) scale(0.11 -0.11)">
     <defs>
      <path id="DejaVuSans-31" d="M 794 531 
L 1825 531 
L 1825 4091 
L 703 3866 
L 703 4441 
L 1819 4666 
L 2450 4666 
L 2450 531 
L 3481 531 
L 3481 0 
L 794 0 
L 794 531 
z
" transform="scale(0.015625)"/>
      <path id="DejaVuSans-32" d="M 1228 531 
L 3431 531 
L 3431 0 
L 469 0 
L 469 531 
Q 828 903 1448 1529 
Q 2069 2156 2228 2338 
Q 2531 2678 2651 2914 
Q 2772 3150 2772 3378 
Q 2772 3750 2511 3984 
Q 2250 4219 1831 4219 
Q 1534 4219 1204 4116 
Q 875 4013 500 3803 
L 500 4441 
Q 881 4594 1212 4672 
Q 1544 4750 1819 4750 
Q 2544 4750 2975 4387 
Q 3406 4025 3406 3419 
Q 3406 3131 3298 2873 
Q 3191 2616 2906 2266 
Q 2828 2175 2409 1742 
Q 1991 1309 1228 531 
z
" transform="scale(0.015625)"/>
      <path id="DejaVuSans-30" d="M 2034 4250 
Q 1547 4250 1301 3770 
Q 1056 3291 1056 2328 
Q 1056 1369 1301 889 
Q 1547 409 2034 409 
Q 2525 409 2770 889 
Q 3016 1369 3016 2328 
Q 3016 3291 2770 3770 
Q 2525 4250 2034 4250 
z
M 2034 4750 
Q 2819 4750 3233 4129 
Q 3647 3509 3647 2328 
Q 3647 1150 3233 529 
Q 2819 -91 2034 -91 
Q 1250 -91 836 529 
Q 422 1150 422 2328 
Q 422 3509 836 4129 
Q 1250 4750 2034 4750 
z
" transform="scale(0.015625)"/>
      <path id="DejaVuSans-20" transform="scale(0.015625)"/>
      <path id="DejaVuSans-56" d="M 1831 0 
L 50 4666 
L 709 4666 
L 2188 738 
L 3669 4666 
L 4325 4666 
L 2547 0 
L 1831 0 
z
" transform="scale(0.015625)"/>
     </defs>
     <use xlink:href="#DejaVuSans-31"/>
     <use xlink:href="#DejaVuSans-32" transform="translate(63.623047 0)"/>
     <use xlink:href="#DejaVuSans-30" transform="translate(127.246094 0)"/>
     <use xlink:href="#DejaVuSans-20" transform="translate(190.869141 0)"/>
     <use xlink:href="#DejaVuSans-56" transform="translate(222.65625 0)"/>
    </g>
   </g>
   <g id="text_2">
    <!-- R1 = 20 Ω -->
    <g style="fill: #7eb8f7" transform="translate(86.104297 43.838281) scale(0.11 -0.11)">
     <defs>
      <path id="DejaVuSans-52" d="M 2841 2188 
Q 3044 2119 3236 1894 
Q 3428 1669 3622 1275 
L 4263 0 
L 3584 0 
L 2988 1197 
Q 2756 1666 2539 1819 
Q 2322 1972 1947 1972 
L 1259 1972 
L 1259 0 
L 628 0 
L 628 4666 
L 2053 4666 
Q 2853 4666 3247 4331 
Q 3641 3997 3641 3322 
Q 3641 2881 3436 2590 
Q 3231 2300 2841 2188 
z
M 1259 4147 
L 1259 2491 
L 2053 2491 
Q 2509 2491 2742 2702 
Q 2975 2913 2975 3322 
Q 2975 3731 2742 3939 
Q 2509 4147 2053 4147 
L 1259 4147 
z
" transform="scale(0.015625)"/>
      <path id="DejaVuSans-3d" d="M 678 2906 
L 4684 2906 
L 4684 2381 
L 678 2381 
L 678 2906 
z
M 678 1631 
L 4684 1631 
L 4684 1100 
L 678 1100 
L 678 1631 
z
" transform="scale(0.015625)"/>
      <path id="DejaVuSans-3a9" d="M 4647 556 
L 4647 0 
L 2772 0 
L 2772 556 
Q 3325 859 3634 1378 
Q 3944 1897 3944 2528 
Q 3944 3278 3531 3731 
Q 3119 4184 2444 4184 
Q 1769 4184 1355 3729 
Q 941 3275 941 2528 
Q 941 1897 1250 1378 
Q 1563 859 2119 556 
L 2119 0 
L 244 0 
L 244 556 
L 1241 556 
Q 747 991 519 1456 
Q 294 1922 294 2497 
Q 294 3491 894 4106 
Q 1491 4722 2444 4722 
Q 3391 4722 3994 4106 
Q 4594 3494 4594 2528 
Q 4594 1922 4372 1459 
Q 4150 997 3647 556 
L 4647 556 
z
" transform="scale(0.015625)"/>
     </defs>
     <use xlink:href="#DejaVuSans-52"/>
     <use xlink:href="#DejaVuSans-31" transform="translate(69.482422 0)"/>
     <use xlink:href="#DejaVuSans-20" transform="translate(133.105469 0)"/>
     <use xlink:href="#DejaVuSans-3d" transform="translate(164.892578 0)"/>
     <use xlink:href="#DejaVuSans-20" transform="translate(248.681641 0)"/>
     <use xlink:href="#DejaVuSans-32" transform="translate(280.46875 0)"/>
     <use xlink:href="#DejaVuSans-30" transform="translate(344.091797 0)"/>
     <use xlink:href="#DejaVuSans-20" transform="translate(407.714844 0)"/>
     <use xlink:href="#DejaVuSans-3a9" transform="translate(439.501953 0)"/>
    </g>
   </g>
   <g id="text_3">
    <!-- R2 = 30 Ω -->
    <g style="fill: #7eb8f7" transform="translate(167.104297 13.392344) scale(0.11 -0.11)">
     <defs>
      <path id="DejaVuSans-33" d="M 2597 2516 
Q 3050 2419 3304 2112 
Q 3559 1806 3559 1356 
Q 3559 666 3084 287 
Q 2609 -91 1734 -91 
Q 1441 -91 1130 -33 
Q 819 25 488 141 
L 488 750 
Q 750 597 1062 519 
Q 1375 441 1716 441 
Q 2309 441 2620 675 
Q 2931 909 2931 1356 
Q 2931 1769 2642 2001 
Q 2353 2234 1838 2234 
L 1294 2234 
L 1294 2753 
L 1863 2753 
Q 2328 2753 2575 2939 
Q 2822 3125 2822 3475 
Q 2822 3834 2567 4026 
Q 2313 4219 1838 4219 
Q 1578 4219 1281 4162 
Q 984 4106 628 3988 
L 628 4550 
Q 988 4650 1302 4700 
Q 1616 4750 1894 4750 
Q 2613 4750 3031 4423 
Q 3450 4097 3450 3541 
Q 3450 3153 3228 2886 
Q 3006 2619 2597 2516 
z
" transform="scale(0.015625)"/>
     </defs>
     <use xlink:href="#DejaVuSans-52"/>
     <use xlink:href="#DejaVuSans-32" transform="translate(69.482422 0)"/>
     <use xlink:href="#DejaVuSans-20" transform="translate(133.105469 0)"/>
     <use xlink:href="#DejaVuSans-3d" transform="translate(164.892578 0)"/>
     <use xlink:href="#DejaVuSans-20" transform="translate(248.681641 0)"/>
     <use xlink:href="#DejaVuSans-33" transform="translate(280.46875 0)"/>
     <use xlink:href="#DejaVuSans-30" transform="translate(344.091797 0)"/>
     <use xlink:href="#DejaVuSans-20" transform="translate(407.714844 0)"/>
     <use xlink:href="#DejaVuSans-3a9" transform="translate(439.501953 0)"/>
    </g>
   </g>
   <g id="text_4">
    <!-- A -->
    <g style="fill: #7eb8f7" transform="translate(245.717656 16.992344) scale(0.11 -0.11)">
     <defs>
      <path id="DejaVuSans-41" d="M 2188 4044 
L 1331 1722 
L 3047 1722 
L 2188 4044 
z
M 1831 4666 
L 2547 4666 
L 4325 0 
L 3669 0 
L 3244 1197 
L 1141 1197 
L 716 0 
L 50 0 
L 1831 4666 
z
" transform="scale(0.015625)"/>
     </defs>
     <use xlink:href="#DejaVuSans-41"/>
    </g>
   </g>
   <g id="text_5">
    <!-- B -->
    <g style="fill: #7eb8f7" transform="translate(245.706484 178.992344) scale(0.11 -0.11)">
     <defs>
      <path id="DejaVuSans-42" d="M 1259 2228 
L 1259 519 
L 2272 519 
Q 2781 519 3026 730 
Q 3272 941 3272 1375 
Q 3272 1813 3026 2020 
Q 2781 2228 2272 2228 
L 1259 2228 
z
M 1259 4147 
L 1259 2741 
L 2194 2741 
Q 2656 2741 2882 2914 
Q 3109 3088 3109 3444 
Q 3109 3797 2882 3972 
Q 2656 4147 2194 4147 
L 1259 4147 
z
M 628 4666 
L 2241 4666 
Q 2963 4666 3353 4366 
Q 3744 4066 3744 3513 
Q 3744 3084 3544 2831 
Q 3344 2578 2956 2516 
Q 3422 2416 3680 2098 
Q 3938 1781 3938 1306 
Q 3938 681 3513 340 
Q 3088 0 2303 0 
L 628 0 
L 628 4666 
z
" transform="scale(0.015625)"/>
     </defs>
     <use xlink:href="#DejaVuSans-42"/>
    </g>
   </g>
   <g id="text_6">
    <!-- R3 = 60 Ω -->
    <g style="fill: #7eb8f7" transform="translate(289.504297 13.392344) scale(0.11 -0.11)">
     <defs>
      <path id="DejaVuSans-36" d="M 2113 2584 
Q 1688 2584 1439 2293 
Q 1191 2003 1191 1497 
Q 1191 994 1439 701 
Q 1688 409 2113 409 
Q 2538 409 2786 701 
Q 3034 994 3034 1497 
Q 3034 2003 2786 2293 
Q 2538 2584 2113 2584 
z
M 3366 4563 
L 3366 3988 
Q 3128 4100 2886 4159 
Q 2644 4219 2406 4219 
Q 1781 4219 1451 3797 
Q 1122 3375 1075 2522 
Q 1259 2794 1537 2939 
Q 1816 3084 2150 3084 
Q 2853 3084 3261 2657 
Q 3669 2231 3669 1497 
Q 3669 778 3244 343 
Q 2819 -91 2113 -91 
Q 1303 -91 875 529 
Q 447 1150 447 2328 
Q 447 3434 972 4092 
Q 1497 4750 2381 4750 
Q 2619 4750 2861 4703 
Q 3103 4656 3366 4563 
z
" transform="scale(0.015625)"/>
     </defs>
     <use xlink:href="#DejaVuSans-52"/>
     <use xlink:href="#DejaVuSans-33" transform="translate(69.482422 0)"/>
     <use xlink:href="#DejaVuSans-20" transform="translate(133.105469 0)"/>
     <use xlink:href="#DejaVuSans-3d" transform="translate(164.892578 0)"/>
     <use xlink:href="#DejaVuSans-20" transform="translate(248.681641 0)"/>
     <use xlink:href="#DejaVuSans-36" transform="translate(280.46875 0)"/>
     <use xlink:href="#DejaVuSans-30" transform="translate(344.091797 0)"/>
     <use xlink:href="#DejaVuSans-20" transform="translate(407.714844 0)"/>
     <use xlink:href="#DejaVuSans-3a9" transform="translate(439.501953 0)"/>
    </g>
   </g>
   <g id="patch_3">
    <path d="M 195.48 25.58 
C 196.196048 25.58 196.882866 25.295511 197.389188 24.789188 
C 197.895511 24.282866 198.18 23.596048 198.18 22.88 
C 198.18 22.163952 197.895511 21.477134 197.389188 20.970812 
C 196.882866 20.464489 196.196048 20.18 195.48 20.18 
C 194.763952 20.18 194.077134 20.464489 193.570812 20.970812 
C 193.064489 21.477134 192.78 22.163952 192.78 22.88 
C 192.78 23.596048 193.064489 24.282866 193.570812 24.789188 
C 194.077134 25.295511 194.763952 25.58 195.48 25.58 
z
" clip-path="url(#pbc5c014fa0)" style="fill: #7eb8f7; stroke: #7eb8f7; stroke-width: 2; stroke-linejoin: miter"/>
   </g>
   <g id="patch_4">
    <path d="M 195.48 187.58 
C 196.196048 187.58 196.882866 187.295511 197.389188 186.789188 
C 197.895511 186.282866 198.18 185.596048 198.18 184.88 
C 198.18 184.163952 197.895511 183.477134 197.389188 182.970812 
C 196.882866 182.464489 196.196048 182.18 195.48 182.18 
C 194.763952 182.18 194.077134 182.464489 193.570812 182.970812 
C 193.064489 183.477134 192.78 184.163952 192.78 184.88 
C 192.78 185.596048 193.064489 186.282866 193.570812 186.789188 
C 194.077134 187.295511 194.763952 187.58 195.48 187.58 
z
" clip-path="url(#pbc5c014fa0)" style="fill: #7eb8f7; stroke: #7eb8f7; stroke-width: 2; stroke-linejoin: miter"/>
   </g>
   <g id="patch_5">
    <path d="M 245.88 25.58 
C 246.596048 25.58 247.282866 25.295511 247.789188 24.789188 
C 248.295511 24.282866 248.58 23.596048 248.58 22.88 
C 248.58 22.163952 248.295511 21.477134 247.789188 20.970812 
C 247.282866 20.464489 246.596048 20.18 245.88 20.18 
C 245.163952 20.18 244.477134 20.464489 243.970812 20.970812 
C 243.464489 21.477134 243.18 22.163952 243.18 22.88 
C 243.18 23.596048 243.464489 24.282866 243.970812 24.789188 
C 244.477134 25.295511 245.163952 25.58 245.88 25.58 
z
" clip-path="url(#pbc5c014fa0)" style="fill: none; stroke: #7eb8f7; stroke-width: 2; stroke-linejoin: miter"/>
   </g>
   <g id="patch_6">
    <path d="M 245.88 187.58 
C 246.596048 187.58 247.282866 187.295511 247.789188 186.789188 
C 248.295511 186.282866 248.58 185.596048 248.58 184.88 
C 248.58 184.163952 248.295511 183.477134 247.789188 182.970812 
C 247.282866 182.464489 246.596048 182.18 245.88 182.18 
C 245.163952 182.18 244.477134 182.464489 243.970812 182.970812 
C 243.464489 183.477134 243.18 184.163952 243.18 184.88 
C 243.18 185.596048 243.464489 186.282866 243.970812 186.789188 
C 244.477134 187.295511 245.163952 187.58 245.88 187.58 
z
" clip-path="url(#pbc5c014fa0)" style="fill: none; stroke: #7eb8f7; stroke-width: 2; stroke-linejoin: miter"/>
   </g>
  </g>
 </g>
 <defs>
  <clipPath id="pbc5c014fa0">
   <rect x="0" y="0" width="347.079" height="204.16"/>
  </clipPath>
 </defs>
</svg>
