<svg style="background:#0f1117;" xmlns:xlink="http://www.w3.org/1999/xlink" width="100%" height="auto" viewBox="0 0 287.25 171.56" xmlns="http://www.w3.org/2000/svg" version="1.1">
 
 <defs>
  <style type="text/css">*{stroke-linejoin: round; stroke-linecap: butt}</style>
 </defs>
 <g id="figure_1">
  <g id="patch_1">
   <path d="M 0 171.56 
L 287.25 171.56 
L 287.25 0 
L 0 0 
L 0 171.56 
z
" style="fill: none"/>
  </g>
  <g id="axes_1">
   <g id="patch_2">
    <path d="M 22.68 108.28 
C 27.453656 108.28 32.032438 106.383406 35.407922 103.007922 
C 38.783406 99.632438 40.68 95.053656 40.68 90.28 
C 40.68 85.506344 38.783406 80.927562 35.407922 77.552078 
C 32.032438 74.176594 27.453656 72.28 22.68 72.28 
C 17.906344 72.28 13.327562 74.176594 9.952078 77.552078 
C 6.576594 80.927562 4.68 85.506344 4.68 90.28 
C 4.68 95.053656 6.576594 99.632438 9.952078 103.007922 
C 13.327562 106.383406 17.906344 108.28 22.68 108.28 
L 22.68 108.28 
z
" clip-path="url(#p0a539e9808)" style="fill: none; stroke: #7eb8f7; stroke-width: 2; stroke-linejoin: miter"/>
   </g>
   <g id="line2d_1">
    <path d="M 22.68 153.28 
L 22.68 108.28 
L 22.68 108.28 
M 22.68 72.28 
L 22.68 72.28 
L 22.68 27.28 
" clip-path="url(#p0a539e9808)" style="fill: none; stroke: #7eb8f7; stroke-width: 2; stroke-linecap: round"/>
   </g>
   <g id="line2d_2">
    <path d="M 26.28 99.28 
L 19.08 99.28 
" clip-path="url(#p0a539e9808)" style="fill: none; stroke: #7eb8f7; stroke-width: 2; stroke-linecap: round"/>
   </g>
   <g id="line2d_3">
    <path d="M 22.68 84.88 
L 22.68 77.68 
" clip-path="url(#p0a539e9808)" style="fill: none; stroke: #7eb8f7; stroke-width: 2; stroke-linecap: round"/>
   </g>
   <g id="line2d_4">
    <path d="M 26.28 81.28 
L 19.08 81.28 
" clip-path="url(#p0a539e9808)" style="fill: none; stroke: #7eb8f7; stroke-width: 2; stroke-linecap: round"/>
   </g>
   <g id="line2d_5">
    <path d="M 22.68 27.28 
L 28.08 27.28 
L 33.48 27.28 
" clip-path="url(#p0a539e9808)" style="fill: none; stroke: #7eb8f7; stroke-width: 2; stroke-linecap: round"/>
   </g>
   <g id="line2d_6">
    <path d="M 33.48 27.28 
L 78.48 27.28 
L 81.48 18.28 
L 87.48 36.28 
L 93.48 18.28 
L 99.48 36.28 
L 105.48 18.28 
L 111.48 36.28 
L 114.48 27.28 
L 159.48 27.28 
" clip-path="url(#p0a539e9808)" style="fill: none; stroke: #7eb8f7; stroke-width: 2; stroke-linecap: round"/>
   </g>
   <g id="line2d_7">
    <path d="M 159.48 27.28 
L 181.08 27.28 
L 202.68 27.28 
" clip-path="url(#p0a539e9808)" style="fill: none; stroke: #7eb8f7; stroke-width: 2; stroke-linecap: round"/>
   </g>
   <g id="line2d_8">
    <path d="M 159.48 27.28 
L 159.48 72.28 
L 168.48 75.28 
L 150.48 81.28 
L 168.48 87.28 
L 150.48 93.28 
L 168.48 99.28 
L 150.48 105.28 
L 159.48 108.28 
L 159.48 153.28 
" clip-path="url(#p0a539e9808)" style="fill: none; stroke: #7eb8f7; stroke-width: 2; stroke-linecap: round"/>
   </g>
   <g id="line2d_9">
    <path d="M 159.48 153.28 
L 181.08 153.28 
L 202.68 153.28 
" clip-path="url(#p0a539e9808)" style="fill: none; stroke: #7eb8f7; stroke-width: 2; stroke-linecap: round"/>
   </g>
   <g id="line2d_10">
    <path d="M 202.68 27.28 
L 231.48 27.28 
L 260.28 27.28 
" clip-path="url(#p0a539e9808)" style="fill: none; stroke: #7eb8f7; stroke-width: 2; stroke-linecap: round"/>
   </g>
   <g id="line2d_11">
    <path d="M 260.28 27.28 
L 260.28 72.28 
L 269.28 75.28 
L 251.28 81.28 
L 269.28 87.28 
L 251.28 93.28 
L 269.28 99.28 
L 251.28 105.28 
L 260.28 108.28 
L 260.28 153.28 
" clip-path="url(#p0a539e9808)" style="fill: none; stroke: #7eb8f7; stroke-width: 2; stroke-linecap: round"/>
   </g>
   <g id="line2d_12">
    <path d="M 260.28 153.28 
L 231.48 153.28 
L 202.68 153.28 
" clip-path="url(#p0a539e9808)" style="fill: none; stroke: #7eb8f7; stroke-width: 2; stroke-linecap: round"/>
   </g>
   <g id="line2d_13">
    <path d="M 159.48 153.28 
L 91.08 153.28 
L 22.68 153.28 
" clip-path="url(#p0a539e9808)" style="fill: none; stroke: #7eb8f7; stroke-width: 2; stroke-linecap: round"/>
   </g>
   <g id="line2d_14">
    <path d="M 22.68 153.28 
L 22.68 153.28 
L 22.68 153.28 
" clip-path="url(#p0a539e9808)" style="fill: none; stroke: #7eb8f7; stroke-width: 2; stroke-linecap: round"/>
   </g>
   <g id="text_1">
    <!-- 120 V -->
    <g transform="translate(8.126875 164.478438) scale(0.1 -0.1)">
     <defs>
      <path id="DejaVuSans-31" d="M 794 531 
L 1825 531 
L 1825 4091 
L 703 3866 
L 703 4441 
L 1819 4666 
L 2450 4666 
L 2450 531 
L 3481 531 
L 3481 0 
L 794 0 
L 794 531 
z
" transform="scale(0.015625)"/>
      <path id="DejaVuSans-32" d="M 1228 531 
L 3431 531 
L 3431 0 
L 469 0 
L 469 531 
Q 828 903 1448 1529 
Q 2069 2156 2228 2338 
Q 2531 2678 2651 2914 
Q 2772 3150 2772 3378 
Q 2772 3750 2511 3984 
Q 2250 4219 1831 4219 
Q 1534 4219 1204 4116 
Q 875 4013 500 3803 
L 500 4441 
Q 881 4594 1212 4672 
Q 1544 4750 1819 4750 
Q 2544 4750 2975 4387 
Q 3406 4025 3406 3419 
Q 3406 3131 3298 2873 
Q 3191 2616 2906 2266 
Q 2828 2175 2409 1742 
Q 1991 1309 1228 531 
z
" transform="scale(0.015625)"/>
      <path id="DejaVuSans-30" d="M 2034 4250 
Q 1547 4250 1301 3770 
Q 1056 3291 1056 2328 
Q 1056 1369 1301 889 
Q 1547 409 2034 409 
Q 2525 409 2770 889 
Q 3016 1369 3016 2328 
Q 3016 3291 2770 3770 
Q 2525 4250 2034 4250 
z
M 2034 4750 
Q 2819 4750 3233 4129 
Q 3647 3509 3647 2328 
Q 3647 1150 3233 529 
Q 2819 -91 2034 -91 
Q 1250 -91 836 529 
Q 422 1150 422 2328 
Q 422 3509 836 4129 
Q 1250 4750 2034 4750 
z
" transform="scale(0.015625)"/>
      <path id="DejaVuSans-20" transform="scale(0.015625)"/>
      <path id="DejaVuSans-56" d="M 1831 0 
L 50 4666 
L 709 4666 
L 2188 738 
L 3669 4666 
L 4325 4666 
L 2547 0 
L 1831 0 
z
" transform="scale(0.015625)"/>
     </defs>
     <use xlink:href="#DejaVuSans-31"/>
     <use xlink:href="#DejaVuSans-32" transform="translate(63.623047 0)"/>
     <use xlink:href="#DejaVuSans-30" transform="translate(127.246094 0)"/>
     <use xlink:href="#DejaVuSans-20" transform="translate(190.869141 0)"/>
     <use xlink:href="#DejaVuSans-56" transform="translate(222.65625 0)"/>
    </g>
   </g>
   <g id="text_2">
    <!-- R1 = 20 Ω -->
    <g transform="translate(70.683906 12.600313) scale(0.1 -0.1)">
     <defs>
      <path id="DejaVuSans-52" d="M 2841 2188 
Q 3044 2119 3236 1894 
Q 3428 1669 3622 1275 
L 4263 0 
L 3584 0 
L 2988 1197 
Q 2756 1666 2539 1819 
Q 2322 1972 1947 1972 
L 1259 1972 
L 1259 0 
L 628 0 
L 628 4666 
L 2053 4666 
Q 2853 4666 3247 4331 
Q 3641 3997 3641 3322 
Q 3641 2881 3436 2590 
Q 3231 2300 2841 2188 
z
M 1259 4147 
L 1259 2491 
L 2053 2491 
Q 2509 2491 2742 2702 
Q 2975 2913 2975 3322 
Q 2975 3731 2742 3939 
Q 2509 4147 2053 4147 
L 1259 4147 
z
" transform="scale(0.015625)"/>
      <path id="DejaVuSans-3d" d="M 678 2906 
L 4684 2906 
L 4684 2381 
L 678 2381 
L 678 2906 
z
M 678 1631 
L 4684 1631 
L 4684 1100 
L 678 1100 
L 678 1631 
z
" transform="scale(0.015625)"/>
      <path id="DejaVuSans-3a9" d="M 4647 556 
L 4647 0 
L 2772 0 
L 2772 556 
Q 3325 859 3634 1378 
Q 3944 1897 3944 2528 
Q 3944 3278 3531 3731 
Q 3119 4184 2444 4184 
Q 1769 4184 1355 3729 
Q 941 3275 941 2528 
Q 941 1897 1250 1378 
Q 1563 859 2119 556 
L 2119 0 
L 244 0 
L 244 556 
L 1241 556 
Q 747 991 519 1456 
Q 294 1922 294 2497 
Q 294 3491 894 4106 
Q 1491 4722 2444 4722 
Q 3391 4722 3994 4106 
Q 4594 3494 4594 2528 
Q 4594 1922 4372 1459 
Q 4150 997 3647 556 
L 4647 556 
z
" transform="scale(0.015625)"/>
     </defs>
     <use xlink:href="#DejaVuSans-52"/>
     <use xlink:href="#DejaVuSans-31" transform="translate(69.482422 0)"/>
     <use xlink:href="#DejaVuSans-20" transform="translate(133.105469 0)"/>
     <use xlink:href="#DejaVuSans-3d" transform="translate(164.892578 0)"/>
     <use xlink:href="#DejaVuSans-20" transform="translate(248.681641 0)"/>
     <use xlink:href="#DejaVuSans-32" transform="translate(280.46875 0)"/>
     <use xlink:href="#DejaVuSans-30" transform="translate(344.091797 0)"/>
     <use xlink:href="#DejaVuSans-20" transform="translate(407.714844 0)"/>
     <use xlink:href="#DejaVuSans-3a9" transform="translate(439.501953 0)"/>
    </g>
   </g>
   <g id="text_3">
    <!-- A -->
    <g transform="translate(202.859688 21.600313) scale(0.1 -0.1)">
     <defs>
      <path id="DejaVuSans-41" d="M 2188 4044 
L 1331 1722 
L 3047 1722 
L 2188 4044 
z
M 1831 4666 
L 2547 4666 
L 4325 0 
L 3669 0 
L 3244 1197 
L 1141 1197 
L 716 0 
L 50 0 
L 1831 4666 
z
" transform="scale(0.015625)"/>
     </defs>
     <use xlink:href="#DejaVuSans-41"/>
    </g>
   </g>
   <g id="text_4">
    <!-- R2 = 30 Ω -->
    <g transform="translate(133.683906 21.600313) scale(0.1 -0.1)">
     <defs>
      <path id="DejaVuSans-33" d="M 2597 2516 
Q 3050 2419 3304 2112 
Q 3559 1806 3559 1356 
Q 3559 666 3084 287 
Q 2609 -91 1734 -91 
Q 1441 -91 1130 -33 
Q 819 25 488 141 
L 488 750 
Q 750 597 1062 519 
Q 1375 441 1716 441 
Q 2309 441 2620 675 
Q 2931 909 2931 1356 
Q 2931 1769 2642 2001 
Q 2353 2234 1838 2234 
L 1294 2234 
L 1294 2753 
L 1863 2753 
Q 2328 2753 2575 2939 
Q 2822 3125 2822 3475 
Q 2822 3834 2567 4026 
Q 2313 4219 1838 4219 
Q 1578 4219 1281 4162 
Q 984 4106 628 3988 
L 628 4550 
Q 988 4650 1302 4700 
Q 1616 4750 1894 4750 
Q 2613 4750 3031 4423 
Q 3450 4097 3450 3541 
Q 3450 3153 3228 2886 
Q 3006 2619 2597 2516 
z
" transform="scale(0.015625)"/>
     </defs>
     <use xlink:href="#DejaVuSans-52"/>
     <use xlink:href="#DejaVuSans-32" transform="translate(69.482422 0)"/>
     <use xlink:href="#DejaVuSans-20" transform="translate(133.105469 0)"/>
     <use xlink:href="#DejaVuSans-3d" transform="translate(164.892578 0)"/>
     <use xlink:href="#DejaVuSans-20" transform="translate(248.681641 0)"/>
     <use xlink:href="#DejaVuSans-33" transform="translate(280.46875 0)"/>
     <use xlink:href="#DejaVuSans-30" transform="translate(344.091797 0)"/>
     <use xlink:href="#DejaVuSans-20" transform="translate(407.714844 0)"/>
     <use xlink:href="#DejaVuSans-3a9" transform="translate(439.501953 0)"/>
    </g>
   </g>
   <g id="text_5">
    <!-- B -->
    <g transform="translate(202.849531 157.278438) scale(0.1 -0.1)">
     <defs>
      <path id="DejaVuSans-42" d="M 1259 2228 
L 1259 519 
L 2272 519 
Q 2781 519 3026 730 
Q 3272 941 3272 1375 
Q 3272 1813 3026 2020 
Q 2781 2228 2272 2228 
L 1259 2228 
z
M 1259 4147 
L 1259 2741 
L 2194 2741 
Q 2656 2741 2882 2914 
Q 3109 3088 3109 3444 
Q 3109 3797 2882 3972 
Q 2656 4147 2194 4147 
L 1259 4147 
z
M 628 4666 
L 2241 4666 
Q 2963 4666 3353 4366 
Q 3744 4066 3744 3513 
Q 3744 3084 3544 2831 
Q 3344 2578 2956 2516 
Q 3422 2416 3680 2098 
Q 3938 1781 3938 1306 
Q 3938 681 3513 340 
Q 3088 0 2303 0 
L 628 0 
L 628 4666 
z
" transform="scale(0.015625)"/>
     </defs>
     <use xlink:href="#DejaVuSans-42"/>
    </g>
   </g>
   <g id="text_6">
    <!-- R3 = 60 Ω -->
    <g transform="translate(234.483906 21.600313) scale(0.1 -0.1)">
     <defs>
      <path id="DejaVuSans-36" d="M 2113 2584 
Q 1688 2584 1439 2293 
Q 1191 2003 1191 1497 
Q 1191 994 1439 701 
Q 1688 409 2113 409 
Q 2538 409 2786 701 
Q 3034 994 3034 1497 
Q 3034 2003 2786 2293 
Q 2538 2584 2113 2584 
z
M 3366 4563 
L 3366 3988 
Q 3128 4100 2886 4159 
Q 2644 4219 2406 4219 
Q 1781 4219 1451 3797 
Q 1122 3375 1075 2522 
Q 1259 2794 1537 2939 
Q 1816 3084 2150 3084 
Q 2853 3084 3261 2657 
Q 3669 2231 3669 1497 
Q 3669 778 3244 343 
Q 2819 -91 2113 -91 
Q 1303 -91 875 529 
Q 447 1150 447 2328 
Q 447 3434 972 4092 
Q 1497 4750 2381 4750 
Q 2619 4750 2861 4703 
Q 3103 4656 3366 4563 
z
" transform="scale(0.015625)"/>
     </defs>
     <use xlink:href="#DejaVuSans-52"/>
     <use xlink:href="#DejaVuSans-33" transform="translate(69.482422 0)"/>
     <use xlink:href="#DejaVuSans-20" transform="translate(133.105469 0)"/>
     <use xlink:href="#DejaVuSans-3d" transform="translate(164.892578 0)"/>
     <use xlink:href="#DejaVuSans-20" transform="translate(248.681641 0)"/>
     <use xlink:href="#DejaVuSans-36" transform="translate(280.46875 0)"/>
     <use xlink:href="#DejaVuSans-30" transform="translate(344.091797 0)"/>
     <use xlink:href="#DejaVuSans-20" transform="translate(407.714844 0)"/>
     <use xlink:href="#DejaVuSans-3a9" transform="translate(439.501953 0)"/>
    </g>
   </g>
   <g id="patch_3">
    <path d="M 159.48 29.98 
C 160.196048 29.98 160.882866 29.695511 161.389188 29.189188 
C 161.895511 28.682866 162.18 27.996048 162.18 27.28 
C 162.18 26.563952 161.895511 25.877134 161.389188 25.370812 
C 160.882866 24.864489 160.196048 24.58 159.48 24.58 
C 158.763952 24.58 158.077134 24.864489 157.570812 25.370812 
C 157.064489 25.877134 156.78 26.563952 156.78 27.28 
C 156.78 27.996048 157.064489 28.682866 157.570812 29.189188 
C 158.077134 29.695511 158.763952 29.98 159.48 29.98 
z
" clip-path="url(#p0a539e9808)" style="stroke: #7eb8f7; stroke-width: 2; stroke-linejoin: miter"/>
   </g>
   <g id="patch_4">
    <path d="M 202.68 29.98 
C 203.396048 29.98 204.082866 29.695511 204.589188 29.189188 
C 205.095511 28.682866 205.38 27.996048 205.38 27.28 
C 205.38 26.563952 205.095511 25.877134 204.589188 25.370812 
C 204.082866 24.864489 203.396048 24.58 202.68 24.58 
C 201.963952 24.58 201.277134 24.864489 200.770812 25.370812 
C 200.264489 25.877134 199.98 26.563952 199.98 27.28 
C 199.98 27.996048 200.264489 28.682866 200.770812 29.189188 
C 201.277134 29.695511 201.963952 29.98 202.68 29.98 
z
" clip-path="url(#p0a539e9808)" style="fill: #ffffff; stroke: #7eb8f7; stroke-width: 2; stroke-linejoin: miter"/>
   </g>
   <g id="patch_5">
    <path d="M 159.48 155.98 
C 160.196048 155.98 160.882866 155.695511 161.389188 155.189188 
C 161.895511 154.682866 162.18 153.996048 162.18 153.28 
C 162.18 152.563952 161.895511 151.877134 161.389188 151.370812 
C 160.882866 150.864489 160.196048 150.58 159.48 150.58 
C 158.763952 150.58 158.077134 150.864489 157.570812 151.370812 
C 157.064489 151.877134 156.78 152.563952 156.78 153.28 
C 156.78 153.996048 157.064489 154.682866 157.570812 155.189188 
C 158.077134 155.695511 158.763952 155.98 159.48 155.98 
z
" clip-path="url(#p0a539e9808)" style="stroke: #7eb8f7; stroke-width: 2; stroke-linejoin: miter"/>
   </g>
   <g id="patch_6">
    <path d="M 202.68 155.98 
C 203.396048 155.98 204.082866 155.695511 204.589188 155.189188 
C 205.095511 154.682866 205.38 153.996048 205.38 153.28 
C 205.38 152.563952 205.095511 151.877134 204.589188 151.370812 
C 204.082866 150.864489 203.396048 150.58 202.68 150.58 
C 201.963952 150.58 201.277134 150.864489 200.770812 151.370812 
C 200.264489 151.877134 199.98 152.563952 199.98 153.28 
C 199.98 153.996048 200.264489 154.682866 200.770812 155.189188 
C 201.277134 155.695511 201.963952 155.98 202.68 155.98 
z
" clip-path="url(#p0a539e9808)" style="fill: #ffffff; stroke: #7eb8f7; stroke-width: 2; stroke-linejoin: miter"/>
   </g>
  </g>
 </g>
 <defs>
  <clipPath id="p0a539e9808">
   <rect x="0" y="0" width="100%" height="171.56"/>
  </clipPath>
 </defs>
</svg>
