<svg style="background:#0f1117;" xmlns:xlink="http://www.w3.org/1999/xlink" width="100%" height="auto" viewBox="0 0 326.16 196.231972" xmlns="http://www.w3.org/2000/svg" version="1.1">
 
 <defs>
  <style type="text/css">*{stroke-linejoin: round; stroke-linecap: butt}</style>
 </defs>
 <g id="figure_1">
  <g id="axes_1">
   <g id="patch_2">
    <path d="M 22.68 122.951972 
C 27.453656 122.951972 32.032438 121.055378 35.407922 117.679894 
C 38.783406 114.30441 40.68 109.725628 40.68 104.951972 
C 40.68 100.178316 38.783406 95.599534 35.407922 92.22405 
C 32.032438 88.848566 27.453656 86.951972 22.68 86.951972 
C 17.906344 86.951972 13.327562 88.848566 9.952078 92.22405 
C 6.576594 95.599534 4.68 100.178316 4.68 104.951972 
C 4.68 109.725628 6.576594 114.30441 9.952078 117.679894 
C 13.327562 121.055378 17.906344 122.951972 22.68 122.951972 
L 22.68 122.951972 
z
" clip-path="url(#pa776978506)" style="fill: none; stroke: #7eb8f7; stroke-width: 2; stroke-linejoin: miter"/>
   </g>
   <g id="line2d_1">
    <path d="M 22.68 176.951972 
L 22.68 122.951972 
L 22.68 122.951972 
M 22.68 86.951972 
L 22.68 86.951972 
L 22.68 32.951972 
" clip-path="url(#pa776978506)" style="fill: none; stroke: #7eb8f7; stroke-width: 2; stroke-linecap: round"/>
   </g>
   <g id="line2d_2">
    <path d="M 31.68 104.951972 
L 30.93 103.088475 
L 30.18 101.351972 
L 29.43 99.860803 
L 28.68 98.716589 
L 27.93 97.997306 
L 27.18 97.751972 
L 26.43 97.997306 
L 25.68 98.716589 
L 24.93 99.860803 
L 24.18 101.351972 
L 23.43 103.088475 
L 22.68 104.951972 
L 21.93 106.815469 
L 21.18 108.551972 
L 20.43 110.043141 
L 19.68 111.187355 
L 18.93 111.906638 
L 18.18 112.151972 
L 17.43 111.906638 
L 16.68 111.187355 
L 15.93 110.043141 
L 15.18 108.551972 
L 14.43 106.815469 
L 13.68 104.951972 
" clip-path="url(#pa776978506)" style="fill: none; stroke: #7eb8f7; stroke-width: 2; stroke-linecap: round"/>
   </g>
   <g id="line2d_3">
    <path d="M 22.68 32.951972 
L 28.08 32.951972 
L 33.48 32.951972 
" clip-path="url(#pa776978506)" style="fill: none; stroke: #7eb8f7; stroke-width: 2; stroke-linecap: round"/>
   </g>
   <g id="line2d_4">
    <path d="M 33.48 32.951972 
L 87.48 32.951972 
L 90.48 23.951972 
L 96.48 41.951972 
L 102.48 23.951972 
L 108.48 41.951972 
L 114.48 23.951972 
L 120.48 41.951972 
L 123.48 32.951972 
L 177.48 32.951972 
" clip-path="url(#pa776978506)" style="fill: none; stroke: #7eb8f7; stroke-width: 2; stroke-linecap: round"/>
   </g>
   <g id="line2d_5">
    <path d="M 177.48 32.951972 
L 231.48 32.951972 
L 231.658789 29.851426 
L 232.202061 26.734241 
L 233.09503 23.885924 
L 233.659174 22.645757 
L 234.290881 21.567358 
L 234.98 20.675561 
L 235.715058 19.990905 
L 236.483521 19.529158 
L 237.272091 19.300955 
L 238.067001 19.31155 
L 238.854342 19.560701 
L 239.620378 20.042669 
L 240.351864 20.746354 
L 241.03635 21.655549 
L 241.66247 22.749316 
L 242.2202 24.002465 
L 242.701093 25.386134 
L 243.407576 28.415296 
L 243.752186 31.559356 
L 243.738333 34.530343 
L 243.402259 37.05614 
L 242.809719 38.905405 
L 242.444458 39.520516 
L 242.049959 39.90876 
L 241.639705 40.061193 
L 241.22754 39.974305 
L 240.827355 39.650098 
L 240.452763 39.096038 
L 240.116788 38.324886 
L 239.608059 36.206934 
L 239.382736 33.49023 
L 239.496432 30.423602 
L 239.973706 27.287927 
L 240.805818 24.370408 
L 241.343235 23.078436 
L 241.951526 21.938265 
L 242.621077 20.976155 
L 243.340866 20.214263 
L 244.098713 19.670136 
L 244.881561 19.356306 
L 245.675778 19.28 
L 246.467469 19.442976 
L 247.242798 19.84148 
L 247.988307 20.466334 
L 248.691222 21.303149 
L 249.339752 22.332651 
L 249.923359 23.53113 
L 250.432998 24.870985 
L 251.202885 27.848847 
L 251.613871 30.993489 
L 251.663287 34.016887 
L 251.381582 36.642124 
L 250.829529 38.628748 
L 250.478088 39.322934 
L 250.092667 39.794802 
L 249.686541 40.033485 
L 249.273459 40.033485 
L 248.867333 39.794802 
L 248.481912 39.322934 
L 248.130471 38.628748 
L 247.825499 37.728232 
L 247.399316 35.395438 
L 247.27737 32.538219 
L 247.505804 29.418272 
L 248.098671 26.321358 
L 249.036641 23.53113 
L 249.620248 22.332651 
L 250.268778 21.303149 
L 250.971693 20.466334 
L 251.717202 19.84148 
L 252.492531 19.442976 
L 253.284222 19.28 
L 254.078439 19.356306 
L 254.861287 19.670136 
L 255.619134 20.214263 
L 256.338923 20.976155 
L 257.008474 21.938265 
L 257.616765 23.078436 
L 258.154182 24.370408 
L 258.986294 27.287927 
L 259.463568 30.423602 
L 259.577264 33.49023 
L 259.351941 36.206934 
L 258.843212 38.324886 
L 258.507237 39.096038 
L 258.132645 39.650098 
L 257.73246 39.974305 
L 257.320295 40.061193 
L 256.910041 39.90876 
L 256.515542 39.520516 
L 256.150281 38.905405 
L 255.827067 38.077591 
L 255.352903 35.864577 
L 255.171453 33.084167 
L 255.33431 29.991025 
L 255.86153 26.868457 
L 256.7398 24.002465 
L 257.29753 22.749316 
L 257.92365 21.655549 
L 258.608136 20.746354 
L 259.339622 20.042669 
L 260.105658 19.560701 
L 260.892999 19.31155 
L 261.687909 19.300955 
L 262.476479 19.529158 
L 263.244942 19.990905 
L 263.98 20.675561 
L 264.669119 21.567358 
L 265.300826 22.645757 
L 265.86497 23.885924 
L 266.352955 25.259294 
L 267.074992 28.276793 
L 267.435781 31.421875 
L 267.48 32.951972 
L 321.48 32.951972 
L 321.48 32.951972 
" clip-path="url(#pa776978506)" style="fill: none; stroke: #7eb8f7; stroke-width: 2; stroke-linecap: round"/>
   </g>
   <g id="line2d_6">
    <path d="M 321.48 32.951972 
L 321.48 104.951972 
L 321.48 176.951972 
" clip-path="url(#pa776978506)" style="fill: none; stroke: #7eb8f7; stroke-width: 2; stroke-linecap: round"/>
   </g>
   <g id="line2d_7">
    <path d="M 321.48 176.951972 
L 172.08 176.951972 
L 22.68 176.951972 
" clip-path="url(#pa776978506)" style="fill: none; stroke: #7eb8f7; stroke-width: 2; stroke-linecap: round"/>
   </g>
   <g id="line2d_8">
    <path d="M 22.68 176.951972 
L 22.68 176.951972 
L 22.68 176.951972 
" clip-path="url(#pa776978506)" style="fill: none; stroke: #7eb8f7; stroke-width: 2; stroke-linecap: round"/>
   </g>
   <g id="text_1">
    <!-- V -->
    <g style="fill: #7eb8f7" transform="translate(18.917656 188.910253) scale(0.11 -0.11)">
     <defs>
      <path id="DejaVuSans-56" d="M 1831 0 
L 50 4666 
L 709 4666 
L 2188 738 
L 3669 4666 
L 4325 4666 
L 2547 0 
L 1831 0 
z
" transform="scale(0.015625)"/>
     </defs>
     <use xlink:href="#DejaVuSans-56"/>
    </g>
   </g>
   <g id="text_2">
    <!-- R = 30 Ω -->
    <g style="fill: #7eb8f7" transform="translate(80.603672 18.064316) scale(0.11 -0.11)">
     <defs>
      <path id="DejaVuSans-52" d="M 2841 2188 
Q 3044 2119 3236 1894 
Q 3428 1669 3622 1275 
L 4263 0 
L 3584 0 
L 2988 1197 
Q 2756 1666 2539 1819 
Q 2322 1972 1947 1972 
L 1259 1972 
L 1259 0 
L 628 0 
L 628 4666 
L 2053 4666 
Q 2853 4666 3247 4331 
Q 3641 3997 3641 3322 
Q 3641 2881 3436 2590 
Q 3231 2300 2841 2188 
z
M 1259 4147 
L 1259 2491 
L 2053 2491 
Q 2509 2491 2742 2702 
Q 2975 2913 2975 3322 
Q 2975 3731 2742 3939 
Q 2509 4147 2053 4147 
L 1259 4147 
z
" transform="scale(0.015625)"/>
      <path id="DejaVuSans-20" transform="scale(0.015625)"/>
      <path id="DejaVuSans-3d" d="M 678 2906 
L 4684 2906 
L 4684 2381 
L 678 2381 
L 678 2906 
z
M 678 1631 
L 4684 1631 
L 4684 1100 
L 678 1100 
L 678 1631 
z
" transform="scale(0.015625)"/>
      <path id="DejaVuSans-33" d="M 2597 2516 
Q 3050 2419 3304 2112 
Q 3559 1806 3559 1356 
Q 3559 666 3084 287 
Q 2609 -91 1734 -91 
Q 1441 -91 1130 -33 
Q 819 25 488 141 
L 488 750 
Q 750 597 1062 519 
Q 1375 441 1716 441 
Q 2309 441 2620 675 
Q 2931 909 2931 1356 
Q 2931 1769 2642 2001 
Q 2353 2234 1838 2234 
L 1294 2234 
L 1294 2753 
L 1863 2753 
Q 2328 2753 2575 2939 
Q 2822 3125 2822 3475 
Q 2822 3834 2567 4026 
Q 2313 4219 1838 4219 
Q 1578 4219 1281 4162 
Q 984 4106 628 3988 
L 628 4550 
Q 988 4650 1302 4700 
Q 1616 4750 1894 4750 
Q 2613 4750 3031 4423 
Q 3450 4097 3450 3541 
Q 3450 3153 3228 2886 
Q 3006 2619 2597 2516 
z
" transform="scale(0.015625)"/>
      <path id="DejaVuSans-30" d="M 2034 4250 
Q 1547 4250 1301 3770 
Q 1056 3291 1056 2328 
Q 1056 1369 1301 889 
Q 1547 409 2034 409 
Q 2525 409 2770 889 
Q 3016 1369 3016 2328 
Q 3016 3291 2770 3770 
Q 2525 4250 2034 4250 
z
M 2034 4750 
Q 2819 4750 3233 4129 
Q 3647 3509 3647 2328 
Q 3647 1150 3233 529 
Q 2819 -91 2034 -91 
Q 1250 -91 836 529 
Q 422 1150 422 2328 
Q 422 3509 836 4129 
Q 1250 4750 2034 4750 
z
" transform="scale(0.015625)"/>
      <path id="DejaVuSans-3a9" d="M 4647 556 
L 4647 0 
L 2772 0 
L 2772 556 
Q 3325 859 3634 1378 
Q 3944 1897 3944 2528 
Q 3944 3278 3531 3731 
Q 3119 4184 2444 4184 
Q 1769 4184 1355 3729 
Q 941 3275 941 2528 
Q 941 1897 1250 1378 
Q 1563 859 2119 556 
L 2119 0 
L 244 0 
L 244 556 
L 1241 556 
Q 747 991 519 1456 
Q 294 1922 294 2497 
Q 294 3491 894 4106 
Q 1491 4722 2444 4722 
Q 3391 4722 3994 4106 
Q 4594 3494 4594 2528 
Q 4594 1922 4372 1459 
Q 4150 997 3647 556 
L 4647 556 
z
" transform="scale(0.015625)"/>
     </defs>
     <use xlink:href="#DejaVuSans-52"/>
     <use xlink:href="#DejaVuSans-20" transform="translate(69.482422 0)"/>
     <use xlink:href="#DejaVuSans-3d" transform="translate(101.269531 0)"/>
     <use xlink:href="#DejaVuSans-20" transform="translate(185.058594 0)"/>
     <use xlink:href="#DejaVuSans-33" transform="translate(216.845703 0)"/>
     <use xlink:href="#DejaVuSans-30" transform="translate(280.46875 0)"/>
     <use xlink:href="#DejaVuSans-20" transform="translate(344.091797 0)"/>
     <use xlink:href="#DejaVuSans-3a9" transform="translate(375.878906 0)"/>
    </g>
   </g>
   <g id="text_3">
    <!-- XL = 40 Ω -->
    <g style="fill: #7eb8f7" transform="translate(221.593281 13.392344) scale(0.11 -0.11)">
     <defs>
      <path id="DejaVuSans-58" d="M 403 4666 
L 1081 4666 
L 2241 2931 
L 3406 4666 
L 4084 4666 
L 2584 2425 
L 4184 0 
L 3506 0 
L 2194 1984 
L 872 0 
L 191 0 
L 1856 2491 
L 403 4666 
z
" transform="scale(0.015625)"/>
      <path id="DejaVuSans-4c" d="M 628 4666 
L 1259 4666 
L 1259 531 
L 3531 531 
L 3531 0 
L 628 0 
L 628 4666 
z
" transform="scale(0.015625)"/>
      <path id="DejaVuSans-34" d="M 2419 4116 
L 825 1625 
L 2419 1625 
L 2419 4116 
z
M 2253 4666 
L 3047 4666 
L 3047 1625 
L 3713 1625 
L 3713 1100 
L 3047 1100 
L 3047 0 
L 2419 0 
L 2419 1100 
L 313 1100 
L 313 1709 
L 2253 4666 
z
" transform="scale(0.015625)"/>
     </defs>
     <use xlink:href="#DejaVuSans-58"/>
     <use xlink:href="#DejaVuSans-4c" transform="translate(68.505859 0)"/>
     <use xlink:href="#DejaVuSans-20" transform="translate(124.21875 0)"/>
     <use xlink:href="#DejaVuSans-3d" transform="translate(156.005859 0)"/>
     <use xlink:href="#DejaVuSans-20" transform="translate(239.794922 0)"/>
     <use xlink:href="#DejaVuSans-34" transform="translate(271.582031 0)"/>
     <use xlink:href="#DejaVuSans-30" transform="translate(335.205078 0)"/>
     <use xlink:href="#DejaVuSans-20" transform="translate(398.828125 0)"/>
     <use xlink:href="#DejaVuSans-3a9" transform="translate(430.615234 0)"/>
    </g>
   </g>
  </g>
 </g>
 <defs>
  <clipPath id="pa776978506">___CLIP_CONTENT___</clipPath>
 </defs>
</svg>
