<svg style="background:#0f1117;" xmlns:xlink="http://www.w3.org/1999/xlink" width="100%" height="auto" viewBox="0 0 466.98 158.86" xmlns="http://www.w3.org/2000/svg" version="1.1">
 
 <defs>
  <style type="text/css">*{stroke-linejoin: round; stroke-linecap: butt}</style>
 </defs>
 <g id="figure_1">
  <g id="patch_1">
   <path d="M 0 158.86 
L 466.98 158.86 
L 466.98 0 
L 0 0 
L 0 158.86 
z
" style="fill: none"/>
  </g>
  <g id="axes_1">
   <g id="patch_2">
    <path d="M 60.9 111.88 
C 65.673656 111.88 70.252438 109.983406 73.627922 106.607922 
C 77.003406 103.232438 78.9 98.653656 78.9 93.88 
C 78.9 89.106344 77.003406 84.527562 73.627922 81.152078 
C 70.252438 77.776594 65.673656 75.88 60.9 75.88 
C 56.126344 75.88 51.547562 77.776594 48.172078 81.152078 
C 44.796594 84.527562 42.9 89.106344 42.9 93.88 
C 42.9 98.653656 44.796594 103.232438 48.172078 106.607922 
C 51.547562 109.983406 56.126344 111.88 60.9 111.88 
L 60.9 111.88 
z
" clip-path="url(#paf79b3a0aa)" style="fill: none; stroke: #7eb8f7; stroke-width: 2; stroke-linejoin: miter"/>
   </g>
   <g id="patch_3">
    <path d="M 147.3 54.28 
C 152.073656 54.28 156.652438 52.383406 160.027922 49.007922 
C 163.403406 45.632438 165.3 41.053656 165.3 36.28 
C 165.3 31.506344 163.403406 26.927562 160.027922 23.552078 
C 156.652438 20.176594 152.073656 18.28 147.3 18.28 
C 142.526344 18.28 137.947562 20.176594 134.572078 23.552078 
C 131.196594 26.927562 129.3 31.506344 129.3 36.28 
C 129.3 41.053656 131.196594 45.632438 134.572078 49.007922 
C 137.947562 52.383406 142.526344 54.28 147.3 54.28 
L 147.3 54.28 
z
" clip-path="url(#paf79b3a0aa)" style="fill: none; stroke: #7eb8f7; stroke-width: 2; stroke-linejoin: miter"/>
   </g>
   <g id="line2d_1">
    <path d="M 60.9 151.48 
L 60.9 111.88 
L 60.9 111.88 
M 60.9 75.88 
L 60.9 75.88 
L 60.9 36.28 
" clip-path="url(#paf79b3a0aa)" style="fill: none; stroke: #7eb8f7; stroke-width: 2; stroke-linecap: round"/>
   </g>
   <g id="line2d_2">
    <path d="M 69.9 93.88 
L 69.15 92.016503 
L 68.4 90.28 
L 67.65 88.788831 
L 66.9 87.644617 
L 66.15 86.925334 
L 65.4 86.68 
L 64.65 86.925334 
L 63.9 87.644617 
L 63.15 88.788831 
L 62.4 90.28 
L 61.65 92.016503 
L 60.9 93.88 
L 60.15 95.743497 
L 59.4 97.48 
L 58.65 98.971169 
L 57.9 100.115383 
L 57.15 100.834666 
L 56.4 101.08 
L 55.65 100.834666 
L 54.9 100.115383 
L 54.15 98.971169 
L 53.4 97.48 
L 52.65 95.743497 
L 51.9 93.88 
" clip-path="url(#paf79b3a0aa)" style="fill: none; stroke: #7eb8f7; stroke-width: 2; stroke-linecap: round"/>
   </g>
   <g id="line2d_3">
    <path d="M 60.9 36.28 
L 75.3 36.28 
L 89.7 36.28 
" clip-path="url(#paf79b3a0aa)" style="fill: none; stroke: #7eb8f7; stroke-width: 2; stroke-linecap: round"/>
   </g>
   <g id="line2d_4">
    <path d="M 89.7 36.28 
L 129.3 36.28 
L 129.3 36.28 
M 165.3 36.28 
L 165.3 36.28 
L 204.9 36.28 
" clip-path="url(#paf79b3a0aa)" style="fill: none; stroke: #7eb8f7; stroke-width: 2; stroke-linecap: round"/>
   </g>
   <g id="line2d_5">
    <path d="M 204.9 36.28 
L 244.5 36.28 
L 247.5 27.28 
L 253.5 45.28 
L 259.5 27.28 
L 265.5 45.28 
L 271.5 27.28 
L 277.5 45.28 
L 280.5 36.28 
L 320.1 36.28 
" clip-path="url(#paf79b3a0aa)" style="fill: none; stroke: #7eb8f7; stroke-width: 2; stroke-linecap: round"/>
   </g>
   <g id="line2d_6">
    <path d="M 320.1 36.28 
L 329.1 36.28 
L 338.1 36.28 
" clip-path="url(#paf79b3a0aa)" style="fill: none; stroke: #7eb8f7; stroke-width: 2; stroke-linecap: round"/>
   </g>
   <g id="line2d_7">
    <path d="M 338.1 36.28 
L 338.1 75.88 
L 341.200546 76.058789 
L 344.317731 76.602061 
L 347.166048 77.49503 
L 348.406214 78.059174 
L 349.484614 78.690881 
L 350.376411 79.38 
L 351.061067 80.115058 
L 351.522814 80.883521 
L 351.751017 81.672091 
L 351.740422 82.467001 
L 351.491271 83.254342 
L 351.009303 84.020378 
L 350.305618 84.751864 
L 349.396423 85.43635 
L 348.302656 86.06247 
L 347.049507 86.6202 
L 345.665838 87.101093 
L 342.636676 87.807576 
L 339.492616 88.152186 
L 336.521629 88.138333 
L 333.995832 87.802259 
L 332.146567 87.209719 
L 331.531455 86.844458 
L 331.143212 86.449959 
L 330.990779 86.039705 
L 331.077667 85.62754 
L 331.401874 85.227355 
L 331.955934 84.852763 
L 332.727086 84.516788 
L 334.845038 84.008059 
L 337.561742 83.782736 
L 340.62837 83.896432 
L 343.764045 84.373706 
L 346.681564 85.205818 
L 347.973536 85.743235 
L 349.113707 86.351526 
L 350.075817 87.021077 
L 350.837709 87.740866 
L 351.381836 88.498713 
L 351.695666 89.281561 
L 351.771972 90.075778 
L 351.608996 90.867469 
L 351.210492 91.642798 
L 350.585638 92.388307 
L 349.748823 93.091222 
L 348.719321 93.739752 
L 347.520842 94.323359 
L 346.180987 94.832998 
L 343.203125 95.602885 
L 340.058483 96.013871 
L 337.035085 96.063287 
L 334.409848 95.781582 
L 332.423224 95.229529 
L 331.729038 94.878088 
L 331.25717 94.492667 
L 331.018487 94.086541 
L 331.018487 93.673459 
L 331.25717 93.267333 
L 331.729038 92.881912 
L 332.423224 92.530471 
L 333.32374 92.225499 
L 335.656534 91.799316 
L 338.513753 91.67737 
L 341.6337 91.905804 
L 344.730614 92.498671 
L 347.520842 93.436641 
L 348.719321 94.020248 
L 349.748823 94.668778 
L 350.585638 95.371693 
L 351.210492 96.117202 
L 351.608996 96.892531 
L 351.771972 97.684222 
L 351.695666 98.478439 
L 351.381836 99.261287 
L 350.837709 100.019134 
L 350.075817 100.738923 
L 349.113707 101.408474 
L 347.973536 102.016765 
L 346.681564 102.554182 
L 343.764045 103.386294 
L 340.62837 103.863568 
L 337.561742 103.977264 
L 334.845038 103.751941 
L 332.727086 103.243212 
L 331.955934 102.907237 
L 331.401874 102.532645 
L 331.077667 102.13246 
L 330.990779 101.720295 
L 331.143212 101.310041 
L 331.531455 100.915542 
L 332.146567 100.550281 
L 332.974381 100.227067 
L 335.187395 99.752903 
L 337.967805 99.571453 
L 341.060947 99.73431 
L 344.183515 100.26153 
L 347.049507 101.1398 
L 348.302656 101.69753 
L 349.396423 102.32365 
L 350.305618 103.008136 
L 351.009303 103.739622 
L 351.491271 104.505658 
L 351.740422 105.292999 
L 351.751017 106.087909 
L 351.522814 106.876479 
L 351.061067 107.644942 
L 350.376411 108.38 
L 349.484614 109.069119 
L 348.406214 109.700826 
L 347.166048 110.26497 
L 345.792678 110.752955 
L 342.775179 111.474992 
L 339.630097 111.835781 
L 338.1 111.88 
L 338.1 151.48 
L 338.1 151.48 
" clip-path="url(#paf79b3a0aa)" style="fill: none; stroke: #7eb8f7; stroke-width: 2; stroke-linecap: round"/>
   </g>
   <g id="line2d_8">
    <path d="M 338.1 151.48 
L 395.7 151.48 
L 453.3 151.48 
" clip-path="url(#paf79b3a0aa)" style="fill: none; stroke: #7eb8f7; stroke-width: 2; stroke-linecap: round"/>
   </g>
   <g id="line2d_9">
    <path d="M 453.3 151.48 
L 453.3 97.12 
M 444.3 97.12 
L 462.3 97.12 
M 444.3 90.64 
L 462.3 90.64 
M 453.3 90.64 
L 453.3 36.28 
" clip-path="url(#paf79b3a0aa)" style="fill: none; stroke: #7eb8f7; stroke-width: 2; stroke-linecap: round"/>
   </g>
   <g id="line2d_10">
    <path d="M 453.3 36.28 
L 395.7 36.28 
L 338.1 36.28 
" clip-path="url(#paf79b3a0aa)" style="fill: none; stroke: #7eb8f7; stroke-width: 2; stroke-linecap: round"/>
   </g>
   <g id="line2d_11">
    <path d="M 338.1 151.48 
L 199.5 151.48 
L 60.9 151.48 
" clip-path="url(#paf79b3a0aa)" style="fill: none; stroke: #7eb8f7; stroke-width: 2; stroke-linecap: round"/>
   </g>
   <g id="line2d_12">
    <path d="M 60.9 151.48 
L 60.9 151.48 
L 60.9 151.48 
" clip-path="url(#paf79b3a0aa)" style="fill: none; stroke: #7eb8f7; stroke-width: 2; stroke-linecap: round"/>
   </g>
   <g id="line2d_13">
    <path d="M 140.1 63.28 
L 147.3 63.28 
L 145.5 63.28 
" clip-path="url(#paf79b3a0aa)" style="fill: none; stroke: #7eb8f7; stroke-width: 2; stroke-linecap: round"/>
   </g>
   <g id="patch_4">
    <path d="M 145.5 60.58 
L 154.5 63.28 
L 145.5 65.98 
z
" clip-path="url(#paf79b3a0aa)" style="fill: #7eb8f7"/>
   </g>
   <g id="text_1">
    <!-- 200 V -->
    <g style="fill: #e0e6f0" transform="translate(3.146875 93.039375) scale(0.1 -0.1)">
     <defs>
      <path id="DejaVuSans-32" d="M 1228 531 
L 3431 531 
L 3431 0 
L 469 0 
L 469 531 
Q 828 903 1448 1529 
Q 2069 2156 2228 2338 
Q 2531 2678 2651 2914 
Q 2772 3150 2772 3378 
Q 2772 3750 2511 3984 
Q 2250 4219 1831 4219 
Q 1534 4219 1204 4116 
Q 875 4013 500 3803 
L 500 4441 
Q 881 4594 1212 4672 
Q 1544 4750 1819 4750 
Q 2544 4750 2975 4387 
Q 3406 4025 3406 3419 
Q 3406 3131 3298 2873 
Q 3191 2616 2906 2266 
Q 2828 2175 2409 1742 
Q 1991 1309 1228 531 
z
" transform="scale(0.015625)"/>
      <path id="DejaVuSans-30" d="M 2034 4250 
Q 1547 4250 1301 3770 
Q 1056 3291 1056 2328 
Q 1056 1369 1301 889 
Q 1547 409 2034 409 
Q 2525 409 2770 889 
Q 3016 1369 3016 2328 
Q 3016 3291 2770 3770 
Q 2525 4250 2034 4250 
z
M 2034 4750 
Q 2819 4750 3233 4129 
Q 3647 3509 3647 2328 
Q 3647 1150 3233 529 
Q 2819 -91 2034 -91 
Q 1250 -91 836 529 
Q 422 1150 422 2328 
Q 422 3509 836 4129 
Q 1250 4750 2034 4750 
z
" transform="scale(0.015625)"/>
      <path id="DejaVuSans-20" transform="scale(0.015625)"/>
      <path id="DejaVuSans-56" d="M 1831 0 
L 50 4666 
L 709 4666 
L 2188 738 
L 3669 4666 
L 4325 4666 
L 2547 0 
L 1831 0 
z
" transform="scale(0.015625)"/>
     </defs>
     <use xlink:href="#DejaVuSans-32"/>
     <use xlink:href="#DejaVuSans-30" transform="translate(63.623047 0)"/>
     <use xlink:href="#DejaVuSans-30" transform="translate(127.246094 0)"/>
     <use xlink:href="#DejaVuSans-20" transform="translate(190.869141 0)"/>
     <use xlink:href="#DejaVuSans-56" transform="translate(222.65625 0)"/>
    </g>
   </g>
   <g id="text_2">
    <!-- A -->
    <g style="fill: #7eb8f7" transform="translate(142.511563 40.143125) scale(0.14 -0.14)">
     <defs>
      <path id="DejaVuSans-41" d="M 2188 4044 
L 1331 1722 
L 3047 1722 
L 2188 4044 
z
M 1831 4666 
L 2547 4666 
L 4325 0 
L 3669 0 
L 3244 1197 
L 1141 1197 
L 716 0 
L 50 0 
L 1831 4666 
z
" transform="scale(0.015625)"/>
     </defs>
     <use xlink:href="#DejaVuSans-41"/>
    </g>
   </g>
   <g id="text_3">
    <!-- Amp -->
    <g style="fill: #e0e6f0" transform="translate(135.835156 12.600313) scale(0.1 -0.1)">
     <defs>
      <path id="DejaVuSans-6d" d="M 3328 2828 
Q 3544 3216 3844 3400 
Q 4144 3584 4550 3584 
Q 5097 3584 5394 3201 
Q 5691 2819 5691 2113 
L 5691 0 
L 5113 0 
L 5113 2094 
Q 5113 2597 4934 2840 
Q 4756 3084 4391 3084 
Q 3944 3084 3684 2787 
Q 3425 2491 3425 1978 
L 3425 0 
L 2847 0 
L 2847 2094 
Q 2847 2600 2669 2842 
Q 2491 3084 2119 3084 
Q 1678 3084 1418 2786 
Q 1159 2488 1159 1978 
L 1159 0 
L 581 0 
L 581 3500 
L 1159 3500 
L 1159 2956 
Q 1356 3278 1631 3431 
Q 1906 3584 2284 3584 
Q 2666 3584 2933 3390 
Q 3200 3197 3328 2828 
z
" transform="scale(0.015625)"/>
      <path id="DejaVuSans-70" d="M 1159 525 
L 1159 -1331 
L 581 -1331 
L 581 3500 
L 1159 3500 
L 1159 2969 
Q 1341 3281 1617 3432 
Q 1894 3584 2278 3584 
Q 2916 3584 3314 3078 
Q 3713 2572 3713 1747 
Q 3713 922 3314 415 
Q 2916 -91 2278 -91 
Q 1894 -91 1617 61 
Q 1341 213 1159 525 
z
M 3116 1747 
Q 3116 2381 2855 2742 
Q 2594 3103 2138 3103 
Q 1681 3103 1420 2742 
Q 1159 2381 1159 1747 
Q 1159 1113 1420 752 
Q 1681 391 2138 391 
Q 2594 391 2855 752 
Q 3116 1113 3116 1747 
z
" transform="scale(0.015625)"/>
     </defs>
     <use xlink:href="#DejaVuSans-41"/>
     <use xlink:href="#DejaVuSans-6d" transform="translate(68.408203 0)"/>
     <use xlink:href="#DejaVuSans-70" transform="translate(165.820312 0)"/>
    </g>
   </g>
   <g id="text_4">
    <!-- 100 Ω -->
    <g style="fill: #e0e6f0" transform="translate(247.546094 21.600313) scale(0.1 -0.1)">
     <defs>
      <path id="DejaVuSans-31" d="M 794 531 
L 1825 531 
L 1825 4091 
L 703 3866 
L 703 4441 
L 1819 4666 
L 2450 4666 
L 2450 531 
L 3481 531 
L 3481 0 
L 794 0 
L 794 531 
z
" transform="scale(0.015625)"/>
      <path id="DejaVuSans-3a9" d="M 4647 556 
L 4647 0 
L 2772 0 
L 2772 556 
Q 3325 859 3634 1378 
Q 3944 1897 3944 2528 
Q 3944 3278 3531 3731 
Q 3119 4184 2444 4184 
Q 1769 4184 1355 3729 
Q 941 3275 941 2528 
Q 941 1897 1250 1378 
Q 1563 859 2119 556 
L 2119 0 
L 244 0 
L 244 556 
L 1241 556 
Q 747 991 519 1456 
Q 294 1922 294 2497 
Q 294 3491 894 4106 
Q 1491 4722 2444 4722 
Q 3391 4722 3994 4106 
Q 4594 3494 4594 2528 
Q 4594 1922 4372 1459 
Q 4150 997 3647 556 
L 4647 556 
z
" transform="scale(0.015625)"/>
     </defs>
     <use xlink:href="#DejaVuSans-31"/>
     <use xlink:href="#DejaVuSans-30" transform="translate(63.623047 0)"/>
     <use xlink:href="#DejaVuSans-30" transform="translate(127.246094 0)"/>
     <use xlink:href="#DejaVuSans-20" transform="translate(190.869141 0)"/>
     <use xlink:href="#DejaVuSans-3a9" transform="translate(222.65625 0)"/>
    </g>
   </g>
   <g id="text_5">
    <!-- XL = 20 Ω -->
    <g style="fill: #e0e6f0" transform="translate(352.348437 136.239375) scale(0.1 -0.1)">
     <defs>
      <path id="DejaVuSans-58" d="M 403 4666 
L 1081 4666 
L 2241 2931 
L 3406 4666 
L 4084 4666 
L 2584 2425 
L 4184 0 
L 3506 0 
L 2194 1984 
L 872 0 
L 191 0 
L 1856 2491 
L 403 4666 
z
" transform="scale(0.015625)"/>
      <path id="DejaVuSans-4c" d="M 628 4666 
L 1259 4666 
L 1259 531 
L 3531 531 
L 3531 0 
L 628 0 
L 628 4666 
z
" transform="scale(0.015625)"/>
      <path id="DejaVuSans-3d" d="M 678 2906 
L 4684 2906 
L 4684 2381 
L 678 2381 
L 678 2906 
z
M 678 1631 
L 4684 1631 
L 4684 1100 
L 678 1100 
L 678 1631 
z
" transform="scale(0.015625)"/>
     </defs>
     <use xlink:href="#DejaVuSans-58"/>
     <use xlink:href="#DejaVuSans-4c" transform="translate(68.505859 0)"/>
     <use xlink:href="#DejaVuSans-20" transform="translate(124.21875 0)"/>
     <use xlink:href="#DejaVuSans-3d" transform="translate(156.005859 0)"/>
     <use xlink:href="#DejaVuSans-20" transform="translate(239.794922 0)"/>
     <use xlink:href="#DejaVuSans-32" transform="translate(271.582031 0)"/>
     <use xlink:href="#DejaVuSans-30" transform="translate(335.205078 0)"/>
     <use xlink:href="#DejaVuSans-20" transform="translate(398.828125 0)"/>
     <use xlink:href="#DejaVuSans-3a9" transform="translate(430.615234 0)"/>
    </g>
   </g>
   <g id="text_6">
    <!-- XC = 25 Ω -->
    <g style="fill: #e0e6f0" transform="translate(388.005469 57.039375) scale(0.1 -0.1)">
     <defs>
      <path id="DejaVuSans-43" d="M 4122 4306 
L 4122 3641 
Q 3803 3938 3442 4084 
Q 3081 4231 2675 4231 
Q 1875 4231 1450 3742 
Q 1025 3253 1025 2328 
Q 1025 1406 1450 917 
Q 1875 428 2675 428 
Q 3081 428 3442 575 
Q 3803 722 4122 1019 
L 4122 359 
Q 3791 134 3420 21 
Q 3050 -91 2638 -91 
Q 1578 -91 968 557 
Q 359 1206 359 2328 
Q 359 3453 968 4101 
Q 1578 4750 2638 4750 
Q 3056 4750 3426 4639 
Q 3797 4528 4122 4306 
z
" transform="scale(0.015625)"/>
      <path id="DejaVuSans-35" d="M 691 4666 
L 3169 4666 
L 3169 4134 
L 1269 4134 
L 1269 2991 
Q 1406 3038 1543 3061 
Q 1681 3084 1819 3084 
Q 2600 3084 3056 2656 
Q 3513 2228 3513 1497 
Q 3513 744 3044 326 
Q 2575 -91 1722 -91 
Q 1428 -91 1123 -41 
Q 819 9 494 109 
L 494 744 
Q 775 591 1075 516 
Q 1375 441 1709 441 
Q 2250 441 2565 725 
Q 2881 1009 2881 1497 
Q 2881 1984 2565 2268 
Q 2250 2553 1709 2553 
Q 1456 2553 1204 2497 
Q 953 2441 691 2322 
L 691 4666 
z
" transform="scale(0.015625)"/>
     </defs>
     <use xlink:href="#DejaVuSans-58"/>
     <use xlink:href="#DejaVuSans-43" transform="translate(61.255859 0)"/>
     <use xlink:href="#DejaVuSans-20" transform="translate(131.080078 0)"/>
     <use xlink:href="#DejaVuSans-3d" transform="translate(162.867188 0)"/>
     <use xlink:href="#DejaVuSans-20" transform="translate(246.65625 0)"/>
     <use xlink:href="#DejaVuSans-32" transform="translate(278.443359 0)"/>
     <use xlink:href="#DejaVuSans-35" transform="translate(342.066406 0)"/>
     <use xlink:href="#DejaVuSans-20" transform="translate(405.689453 0)"/>
     <use xlink:href="#DejaVuSans-3a9" transform="translate(437.476562 0)"/>
    </g>
   </g>
   <g id="patch_5">
    <path d="M 338.1 38.98 
C 338.816048 38.98 339.502866 38.695511 340.009188 38.189188 
C 340.515511 37.682866 340.8 36.996048 340.8 36.28 
C 340.8 35.563952 340.515511 34.877134 340.009188 34.370812 
C 339.502866 33.864489 338.816048 33.58 338.1 33.58 
C 337.383952 33.58 336.697134 33.864489 336.190812 34.370812 
C 335.684489 34.877134 335.4 35.563952 335.4 36.28 
C 335.4 36.996048 335.684489 37.682866 336.190812 38.189188 
C 336.697134 38.695511 337.383952 38.98 338.1 38.98 
z
" clip-path="url(#paf79b3a0aa)" style="fill: #7eb8f7; stroke: #7eb8f7; stroke-width: 2; stroke-linejoin: miter"/>
   </g>
   <g id="patch_6">
    <path d="M 338.1 154.18 
C 338.816048 154.18 339.502866 153.895511 340.009188 153.389188 
C 340.515511 152.882866 340.8 152.196048 340.8 151.48 
C 340.8 150.763952 340.515511 150.077134 340.009188 149.570812 
C 339.502866 149.064489 338.816048 148.78 338.1 148.78 
C 337.383952 148.78 336.697134 149.064489 336.190812 149.570812 
C 335.684489 150.077134 335.4 150.763952 335.4 151.48 
C 335.4 152.196048 335.684489 152.882866 336.190812 153.389188 
C 336.697134 153.895511 337.383952 154.18 338.1 154.18 
z
" clip-path="url(#paf79b3a0aa)" style="fill: #7eb8f7; stroke: #7eb8f7; stroke-width: 2; stroke-linejoin: miter"/>
   </g>
  </g>
 </g>
 <defs>
  <clipPath id="paf79b3a0aa">
   <rect x="0" y="0" width="100%" height="158.86"/>
  </clipPath>
 </defs>
</svg>
