<svg style="background:#0f1117;" xmlns:xlink="http://www.w3.org/1999/xlink" width="100%" height="auto" viewBox="0 0 388.929 182.56" xmlns="http://www.w3.org/2000/svg" version="1.1">
 
 <defs>
  <style type="text/css">*{stroke-linejoin: round; stroke-linecap: butt}</style>
 </defs>
 <g id="figure_1">
  <g id="axes_1">
   <g id="patch_2">
    <path d="M 22.68 109.28 
C 27.453656 109.28 32.032438 107.383406 35.407922 104.007922 
C 38.783406 100.632438 40.68 96.053656 40.68 91.28 
C 40.68 86.506344 38.783406 81.927562 35.407922 78.552078 
C 32.032438 75.176594 27.453656 73.28 22.68 73.28 
C 17.906344 73.28 13.327562 75.176594 9.952078 78.552078 
C 6.576594 81.927562 4.68 86.506344 4.68 91.28 
C 4.68 96.053656 6.576594 100.632438 9.952078 104.007922 
C 13.327562 107.383406 17.906344 109.28 22.68 109.28 
L 22.68 109.28 
z
" clip-path="url(#p082672cc08)" style="fill: none; stroke: #7eb8f7; stroke-width: 2; stroke-linejoin: miter"/>
   </g>
   <g id="line2d_1">
    <path d="M 22.68 163.28 
L 22.68 109.28 
L 22.68 109.28 
M 22.68 73.28 
L 22.68 73.28 
L 22.68 19.28 
" clip-path="url(#p082672cc08)" style="fill: none; stroke: #7eb8f7; stroke-width: 2; stroke-linecap: round"/>
   </g>
   <g id="line2d_2">
    <path d="M 31.68 91.28 
L 30.93 89.416503 
L 30.18 87.68 
L 29.43 86.188831 
L 28.68 85.044617 
L 27.93 84.325334 
L 27.18 84.08 
L 26.43 84.325334 
L 25.68 85.044617 
L 24.93 86.188831 
L 24.18 87.68 
L 23.43 89.416503 
L 22.68 91.28 
L 21.93 93.143497 
L 21.18 94.88 
L 20.43 96.371169 
L 19.68 97.515383 
L 18.93 98.234666 
L 18.18 98.48 
L 17.43 98.234666 
L 16.68 97.515383 
L 15.93 96.371169 
L 15.18 94.88 
L 14.43 93.143497 
L 13.68 91.28 
" clip-path="url(#p082672cc08)" style="fill: none; stroke: #7eb8f7; stroke-width: 2; stroke-linecap: round"/>
   </g>
   <g id="line2d_3">
    <path d="M 22.68 19.28 
L 49.68 19.28 
L 76.68 19.28 
" clip-path="url(#p082672cc08)" style="fill: none; stroke: #7eb8f7; stroke-width: 2; stroke-linecap: round"/>
   </g>
   <g id="line2d_4">
    <path d="M 76.68 19.28 
L 76.68 73.28 
L 85.68 76.28 
L 67.68 82.28 
L 85.68 88.28 
L 67.68 94.28 
L 85.68 100.28 
L 67.68 106.28 
L 76.68 109.28 
L 76.68 163.28 
" clip-path="url(#p082672cc08)" style="fill: none; stroke: #7eb8f7; stroke-width: 2; stroke-linecap: round"/>
   </g>
   <g id="line2d_5">
    <path d="M 76.68 19.28 
L 148.68 19.28 
L 220.68 19.28 
" clip-path="url(#p082672cc08)" style="fill: none; stroke: #7eb8f7; stroke-width: 2; stroke-linecap: round"/>
   </g>
   <g id="line2d_6">
    <path d="M 220.68 19.28 
L 220.68 73.28 
L 223.780546 73.458789 
L 226.897731 74.002061 
L 229.746048 74.89503 
L 230.986214 75.459174 
L 232.064614 76.090881 
L 232.956411 76.78 
L 233.641067 77.515058 
L 234.102814 78.283521 
L 234.331017 79.072091 
L 234.320422 79.867001 
L 234.071271 80.654342 
L 233.589303 81.420378 
L 232.885618 82.151864 
L 231.976423 82.83635 
L 230.882656 83.46247 
L 229.629507 84.0202 
L 228.245838 84.501093 
L 225.216676 85.207576 
L 222.072616 85.552186 
L 219.101629 85.538333 
L 216.575832 85.202259 
L 214.726567 84.609719 
L 214.111455 84.244458 
L 213.723212 83.849959 
L 213.570779 83.439705 
L 213.657667 83.02754 
L 213.981874 82.627355 
L 214.535934 82.252763 
L 215.307086 81.916788 
L 217.425038 81.408059 
L 220.141742 81.182736 
L 223.20837 81.296432 
L 226.344045 81.773706 
L 229.261564 82.605818 
L 230.553536 83.143235 
L 231.693707 83.751526 
L 232.655817 84.421077 
L 233.417709 85.140866 
L 233.961836 85.898713 
L 234.275666 86.681561 
L 234.351972 87.475778 
L 234.188996 88.267469 
L 233.790492 89.042798 
L 233.165638 89.788307 
L 232.328823 90.491222 
L 231.299321 91.139752 
L 230.100842 91.723359 
L 228.760987 92.232998 
L 225.783125 93.002885 
L 222.638483 93.413871 
L 219.615085 93.463287 
L 216.989848 93.181582 
L 215.003224 92.629529 
L 214.309038 92.278088 
L 213.83717 91.892667 
L 213.598487 91.486541 
L 213.598487 91.073459 
L 213.83717 90.667333 
L 214.309038 90.281912 
L 215.003224 89.930471 
L 215.90374 89.625499 
L 218.236534 89.199316 
L 221.093753 89.07737 
L 224.2137 89.305804 
L 227.310614 89.898671 
L 230.100842 90.836641 
L 231.299321 91.420248 
L 232.328823 92.068778 
L 233.165638 92.771693 
L 233.790492 93.517202 
L 234.188996 94.292531 
L 234.351972 95.084222 
L 234.275666 95.878439 
L 233.961836 96.661287 
L 233.417709 97.419134 
L 232.655817 98.138923 
L 231.693707 98.808474 
L 230.553536 99.416765 
L 229.261564 99.954182 
L 226.344045 100.786294 
L 223.20837 101.263568 
L 220.141742 101.377264 
L 217.425038 101.151941 
L 215.307086 100.643212 
L 214.535934 100.307237 
L 213.981874 99.932645 
L 213.657667 99.53246 
L 213.570779 99.120295 
L 213.723212 98.710041 
L 214.111455 98.315542 
L 214.726567 97.950281 
L 215.554381 97.627067 
L 217.767395 97.152903 
L 220.547805 96.971453 
L 223.640947 97.13431 
L 226.763515 97.66153 
L 229.629507 98.5398 
L 230.882656 99.09753 
L 231.976423 99.72365 
L 232.885618 100.408136 
L 233.589303 101.139622 
L 234.071271 101.905658 
L 234.320422 102.692999 
L 234.331017 103.487909 
L 234.102814 104.276479 
L 233.641067 105.044942 
L 232.956411 105.78 
L 232.064614 106.469119 
L 230.986214 107.100826 
L 229.746048 107.66497 
L 228.372678 108.152955 
L 225.355179 108.874992 
L 222.210097 109.235781 
L 220.68 109.28 
L 220.68 163.28 
L 220.68 163.28 
" clip-path="url(#p082672cc08)" style="fill: none; stroke: #7eb8f7; stroke-width: 2; stroke-linecap: round"/>
   </g>
   <g id="line2d_7">
    <path d="M 220.68 163.28 
L 148.68 163.28 
L 76.68 163.28 
" clip-path="url(#p082672cc08)" style="fill: none; stroke: #7eb8f7; stroke-width: 2; stroke-linecap: round"/>
   </g>
   <g id="line2d_8">
    <path d="M 76.68 19.28 
L 220.68 19.28 
L 364.68 19.28 
" clip-path="url(#p082672cc08)" style="fill: none; stroke: #7eb8f7; stroke-width: 2; stroke-linecap: round"/>
   </g>
   <g id="line2d_9">
    <path d="M 364.68 19.28 
L 364.68 88.04 
M 373.68 88.04 
L 355.68 88.04 
M 373.68 94.52 
L 355.68 94.52 
M 364.68 94.52 
L 364.68 163.28 
" clip-path="url(#p082672cc08)" style="fill: none; stroke: #7eb8f7; stroke-width: 2; stroke-linecap: round"/>
   </g>
   <g id="line2d_10">
    <path d="M 364.68 163.28 
L 220.68 163.28 
L 76.68 163.28 
" clip-path="url(#p082672cc08)" style="fill: none; stroke: #7eb8f7; stroke-width: 2; stroke-linecap: round"/>
   </g>
   <g id="line2d_11">
    <path d="M 76.68 163.28 
L 49.68 163.28 
L 22.68 163.28 
" clip-path="url(#p082672cc08)" style="fill: none; stroke: #7eb8f7; stroke-width: 2; stroke-linecap: round"/>
   </g>
   <g id="line2d_12">
    <path d="M 22.68 163.28 
L 22.68 163.28 
L 22.68 163.28 
" clip-path="url(#p082672cc08)" style="fill: none; stroke: #7eb8f7; stroke-width: 2; stroke-linecap: round"/>
   </g>
   <g id="text_1">
    <!-- V -->
    <g style="fill: #7eb8f7" transform="translate(18.917656 175.238281) scale(0.11 -0.11)">
     <defs>
      <path id="DejaVuSans-56" d="M 1831 0 
L 50 4666 
L 709 4666 
L 2188 738 
L 3669 4666 
L 4325 4666 
L 2547 0 
L 1831 0 
z
" transform="scale(0.015625)"/>
     </defs>
     <use xlink:href="#DejaVuSans-56"/>
    </g>
   </g>
   <g id="text_2">
    <!-- R = 50 Ω -->
    <g style="fill: #7eb8f7" transform="translate(51.803672 13.392344) scale(0.11 -0.11)">
     <defs>
      <path id="DejaVuSans-52" d="M 2841 2188 
Q 3044 2119 3236 1894 
Q 3428 1669 3622 1275 
L 4263 0 
L 3584 0 
L 2988 1197 
Q 2756 1666 2539 1819 
Q 2322 1972 1947 1972 
L 1259 1972 
L 1259 0 
L 628 0 
L 628 4666 
L 2053 4666 
Q 2853 4666 3247 4331 
Q 3641 3997 3641 3322 
Q 3641 2881 3436 2590 
Q 3231 2300 2841 2188 
z
M 1259 4147 
L 1259 2491 
L 2053 2491 
Q 2509 2491 2742 2702 
Q 2975 2913 2975 3322 
Q 2975 3731 2742 3939 
Q 2509 4147 2053 4147 
L 1259 4147 
z
" transform="scale(0.015625)"/>
      <path id="DejaVuSans-20" transform="scale(0.015625)"/>
      <path id="DejaVuSans-3d" d="M 678 2906 
L 4684 2906 
L 4684 2381 
L 678 2381 
L 678 2906 
z
M 678 1631 
L 4684 1631 
L 4684 1100 
L 678 1100 
L 678 1631 
z
" transform="scale(0.015625)"/>
      <path id="DejaVuSans-35" d="M 691 4666 
L 3169 4666 
L 3169 4134 
L 1269 4134 
L 1269 2991 
Q 1406 3038 1543 3061 
Q 1681 3084 1819 3084 
Q 2600 3084 3056 2656 
Q 3513 2228 3513 1497 
Q 3513 744 3044 326 
Q 2575 -91 1722 -91 
Q 1428 -91 1123 -41 
Q 819 9 494 109 
L 494 744 
Q 775 591 1075 516 
Q 1375 441 1709 441 
Q 2250 441 2565 725 
Q 2881 1009 2881 1497 
Q 2881 1984 2565 2268 
Q 2250 2553 1709 2553 
Q 1456 2553 1204 2497 
Q 953 2441 691 2322 
L 691 4666 
z
" transform="scale(0.015625)"/>
      <path id="DejaVuSans-30" d="M 2034 4250 
Q 1547 4250 1301 3770 
Q 1056 3291 1056 2328 
Q 1056 1369 1301 889 
Q 1547 409 2034 409 
Q 2525 409 2770 889 
Q 3016 1369 3016 2328 
Q 3016 3291 2770 3770 
Q 2525 4250 2034 4250 
z
M 2034 4750 
Q 2819 4750 3233 4129 
Q 3647 3509 3647 2328 
Q 3647 1150 3233 529 
Q 2819 -91 2034 -91 
Q 1250 -91 836 529 
Q 422 1150 422 2328 
Q 422 3509 836 4129 
Q 1250 4750 2034 4750 
z
" transform="scale(0.015625)"/>
      <path id="DejaVuSans-3a9" d="M 4647 556 
L 4647 0 
L 2772 0 
L 2772 556 
Q 3325 859 3634 1378 
Q 3944 1897 3944 2528 
Q 3944 3278 3531 3731 
Q 3119 4184 2444 4184 
Q 1769 4184 1355 3729 
Q 941 3275 941 2528 
Q 941 1897 1250 1378 
Q 1563 859 2119 556 
L 2119 0 
L 244 0 
L 244 556 
L 1241 556 
Q 747 991 519 1456 
Q 294 1922 294 2497 
Q 294 3491 894 4106 
Q 1491 4722 2444 4722 
Q 3391 4722 3994 4106 
Q 4594 3494 4594 2528 
Q 4594 1922 4372 1459 
Q 4150 997 3647 556 
L 4647 556 
z
" transform="scale(0.015625)"/>
     </defs>
     <use xlink:href="#DejaVuSans-52"/>
     <use xlink:href="#DejaVuSans-20" transform="translate(69.482422 0)"/>
     <use xlink:href="#DejaVuSans-3d" transform="translate(101.269531 0)"/>
     <use xlink:href="#DejaVuSans-20" transform="translate(185.058594 0)"/>
     <use xlink:href="#DejaVuSans-35" transform="translate(216.845703 0)"/>
     <use xlink:href="#DejaVuSans-30" transform="translate(280.46875 0)"/>
     <use xlink:href="#DejaVuSans-20" transform="translate(344.091797 0)"/>
     <use xlink:href="#DejaVuSans-3a9" transform="translate(375.878906 0)"/>
    </g>
   </g>
   <g id="text_3">
    <!-- L = 1 H -->
    <g style="fill: #7eb8f7" transform="translate(203.408563 13.392344) scale(0.11 -0.11)">
     <defs>
      <path id="DejaVuSans-4c" d="M 628 4666 
L 1259 4666 
L 1259 531 
L 3531 531 
L 3531 0 
L 628 0 
L 628 4666 
z
" transform="scale(0.015625)"/>
      <path id="DejaVuSans-31" d="M 794 531 
L 1825 531 
L 1825 4091 
L 703 3866 
L 703 4441 
L 1819 4666 
L 2450 4666 
L 2450 531 
L 3481 531 
L 3481 0 
L 794 0 
L 794 531 
z
" transform="scale(0.015625)"/>
      <path id="DejaVuSans-48" d="M 628 4666 
L 1259 4666 
L 1259 2753 
L 3553 2753 
L 3553 4666 
L 4184 4666 
L 4184 0 
L 3553 0 
L 3553 2222 
L 1259 2222 
L 1259 0 
L 628 0 
L 628 4666 
z
" transform="scale(0.015625)"/>
     </defs>
     <use xlink:href="#DejaVuSans-4c"/>
     <use xlink:href="#DejaVuSans-20" transform="translate(55.712891 0)"/>
     <use xlink:href="#DejaVuSans-3d" transform="translate(87.5 0)"/>
     <use xlink:href="#DejaVuSans-20" transform="translate(171.289062 0)"/>
     <use xlink:href="#DejaVuSans-31" transform="translate(203.076172 0)"/>
     <use xlink:href="#DejaVuSans-20" transform="translate(266.699219 0)"/>
     <use xlink:href="#DejaVuSans-48" transform="translate(298.486328 0)"/>
    </g>
   </g>
   <g id="text_4">
    <!-- C = 4 μF -->
    <g style="fill: #7eb8f7" transform="translate(340.824609 13.392344) scale(0.11 -0.11)">
     <defs>
      <path id="DejaVuSans-43" d="M 4122 4306 
L 4122 3641 
Q 3803 3938 3442 4084 
Q 3081 4231 2675 4231 
Q 1875 4231 1450 3742 
Q 1025 3253 1025 2328 
Q 1025 1406 1450 917 
Q 1875 428 2675 428 
Q 3081 428 3442 575 
Q 3803 722 4122 1019 
L 4122 359 
Q 3791 134 3420 21 
Q 3050 -91 2638 -91 
Q 1578 -91 968 557 
Q 359 1206 359 2328 
Q 359 3453 968 4101 
Q 1578 4750 2638 4750 
Q 3056 4750 3426 4639 
Q 3797 4528 4122 4306 
z
" transform="scale(0.015625)"/>
      <path id="DejaVuSans-34" d="M 2419 4116 
L 825 1625 
L 2419 1625 
L 2419 4116 
z
M 2253 4666 
L 3047 4666 
L 3047 1625 
L 3713 1625 
L 3713 1100 
L 3047 1100 
L 3047 0 
L 2419 0 
L 2419 1100 
L 313 1100 
L 313 1709 
L 2253 4666 
z
" transform="scale(0.015625)"/>
      <path id="DejaVuSans-3bc" d="M 544 -1331 
L 544 3500 
L 1119 3500 
L 1119 1325 
Q 1119 872 1334 640 
Q 1550 409 1972 409 
Q 2434 409 2667 671 
Q 2900 934 2900 1459 
L 2900 3500 
L 3475 3500 
L 3475 806 
Q 3475 619 3529 530 
Q 3584 441 3700 441 
Q 3728 441 3778 458 
Q 3828 475 3916 513 
L 3916 50 
Q 3788 -22 3673 -56 
Q 3559 -91 3450 -91 
Q 3234 -91 3106 31 
Q 2978 153 2931 403 
Q 2775 156 2548 32 
Q 2322 -91 2016 -91 
Q 1697 -91 1473 31 
Q 1250 153 1119 397 
L 1119 -1331 
L 544 -1331 
z
" transform="scale(0.015625)"/>
      <path id="DejaVuSans-46" d="M 628 4666 
L 3309 4666 
L 3309 4134 
L 1259 4134 
L 1259 2759 
L 3109 2759 
L 3109 2228 
L 1259 2228 
L 1259 0 
L 628 0 
L 628 4666 
z
" transform="scale(0.015625)"/>
     </defs>
     <use xlink:href="#DejaVuSans-43"/>
     <use xlink:href="#DejaVuSans-20" transform="translate(69.824219 0)"/>
     <use xlink:href="#DejaVuSans-3d" transform="translate(101.611328 0)"/>
     <use xlink:href="#DejaVuSans-20" transform="translate(185.400391 0)"/>
     <use xlink:href="#DejaVuSans-34" transform="translate(217.1875 0)"/>
     <use xlink:href="#DejaVuSans-20" transform="translate(280.810547 0)"/>
     <use xlink:href="#DejaVuSans-3bc" transform="translate(312.597656 0)"/>
     <use xlink:href="#DejaVuSans-46" transform="translate(376.220703 0)"/>
    </g>
   </g>
   <g id="patch_3">
    <path d="M 76.68 21.98 
C 77.396048 21.98 78.082866 21.695511 78.589188 21.189188 
C 79.095511 20.682866 79.38 19.996048 79.38 19.28 
C 79.38 18.563952 79.095511 17.877134 78.589188 17.370812 
C 78.082866 16.864489 77.396048 16.58 76.68 16.58 
C 75.963952 16.58 75.277134 16.864489 74.770812 17.370812 
C 74.264489 17.877134 73.98 18.563952 73.98 19.28 
C 73.98 19.996048 74.264489 20.682866 74.770812 21.189188 
C 75.277134 21.695511 75.963952 21.98 76.68 21.98 
z
" clip-path="url(#p082672cc08)" style="fill: #7eb8f7; stroke: #7eb8f7; stroke-width: 2; stroke-linejoin: miter"/>
   </g>
   <g id="patch_4">
    <path d="M 76.68 165.98 
C 77.396048 165.98 78.082866 165.695511 78.589188 165.189188 
C 79.095511 164.682866 79.38 163.996048 79.38 163.28 
C 79.38 162.563952 79.095511 161.877134 78.589188 161.370812 
C 78.082866 160.864489 77.396048 160.58 76.68 160.58 
C 75.963952 160.58 75.277134 160.864489 74.770812 161.370812 
C 74.264489 161.877134 73.98 162.563952 73.98 163.28 
C 73.98 163.996048 74.264489 164.682866 74.770812 165.189188 
C 75.277134 165.695511 75.963952 165.98 76.68 165.98 
z
" clip-path="url(#p082672cc08)" style="fill: #7eb8f7; stroke: #7eb8f7; stroke-width: 2; stroke-linejoin: miter"/>
   </g>
  </g>
 </g>
 <defs>
  <clipPath id="p082672cc08">
   <rect x="0" y="-0" width="100%" height="182.56"/>
  </clipPath>
 </defs>
</svg>
