<svg style="background:#0f1117;" xmlns:xlink="http://www.w3.org/1999/xlink" width="100%" height="auto" viewBox="0 0 271.282109 193.56" xmlns="http://www.w3.org/2000/svg" version="1.1">
 
 <defs>
  <style type="text/css">*{stroke-linejoin: round; stroke-linecap: butt}</style>
 </defs>
 <g id="figure_1">
  <g id="axes_1">
   <g id="patch_2">
    <path d="M 22.68 109.28 
C 27.453656 109.28 32.032438 107.383406 35.407922 104.007922 
C 38.783406 100.632438 40.68 96.053656 40.68 91.28 
C 40.68 86.506344 38.783406 81.927562 35.407922 78.552078 
C 32.032438 75.176594 27.453656 73.28 22.68 73.28 
C 17.906344 73.28 13.327562 75.176594 9.952078 78.552078 
C 6.576594 81.927562 4.68 86.506344 4.68 91.28 
C 4.68 96.053656 6.576594 100.632438 9.952078 104.007922 
C 13.327562 107.383406 17.906344 109.28 22.68 109.28 
L 22.68 109.28 
z
" clip-path="url(#pee5fb9d014)" style="fill: none; stroke: #7eb8f7; stroke-width: 2; stroke-linejoin: miter"/>
   </g>
   <g id="line2d_1">
    <path d="M 22.68 163.28 
L 22.68 109.28 
L 22.68 109.28 
M 22.68 73.28 
L 22.68 73.28 
L 22.68 19.28 
" clip-path="url(#pee5fb9d014)" style="fill: none; stroke: #7eb8f7; stroke-width: 2; stroke-linecap: round"/>
   </g>
   <g id="line2d_2">
    <path d="M 31.68 91.28 
L 30.93 89.416503 
L 30.18 87.68 
L 29.43 86.188831 
L 28.68 85.044617 
L 27.93 84.325334 
L 27.18 84.08 
L 26.43 84.325334 
L 25.68 85.044617 
L 24.93 86.188831 
L 24.18 87.68 
L 23.43 89.416503 
L 22.68 91.28 
L 21.93 93.143497 
L 21.18 94.88 
L 20.43 96.371169 
L 19.68 97.515383 
L 18.93 98.234666 
L 18.18 98.48 
L 17.43 98.234666 
L 16.68 97.515383 
L 15.93 96.371169 
L 15.18 94.88 
L 14.43 93.143497 
L 13.68 91.28 
" clip-path="url(#pee5fb9d014)" style="fill: none; stroke: #7eb8f7; stroke-width: 2; stroke-linecap: round"/>
   </g>
   <g id="line2d_3">
    <path d="M 22.68 19.28 
L 58.68 19.28 
L 94.68 19.28 
" clip-path="url(#pee5fb9d014)" style="fill: none; stroke: #7eb8f7; stroke-width: 2; stroke-linecap: round"/>
   </g>
   <g id="line2d_4">
    <path d="M 94.68 19.28 
L 94.68 73.28 
L 103.68 76.28 
L 85.68 82.28 
L 103.68 88.28 
L 85.68 94.28 
L 103.68 100.28 
L 85.68 106.28 
L 94.68 109.28 
L 94.68 163.28 
" clip-path="url(#pee5fb9d014)" style="fill: none; stroke: #7eb8f7; stroke-width: 2; stroke-linecap: round"/>
   </g>
   <g id="line2d_5">
    <path d="M 94.68 19.28 
L 166.68 19.28 
L 238.68 19.28 
" clip-path="url(#pee5fb9d014)" style="fill: none; stroke: #7eb8f7; stroke-width: 2; stroke-linecap: round"/>
   </g>
   <g id="line2d_6">
    <path d="M 238.68 19.28 
L 238.68 88.04 
M 247.68 88.04 
L 229.68 88.04 
M 247.68 94.52 
L 229.68 94.52 
M 238.68 94.52 
L 238.68 163.28 
" clip-path="url(#pee5fb9d014)" style="fill: none; stroke: #7eb8f7; stroke-width: 2; stroke-linecap: round"/>
   </g>
   <g id="line2d_7">
    <path d="M 238.68 163.28 
L 166.68 163.28 
L 94.68 163.28 
" clip-path="url(#pee5fb9d014)" style="fill: none; stroke: #7eb8f7; stroke-width: 2; stroke-linecap: round"/>
   </g>
   <g id="line2d_8">
    <path d="M 94.68 163.28 
L 58.68 163.28 
L 22.68 163.28 
" clip-path="url(#pee5fb9d014)" style="fill: none; stroke: #7eb8f7; stroke-width: 2; stroke-linecap: round"/>
   </g>
   <g id="line2d_9">
    <path d="M 22.68 163.28 
L 22.68 163.28 
L 22.68 163.28 
" clip-path="url(#pee5fb9d014)" style="fill: none; stroke: #7eb8f7; stroke-width: 2; stroke-linecap: round"/>
   </g>
   <g id="text_1">
    <!-- 220 V -->
    <g style="fill: #7eb8f7" transform="translate(6.671562 175.238281) scale(0.11 -0.11)">
     <defs>
      <path id="DejaVuSans-32" d="M 1228 531 
L 3431 531 
L 3431 0 
L 469 0 
L 469 531 
Q 828 903 1448 1529 
Q 2069 2156 2228 2338 
Q 2531 2678 2651 2914 
Q 2772 3150 2772 3378 
Q 2772 3750 2511 3984 
Q 2250 4219 1831 4219 
Q 1534 4219 1204 4116 
Q 875 4013 500 3803 
L 500 4441 
Q 881 4594 1212 4672 
Q 1544 4750 1819 4750 
Q 2544 4750 2975 4387 
Q 3406 4025 3406 3419 
Q 3406 3131 3298 2873 
Q 3191 2616 2906 2266 
Q 2828 2175 2409 1742 
Q 1991 1309 1228 531 
z
" transform="scale(0.015625)"/>
      <path id="DejaVuSans-30" d="M 2034 4250 
Q 1547 4250 1301 3770 
Q 1056 3291 1056 2328 
Q 1056 1369 1301 889 
Q 1547 409 2034 409 
Q 2525 409 2770 889 
Q 3016 1369 3016 2328 
Q 3016 3291 2770 3770 
Q 2525 4250 2034 4250 
z
M 2034 4750 
Q 2819 4750 3233 4129 
Q 3647 3509 3647 2328 
Q 3647 1150 3233 529 
Q 2819 -91 2034 -91 
Q 1250 -91 836 529 
Q 422 1150 422 2328 
Q 422 3509 836 4129 
Q 1250 4750 2034 4750 
z
" transform="scale(0.015625)"/>
      <path id="DejaVuSans-20" transform="scale(0.015625)"/>
      <path id="DejaVuSans-56" d="M 1831 0 
L 50 4666 
L 709 4666 
L 2188 738 
L 3669 4666 
L 4325 4666 
L 2547 0 
L 1831 0 
z
" transform="scale(0.015625)"/>
     </defs>
     <use xlink:href="#DejaVuSans-32"/>
     <use xlink:href="#DejaVuSans-32" transform="translate(63.623047 0)"/>
     <use xlink:href="#DejaVuSans-30" transform="translate(127.246094 0)"/>
     <use xlink:href="#DejaVuSans-20" transform="translate(190.869141 0)"/>
     <use xlink:href="#DejaVuSans-56" transform="translate(222.65625 0)"/>
    </g>
    <!-- 60 Hz -->
    <g style="fill: #7eb8f7" transform="translate(6.910469 185.884219) scale(0.11 -0.11)">
     <defs>
      <path id="DejaVuSans-36" d="M 2113 2584 
Q 1688 2584 1439 2293 
Q 1191 2003 1191 1497 
Q 1191 994 1439 701 
Q 1688 409 2113 409 
Q 2538 409 2786 701 
Q 3034 994 3034 1497 
Q 3034 2003 2786 2293 
Q 2538 2584 2113 2584 
z
M 3366 4563 
L 3366 3988 
Q 3128 4100 2886 4159 
Q 2644 4219 2406 4219 
Q 1781 4219 1451 3797 
Q 1122 3375 1075 2522 
Q 1259 2794 1537 2939 
Q 1816 3084 2150 3084 
Q 2853 3084 3261 2657 
Q 3669 2231 3669 1497 
Q 3669 778 3244 343 
Q 2819 -91 2113 -91 
Q 1303 -91 875 529 
Q 447 1150 447 2328 
Q 447 3434 972 4092 
Q 1497 4750 2381 4750 
Q 2619 4750 2861 4703 
Q 3103 4656 3366 4563 
z
" transform="scale(0.015625)"/>
      <path id="DejaVuSans-48" d="M 628 4666 
L 1259 4666 
L 1259 2753 
L 3553 2753 
L 3553 4666 
L 4184 4666 
L 4184 0 
L 3553 0 
L 3553 2222 
L 1259 2222 
L 1259 0 
L 628 0 
L 628 4666 
z
" transform="scale(0.015625)"/>
      <path id="DejaVuSans-7a" d="M 353 3500 
L 3084 3500 
L 3084 2975 
L 922 459 
L 3084 459 
L 3084 0 
L 275 0 
L 275 525 
L 2438 3041 
L 353 3041 
L 353 3500 
z
" transform="scale(0.015625)"/>
     </defs>
     <use xlink:href="#DejaVuSans-36"/>
     <use xlink:href="#DejaVuSans-30" transform="translate(63.623047 0)"/>
     <use xlink:href="#DejaVuSans-20" transform="translate(127.246094 0)"/>
     <use xlink:href="#DejaVuSans-48" transform="translate(159.033203 0)"/>
     <use xlink:href="#DejaVuSans-7a" transform="translate(234.228516 0)"/>
    </g>
   </g>
   <g id="text_2">
    <!-- R = 100 Ω -->
    <g style="fill: #7eb8f7" transform="translate(66.304297 13.392344) scale(0.11 -0.11)">
     <defs>
      <path id="DejaVuSans-52" d="M 2841 2188 
Q 3044 2119 3236 1894 
Q 3428 1669 3622 1275 
L 4263 0 
L 3584 0 
L 2988 1197 
Q 2756 1666 2539 1819 
Q 2322 1972 1947 1972 
L 1259 1972 
L 1259 0 
L 628 0 
L 628 4666 
L 2053 4666 
Q 2853 4666 3247 4331 
Q 3641 3997 3641 3322 
Q 3641 2881 3436 2590 
Q 3231 2300 2841 2188 
z
M 1259 4147 
L 1259 2491 
L 2053 2491 
Q 2509 2491 2742 2702 
Q 2975 2913 2975 3322 
Q 2975 3731 2742 3939 
Q 2509 4147 2053 4147 
L 1259 4147 
z
" transform="scale(0.015625)"/>
      <path id="DejaVuSans-3d" d="M 678 2906 
L 4684 2906 
L 4684 2381 
L 678 2381 
L 678 2906 
z
M 678 1631 
L 4684 1631 
L 4684 1100 
L 678 1100 
L 678 1631 
z
" transform="scale(0.015625)"/>
      <path id="DejaVuSans-31" d="M 794 531 
L 1825 531 
L 1825 4091 
L 703 3866 
L 703 4441 
L 1819 4666 
L 2450 4666 
L 2450 531 
L 3481 531 
L 3481 0 
L 794 0 
L 794 531 
z
" transform="scale(0.015625)"/>
      <path id="DejaVuSans-3a9" d="M 4647 556 
L 4647 0 
L 2772 0 
L 2772 556 
Q 3325 859 3634 1378 
Q 3944 1897 3944 2528 
Q 3944 3278 3531 3731 
Q 3119 4184 2444 4184 
Q 1769 4184 1355 3729 
Q 941 3275 941 2528 
Q 941 1897 1250 1378 
Q 1563 859 2119 556 
L 2119 0 
L 244 0 
L 244 556 
L 1241 556 
Q 747 991 519 1456 
Q 294 1922 294 2497 
Q 294 3491 894 4106 
Q 1491 4722 2444 4722 
Q 3391 4722 3994 4106 
Q 4594 3494 4594 2528 
Q 4594 1922 4372 1459 
Q 4150 997 3647 556 
L 4647 556 
z
" transform="scale(0.015625)"/>
     </defs>
     <use xlink:href="#DejaVuSans-52"/>
     <use xlink:href="#DejaVuSans-20" transform="translate(69.482422 0)"/>
     <use xlink:href="#DejaVuSans-3d" transform="translate(101.269531 0)"/>
     <use xlink:href="#DejaVuSans-20" transform="translate(185.058594 0)"/>
     <use xlink:href="#DejaVuSans-31" transform="translate(216.845703 0)"/>
     <use xlink:href="#DejaVuSans-30" transform="translate(280.46875 0)"/>
     <use xlink:href="#DejaVuSans-30" transform="translate(344.091797 0)"/>
     <use xlink:href="#DejaVuSans-20" transform="translate(407.714844 0)"/>
     <use xlink:href="#DejaVuSans-3a9" transform="translate(439.501953 0)"/>
    </g>
   </g>
   <g id="text_3">
    <!-- C = 31,8 μF -->
    <g style="fill: #7eb8f7" transform="translate(206.077891 13.392344) scale(0.11 -0.11)">
     <defs>
      <path id="DejaVuSans-43" d="M 4122 4306 
L 4122 3641 
Q 3803 3938 3442 4084 
Q 3081 4231 2675 4231 
Q 1875 4231 1450 3742 
Q 1025 3253 1025 2328 
Q 1025 1406 1450 917 
Q 1875 428 2675 428 
Q 3081 428 3442 575 
Q 3803 722 4122 1019 
L 4122 359 
Q 3791 134 3420 21 
Q 3050 -91 2638 -91 
Q 1578 -91 968 557 
Q 359 1206 359 2328 
Q 359 3453 968 4101 
Q 1578 4750 2638 4750 
Q 3056 4750 3426 4639 
Q 3797 4528 4122 4306 
z
" transform="scale(0.015625)"/>
      <path id="DejaVuSans-33" d="M 2597 2516 
Q 3050 2419 3304 2112 
Q 3559 1806 3559 1356 
Q 3559 666 3084 287 
Q 2609 -91 1734 -91 
Q 1441 -91 1130 -33 
Q 819 25 488 141 
L 488 750 
Q 750 597 1062 519 
Q 1375 441 1716 441 
Q 2309 441 2620 675 
Q 2931 909 2931 1356 
Q 2931 1769 2642 2001 
Q 2353 2234 1838 2234 
L 1294 2234 
L 1294 2753 
L 1863 2753 
Q 2328 2753 2575 2939 
Q 2822 3125 2822 3475 
Q 2822 3834 2567 4026 
Q 2313 4219 1838 4219 
Q 1578 4219 1281 4162 
Q 984 4106 628 3988 
L 628 4550 
Q 988 4650 1302 4700 
Q 1616 4750 1894 4750 
Q 2613 4750 3031 4423 
Q 3450 4097 3450 3541 
Q 3450 3153 3228 2886 
Q 3006 2619 2597 2516 
z
" transform="scale(0.015625)"/>
      <path id="DejaVuSans-2c" d="M 750 794 
L 1409 794 
L 1409 256 
L 897 -744 
L 494 -744 
L 750 256 
L 750 794 
z
" transform="scale(0.015625)"/>
      <path id="DejaVuSans-38" d="M 2034 2216 
Q 1584 2216 1326 1975 
Q 1069 1734 1069 1313 
Q 1069 891 1326 650 
Q 1584 409 2034 409 
Q 2484 409 2743 651 
Q 3003 894 3003 1313 
Q 3003 1734 2745 1975 
Q 2488 2216 2034 2216 
z
M 1403 2484 
Q 997 2584 770 2862 
Q 544 3141 544 3541 
Q 544 4100 942 4425 
Q 1341 4750 2034 4750 
Q 2731 4750 3128 4425 
Q 3525 4100 3525 3541 
Q 3525 3141 3298 2862 
Q 3072 2584 2669 2484 
Q 3125 2378 3379 2068 
Q 3634 1759 3634 1313 
Q 3634 634 3220 271 
Q 2806 -91 2034 -91 
Q 1263 -91 848 271 
Q 434 634 434 1313 
Q 434 1759 690 2068 
Q 947 2378 1403 2484 
z
M 1172 3481 
Q 1172 3119 1398 2916 
Q 1625 2713 2034 2713 
Q 2441 2713 2670 2916 
Q 2900 3119 2900 3481 
Q 2900 3844 2670 4047 
Q 2441 4250 2034 4250 
Q 1625 4250 1398 4047 
Q 1172 3844 1172 3481 
z
" transform="scale(0.015625)"/>
      <path id="DejaVuSans-3bc" d="M 544 -1331 
L 544 3500 
L 1119 3500 
L 1119 1325 
Q 1119 872 1334 640 
Q 1550 409 1972 409 
Q 2434 409 2667 671 
Q 2900 934 2900 1459 
L 2900 3500 
L 3475 3500 
L 3475 806 
Q 3475 619 3529 530 
Q 3584 441 3700 441 
Q 3728 441 3778 458 
Q 3828 475 3916 513 
L 3916 50 
Q 3788 -22 3673 -56 
Q 3559 -91 3450 -91 
Q 3234 -91 3106 31 
Q 2978 153 2931 403 
Q 2775 156 2548 32 
Q 2322 -91 2016 -91 
Q 1697 -91 1473 31 
Q 1250 153 1119 397 
L 1119 -1331 
L 544 -1331 
z
" transform="scale(0.015625)"/>
      <path id="DejaVuSans-46" d="M 628 4666 
L 3309 4666 
L 3309 4134 
L 1259 4134 
L 1259 2759 
L 3109 2759 
L 3109 2228 
L 1259 2228 
L 1259 0 
L 628 0 
L 628 4666 
z
" transform="scale(0.015625)"/>
     </defs>
     <use xlink:href="#DejaVuSans-43"/>
     <use xlink:href="#DejaVuSans-20" transform="translate(69.824219 0)"/>
     <use xlink:href="#DejaVuSans-3d" transform="translate(101.611328 0)"/>
     <use xlink:href="#DejaVuSans-20" transform="translate(185.400391 0)"/>
     <use xlink:href="#DejaVuSans-33" transform="translate(217.1875 0)"/>
     <use xlink:href="#DejaVuSans-31" transform="translate(280.810547 0)"/>
     <use xlink:href="#DejaVuSans-2c" transform="translate(344.433594 0)"/>
     <use xlink:href="#DejaVuSans-38" transform="translate(376.220703 0)"/>
     <use xlink:href="#DejaVuSans-20" transform="translate(439.84375 0)"/>
     <use xlink:href="#DejaVuSans-3bc" transform="translate(471.630859 0)"/>
     <use xlink:href="#DejaVuSans-46" transform="translate(535.253906 0)"/>
    </g>
   </g>
   <g id="patch_3">
    <path d="M 94.68 21.98 
C 95.396048 21.98 96.082866 21.695511 96.589188 21.189188 
C 97.095511 20.682866 97.38 19.996048 97.38 19.28 
C 97.38 18.563952 97.095511 17.877134 96.589188 17.370812 
C 96.082866 16.864489 95.396048 16.58 94.68 16.58 
C 93.963952 16.58 93.277134 16.864489 92.770812 17.370812 
C 92.264489 17.877134 91.98 18.563952 91.98 19.28 
C 91.98 19.996048 92.264489 20.682866 92.770812 21.189188 
C 93.277134 21.695511 93.963952 21.98 94.68 21.98 
z
" clip-path="url(#pee5fb9d014)" style="fill: #7eb8f7; stroke: #7eb8f7; stroke-width: 2; stroke-linejoin: miter"/>
   </g>
   <g id="patch_4">
    <path d="M 94.68 165.98 
C 95.396048 165.98 96.082866 165.695511 96.589188 165.189188 
C 97.095511 164.682866 97.38 163.996048 97.38 163.28 
C 97.38 162.563952 97.095511 161.877134 96.589188 161.370812 
C 96.082866 160.864489 95.396048 160.58 94.68 160.58 
C 93.963952 160.58 93.277134 160.864489 92.770812 161.370812 
C 92.264489 161.877134 91.98 162.563952 91.98 163.28 
C 91.98 163.996048 92.264489 164.682866 92.770812 165.189188 
C 93.277134 165.695511 93.963952 165.98 94.68 165.98 
z
" clip-path="url(#pee5fb9d014)" style="fill: #7eb8f7; stroke: #7eb8f7; stroke-width: 2; stroke-linejoin: miter"/>
   </g>
  </g>
 </g>
 <defs>
  <clipPath id="pee5fb9d014">
   <rect x="0" y="0" width="100%" height="193.56"/>
  </clipPath>
 </defs>
</svg>
