<svg style="background:#0f1117;" xmlns:xlink="http://www.w3.org/1999/xlink" width="100%" height="auto" viewBox="0 0 333.36 196.231972" xmlns="http://www.w3.org/2000/svg" version="1.1">
 
 <defs>
  <style type="text/css">*{stroke-linejoin: round; stroke-linecap: butt}</style>
 </defs>
 <g id="figure_1">
  <g id="axes_1">
   <g id="patch_2">
    <path d="M 22.68 122.951972 
C 27.453656 122.951972 32.032438 121.055378 35.407922 117.679894 
C 38.783406 114.30441 40.68 109.725628 40.68 104.951972 
C 40.68 100.178316 38.783406 95.599534 35.407922 92.22405 
C 32.032438 88.848566 27.453656 86.951972 22.68 86.951972 
C 17.906344 86.951972 13.327562 88.848566 9.952078 92.22405 
C 6.576594 95.599534 4.68 100.178316 4.68 104.951972 
C 4.68 109.725628 6.576594 114.30441 9.952078 117.679894 
C 13.327562 121.055378 17.906344 122.951972 22.68 122.951972 
L 22.68 122.951972 
z
" clip-path="url(#p903cdcf3c2)" style="fill: none; stroke: #7eb8f7; stroke-width: 2; stroke-linejoin: miter"/>
   </g>
   <g id="line2d_1">
    <path d="M 22.68 176.951972 
L 22.68 122.951972 
L 22.68 122.951972 
M 22.68 86.951972 
L 22.68 86.951972 
L 22.68 32.951972 
" clip-path="url(#p903cdcf3c2)" style="fill: none; stroke: #7eb8f7; stroke-width: 2; stroke-linecap: round"/>
   </g>
   <g id="line2d_2">
    <path d="M 31.68 104.951972 
L 30.93 103.088475 
L 30.18 101.351972 
L 29.43 99.860803 
L 28.68 98.716589 
L 27.93 97.997306 
L 27.18 97.751972 
L 26.43 97.997306 
L 25.68 98.716589 
L 24.93 99.860803 
L 24.18 101.351972 
L 23.43 103.088475 
L 22.68 104.951972 
L 21.93 106.815469 
L 21.18 108.551972 
L 20.43 110.043141 
L 19.68 111.187355 
L 18.93 111.906638 
L 18.18 112.151972 
L 17.43 111.906638 
L 16.68 111.187355 
L 15.93 110.043141 
L 15.18 108.551972 
L 14.43 106.815469 
L 13.68 104.951972 
" clip-path="url(#p903cdcf3c2)" style="fill: none; stroke: #7eb8f7; stroke-width: 2; stroke-linecap: round"/>
   </g>
   <g id="line2d_3">
    <path d="M 22.68 32.951972 
L 31.68 32.951972 
L 40.68 32.951972 
" clip-path="url(#p903cdcf3c2)" style="fill: none; stroke: #7eb8f7; stroke-width: 2; stroke-linecap: round"/>
   </g>
   <g id="line2d_4">
    <path d="M 40.68 32.951972 
L 94.68 32.951972 
L 97.68 23.951972 
L 103.68 41.951972 
L 109.68 23.951972 
L 115.68 41.951972 
L 121.68 23.951972 
L 127.68 41.951972 
L 130.68 32.951972 
L 184.68 32.951972 
" clip-path="url(#p903cdcf3c2)" style="fill: none; stroke: #7eb8f7; stroke-width: 2; stroke-linecap: round"/>
   </g>
   <g id="line2d_5">
    <path d="M 184.68 32.951972 
L 238.68 32.951972 
L 238.858789 29.851426 
L 239.402061 26.734241 
L 240.29503 23.885924 
L 240.859174 22.645757 
L 241.490881 21.567358 
L 242.18 20.675561 
L 242.915058 19.990905 
L 243.683521 19.529158 
L 244.472091 19.300955 
L 245.267001 19.31155 
L 246.054342 19.560701 
L 246.820378 20.042669 
L 247.551864 20.746354 
L 248.23635 21.655549 
L 248.86247 22.749316 
L 249.4202 24.002465 
L 249.901093 25.386134 
L 250.607576 28.415296 
L 250.952186 31.559356 
L 250.938333 34.530343 
L 250.602259 37.05614 
L 250.009719 38.905405 
L 249.644458 39.520516 
L 249.249959 39.90876 
L 248.839705 40.061193 
L 248.42754 39.974305 
L 248.027355 39.650098 
L 247.652763 39.096038 
L 247.316788 38.324886 
L 246.808059 36.206934 
L 246.582736 33.49023 
L 246.696432 30.423602 
L 247.173706 27.287927 
L 248.005818 24.370408 
L 248.543235 23.078436 
L 249.151526 21.938265 
L 249.821077 20.976155 
L 250.540866 20.214263 
L 251.298713 19.670136 
L 252.081561 19.356306 
L 252.875778 19.28 
L 253.667469 19.442976 
L 254.442798 19.84148 
L 255.188307 20.466334 
L 255.891222 21.303149 
L 256.539752 22.332651 
L 257.123359 23.53113 
L 257.632998 24.870985 
L 258.402885 27.848847 
L 258.813871 30.993489 
L 258.863287 34.016887 
L 258.581582 36.642124 
L 258.029529 38.628748 
L 257.678088 39.322934 
L 257.292667 39.794802 
L 256.886541 40.033485 
L 256.473459 40.033485 
L 256.067333 39.794802 
L 255.681912 39.322934 
L 255.330471 38.628748 
L 255.025499 37.728232 
L 254.599316 35.395438 
L 254.47737 32.538219 
L 254.705804 29.418272 
L 255.298671 26.321358 
L 256.236641 23.53113 
L 256.820248 22.332651 
L 257.468778 21.303149 
L 258.171693 20.466334 
L 258.917202 19.84148 
L 259.692531 19.442976 
L 260.484222 19.28 
L 261.278439 19.356306 
L 262.061287 19.670136 
L 262.819134 20.214263 
L 263.538923 20.976155 
L 264.208474 21.938265 
L 264.816765 23.078436 
L 265.354182 24.370408 
L 266.186294 27.287927 
L 266.663568 30.423602 
L 266.777264 33.49023 
L 266.551941 36.206934 
L 266.043212 38.324886 
L 265.707237 39.096038 
L 265.332645 39.650098 
L 264.93246 39.974305 
L 264.520295 40.061193 
L 264.110041 39.90876 
L 263.715542 39.520516 
L 263.350281 38.905405 
L 263.027067 38.077591 
L 262.552903 35.864577 
L 262.371453 33.084167 
L 262.53431 29.991025 
L 263.06153 26.868457 
L 263.9398 24.002465 
L 264.49753 22.749316 
L 265.12365 21.655549 
L 265.808136 20.746354 
L 266.539622 20.042669 
L 267.305658 19.560701 
L 268.092999 19.31155 
L 268.887909 19.300955 
L 269.676479 19.529158 
L 270.444942 19.990905 
L 271.18 20.675561 
L 271.869119 21.567358 
L 272.500826 22.645757 
L 273.06497 23.885924 
L 273.552955 25.259294 
L 274.274992 28.276793 
L 274.635781 31.421875 
L 274.68 32.951972 
L 328.68 32.951972 
L 328.68 32.951972 
" clip-path="url(#p903cdcf3c2)" style="fill: none; stroke: #7eb8f7; stroke-width: 2; stroke-linecap: round"/>
   </g>
   <g id="line2d_6">
    <path d="M 328.68 32.951972 
L 328.68 104.951972 
L 328.68 176.951972 
" clip-path="url(#p903cdcf3c2)" style="fill: none; stroke: #7eb8f7; stroke-width: 2; stroke-linecap: round"/>
   </g>
   <g id="line2d_7">
    <path d="M 328.68 176.951972 
L 175.68 176.951972 
L 22.68 176.951972 
" clip-path="url(#p903cdcf3c2)" style="fill: none; stroke: #7eb8f7; stroke-width: 2; stroke-linecap: round"/>
   </g>
   <g id="line2d_8">
    <path d="M 22.68 176.951972 
L 22.68 176.951972 
L 22.68 176.951972 
" clip-path="url(#p903cdcf3c2)" style="fill: none; stroke: #7eb8f7; stroke-width: 2; stroke-linecap: round"/>
   </g>
   <g id="text_1">
    <!-- 100 V -->
    <g style="fill: #7eb8f7" transform="translate(6.671563 188.910253) scale(0.11 -0.11)">
     <defs>
      <path id="DejaVuSans-31" d="M 794 531 
L 1825 531 
L 1825 4091 
L 703 3866 
L 703 4441 
L 1819 4666 
L 2450 4666 
L 2450 531 
L 3481 531 
L 3481 0 
L 794 0 
L 794 531 
z
" transform="scale(0.015625)"/>
      <path id="DejaVuSans-30" d="M 2034 4250 
Q 1547 4250 1301 3770 
Q 1056 3291 1056 2328 
Q 1056 1369 1301 889 
Q 1547 409 2034 409 
Q 2525 409 2770 889 
Q 3016 1369 3016 2328 
Q 3016 3291 2770 3770 
Q 2525 4250 2034 4250 
z
M 2034 4750 
Q 2819 4750 3233 4129 
Q 3647 3509 3647 2328 
Q 3647 1150 3233 529 
Q 2819 -91 2034 -91 
Q 1250 -91 836 529 
Q 422 1150 422 2328 
Q 422 3509 836 4129 
Q 1250 4750 2034 4750 
z
" transform="scale(0.015625)"/>
      <path id="DejaVuSans-20" transform="scale(0.015625)"/>
      <path id="DejaVuSans-56" d="M 1831 0 
L 50 4666 
L 709 4666 
L 2188 738 
L 3669 4666 
L 4325 4666 
L 2547 0 
L 1831 0 
z
" transform="scale(0.015625)"/>
     </defs>
     <use xlink:href="#DejaVuSans-31"/>
     <use xlink:href="#DejaVuSans-30" transform="translate(63.623047 0)"/>
     <use xlink:href="#DejaVuSans-30" transform="translate(127.246094 0)"/>
     <use xlink:href="#DejaVuSans-20" transform="translate(190.869141 0)"/>
     <use xlink:href="#DejaVuSans-56" transform="translate(222.65625 0)"/>
    </g>
   </g>
   <g id="text_2">
    <!-- R = 6 Ω -->
    <g style="fill: #7eb8f7" transform="translate(91.303047 18.064316) scale(0.11 -0.11)">
     <defs>
      <path id="DejaVuSans-52" d="M 2841 2188 
Q 3044 2119 3236 1894 
Q 3428 1669 3622 1275 
L 4263 0 
L 3584 0 
L 2988 1197 
Q 2756 1666 2539 1819 
Q 2322 1972 1947 1972 
L 1259 1972 
L 1259 0 
L 628 0 
L 628 4666 
L 2053 4666 
Q 2853 4666 3247 4331 
Q 3641 3997 3641 3322 
Q 3641 2881 3436 2590 
Q 3231 2300 2841 2188 
z
M 1259 4147 
L 1259 2491 
L 2053 2491 
Q 2509 2491 2742 2702 
Q 2975 2913 2975 3322 
Q 2975 3731 2742 3939 
Q 2509 4147 2053 4147 
L 1259 4147 
z
" transform="scale(0.015625)"/>
      <path id="DejaVuSans-3d" d="M 678 2906 
L 4684 2906 
L 4684 2381 
L 678 2381 
L 678 2906 
z
M 678 1631 
L 4684 1631 
L 4684 1100 
L 678 1100 
L 678 1631 
z
" transform="scale(0.015625)"/>
      <path id="DejaVuSans-36" d="M 2113 2584 
Q 1688 2584 1439 2293 
Q 1191 2003 1191 1497 
Q 1191 994 1439 701 
Q 1688 409 2113 409 
Q 2538 409 2786 701 
Q 3034 994 3034 1497 
Q 3034 2003 2786 2293 
Q 2538 2584 2113 2584 
z
M 3366 4563 
L 3366 3988 
Q 3128 4100 2886 4159 
Q 2644 4219 2406 4219 
Q 1781 4219 1451 3797 
Q 1122 3375 1075 2522 
Q 1259 2794 1537 2939 
Q 1816 3084 2150 3084 
Q 2853 3084 3261 2657 
Q 3669 2231 3669 1497 
Q 3669 778 3244 343 
Q 2819 -91 2113 -91 
Q 1303 -91 875 529 
Q 447 1150 447 2328 
Q 447 3434 972 4092 
Q 1497 4750 2381 4750 
Q 2619 4750 2861 4703 
Q 3103 4656 3366 4563 
z
" transform="scale(0.015625)"/>
      <path id="DejaVuSans-3a9" d="M 4647 556 
L 4647 0 
L 2772 0 
L 2772 556 
Q 3325 859 3634 1378 
Q 3944 1897 3944 2528 
Q 3944 3278 3531 3731 
Q 3119 4184 2444 4184 
Q 1769 4184 1355 3729 
Q 941 3275 941 2528 
Q 941 1897 1250 1378 
Q 1563 859 2119 556 
L 2119 0 
L 244 0 
L 244 556 
L 1241 556 
Q 747 991 519 1456 
Q 294 1922 294 2497 
Q 294 3491 894 4106 
Q 1491 4722 2444 4722 
Q 3391 4722 3994 4106 
Q 4594 3494 4594 2528 
Q 4594 1922 4372 1459 
Q 4150 997 3647 556 
L 4647 556 
z
" transform="scale(0.015625)"/>
     </defs>
     <use xlink:href="#DejaVuSans-52"/>
     <use xlink:href="#DejaVuSans-20" transform="translate(69.482422 0)"/>
     <use xlink:href="#DejaVuSans-3d" transform="translate(101.269531 0)"/>
     <use xlink:href="#DejaVuSans-20" transform="translate(185.058594 0)"/>
     <use xlink:href="#DejaVuSans-36" transform="translate(216.845703 0)"/>
     <use xlink:href="#DejaVuSans-20" transform="translate(280.46875 0)"/>
     <use xlink:href="#DejaVuSans-3a9" transform="translate(312.255859 0)"/>
    </g>
   </g>
   <g id="text_3">
    <!-- XL = 8 Ω -->
    <g style="fill: #7eb8f7" transform="translate(232.292656 13.392344) scale(0.11 -0.11)">
     <defs>
      <path id="DejaVuSans-58" d="M 403 4666 
L 1081 4666 
L 2241 2931 
L 3406 4666 
L 4084 4666 
L 2584 2425 
L 4184 0 
L 3506 0 
L 2194 1984 
L 872 0 
L 191 0 
L 1856 2491 
L 403 4666 
z
" transform="scale(0.015625)"/>
      <path id="DejaVuSans-4c" d="M 628 4666 
L 1259 4666 
L 1259 531 
L 3531 531 
L 3531 0 
L 628 0 
L 628 4666 
z
" transform="scale(0.015625)"/>
      <path id="DejaVuSans-38" d="M 2034 2216 
Q 1584 2216 1326 1975 
Q 1069 1734 1069 1313 
Q 1069 891 1326 650 
Q 1584 409 2034 409 
Q 2484 409 2743 651 
Q 3003 894 3003 1313 
Q 3003 1734 2745 1975 
Q 2488 2216 2034 2216 
z
M 1403 2484 
Q 997 2584 770 2862 
Q 544 3141 544 3541 
Q 544 4100 942 4425 
Q 1341 4750 2034 4750 
Q 2731 4750 3128 4425 
Q 3525 4100 3525 3541 
Q 3525 3141 3298 2862 
Q 3072 2584 2669 2484 
Q 3125 2378 3379 2068 
Q 3634 1759 3634 1313 
Q 3634 634 3220 271 
Q 2806 -91 2034 -91 
Q 1263 -91 848 271 
Q 434 634 434 1313 
Q 434 1759 690 2068 
Q 947 2378 1403 2484 
z
M 1172 3481 
Q 1172 3119 1398 2916 
Q 1625 2713 2034 2713 
Q 2441 2713 2670 2916 
Q 2900 3119 2900 3481 
Q 2900 3844 2670 4047 
Q 2441 4250 2034 4250 
Q 1625 4250 1398 4047 
Q 1172 3844 1172 3481 
z
" transform="scale(0.015625)"/>
     </defs>
     <use xlink:href="#DejaVuSans-58"/>
     <use xlink:href="#DejaVuSans-4c" transform="translate(68.505859 0)"/>
     <use xlink:href="#DejaVuSans-20" transform="translate(124.21875 0)"/>
     <use xlink:href="#DejaVuSans-3d" transform="translate(156.005859 0)"/>
     <use xlink:href="#DejaVuSans-20" transform="translate(239.794922 0)"/>
     <use xlink:href="#DejaVuSans-38" transform="translate(271.582031 0)"/>
     <use xlink:href="#DejaVuSans-20" transform="translate(335.205078 0)"/>
     <use xlink:href="#DejaVuSans-3a9" transform="translate(366.992188 0)"/>
    </g>
   </g>
  </g>
 </g>
 <defs>
  <clipPath id="p903cdcf3c2">
   <rect x="0" y="0" width="100%" height="196.231972"/>
  </clipPath>
 </defs>
</svg>
