<?xml version="1.0" encoding="utf-8" standalone="no"?>
<!DOCTYPE svg PUBLIC "-//W3C//DTD SVG 1.1//EN"
  "http://www.w3.org/Graphics/SVG/1.1/DTD/svg11.dtd">
<svg xmlns:xlink="http://www.w3.org/1999/xlink" width="100%" height="auto" viewBox="0 0 514.4 209.802299" xmlns="http://www.w3.org/2000/svg" version="1.1">
 
 <defs>
  <style type="text/css">*{stroke-linejoin: round; stroke-linecap: butt}</style>
 </defs>
 <g id="figure_1">
  <g id="patch_1">
   <path d="M 0 209.802299 
L 514.4 209.802299 
L 514.4 0 
L 0 0 
L 0 209.802299 
z
" style="fill: none; opacity: 0"/>
  </g>
  <g id="axes_1">
   <g id="patch_2">
    <path d="M 70.418391 142.257471 
C 75.752936 142.257471 80.86971 140.138034 84.641803 136.365941 
C 88.413896 132.593848 90.533333 127.477074 90.533333 122.142529 
C 90.533333 116.807984 88.413896 111.691209 84.641803 107.919116 
C 80.86971 104.147023 75.752936 102.027586 70.418391 102.027586 
C 65.083846 102.027586 59.967072 104.147023 56.194979 107.919116 
C 52.422886 111.691209 50.303448 116.807984 50.303448 122.142529 
C 50.303448 127.477074 52.422886 132.593848 56.194979 136.365941 
C 59.967072 140.138034 65.083846 142.257471 70.418391 142.257471 
L 70.418391 142.257471 
z
" clip-path="url(#pf5ab999b67)" style="fill: none; stroke: #7eb8f7; stroke-width: 2; stroke-linejoin: miter"/>
   </g>
   <g id="patch_3">
    <path d="M 165.245977 84.786207 
C 170.580522 84.786207 175.697296 82.66677 179.469389 78.894677 
C 183.241482 75.122584 185.36092 70.005809 185.36092 64.671264 
C 185.36092 59.336719 183.241482 54.219945 179.469389 50.447852 
C 175.697296 46.675759 170.580522 44.556322 165.245977 44.556322 
C 159.911432 44.556322 154.794658 46.675759 151.022565 50.447852 
C 147.250472 54.219945 145.131034 59.336719 145.131034 64.671264 
C 145.131034 70.005809 147.250472 75.122584 151.022565 78.894677 
C 154.794658 82.66677 159.911432 84.786207 165.245977 84.786207 
L 165.245977 84.786207 
z
" clip-path="url(#pf5ab999b67)" style="fill: none; stroke: #7eb8f7; stroke-width: 2; stroke-linejoin: miter"/>
   </g>
   <g id="patch_4">
    <path d="M 139.383908 145.131034 
L 317.544828 145.131034 
L 317.544828 38.809195 
L 139.383908 38.809195 
L 139.383908 145.131034 
z
" clip-path="url(#pf5ab999b67)" style="fill: none; stroke: #7eb8f7; stroke-width: 2; stroke-linejoin: miter"/>
   </g>
   <g id="patch_5">
    <path d="M 242.832184 142.257471 
C 248.166729 142.257471 253.283503 140.138034 257.055596 136.365941 
C 260.827689 132.593848 262.947126 127.477074 262.947126 122.142529 
C 262.947126 116.807984 260.827689 111.691209 257.055596 107.919116 
C 253.283503 104.147023 248.166729 102.027586 242.832184 102.027586 
C 237.497639 102.027586 232.380865 104.147023 228.608772 107.919116 
C 224.836679 111.691209 222.717241 116.807984 222.717241 122.142529 
C 222.717241 127.477074 224.836679 132.593848 228.608772 136.365941 
C 232.380865 140.138034 237.497639 142.257471 242.832184 142.257471 
L 242.832184 142.257471 
z
" clip-path="url(#pf5ab999b67)" style="fill: none; stroke: #7eb8f7; stroke-width: 2; stroke-linejoin: miter"/>
   </g>
   <g id="line2d_1">
    <path d="M 57.774713 122.142529 
L 58.423106 119.230639 
L 59.0715 116.618462 
L 59.719894 114.574861 
L 60.368288 113.310178 
L 61.016681 112.954584 
L 61.665075 113.544678 
L 62.313469 115.019724 
L 62.961863 117.2279 
L 63.610256 119.941925 
L 64.25865 122.882451 
L 64.907044 125.746819 
L 65.555438 128.240208 
L 66.203831 130.105981 
L 66.852225 131.152098 
L 67.500619 131.270886 
L 68.149013 130.450119 
L 68.797406 128.774275 
L 69.4458 126.415845 
L 70.094194 123.617575 
L 70.742588 120.667482 
L 71.390981 117.869212 
L 72.039375 115.510782 
L 72.687769 113.834939 
L 73.336163 113.014171 
L 73.984556 113.13296 
L 74.63295 114.179077 
L 75.281344 116.044849 
L 75.929738 118.538238 
L 76.578131 121.402606 
L 77.226525 124.343133 
L 77.874919 127.057157 
L 78.523313 129.265333 
L 79.171706 130.740379 
L 79.8201 131.330474 
L 80.468494 130.974879 
L 81.116888 129.710196 
L 81.765281 127.666596 
L 82.413675 125.054418 
L 83.062069 122.142529 
" clip-path="url(#pf5ab999b67)" style="fill: none; stroke: #7eb8f7; stroke-width: 1.8; stroke-linecap: square"/>
   </g>
   <g id="line2d_2">
    <path d="M 70.418391 179.613793 
L 70.418391 142.257471 
" clip-path="url(#pf5ab999b67)" style="fill: none; stroke: #7eb8f7; stroke-width: 2; stroke-linecap: square"/>
   </g>
   <g id="line2d_3">
    <path d="M 70.418391 102.027586 
L 70.418391 64.671264 
" clip-path="url(#pf5ab999b67)" style="fill: none; stroke: #7eb8f7; stroke-width: 2; stroke-linecap: square"/>
   </g>
   <g id="line2d_4">
    <path d="M 70.418391 64.671264 
L 145.131034 64.671264 
" clip-path="url(#pf5ab999b67)" style="fill: none; stroke: #7eb8f7; stroke-width: 2; stroke-linecap: square"/>
   </g>
   <g id="line2d_5">
    <path d="M 185.36092 64.671264 
L 311.797701 64.671264 
" clip-path="url(#pf5ab999b67)" style="fill: none; stroke: #7eb8f7; stroke-width: 2; stroke-linecap: square"/>
   </g>
   <g id="line2d_6">
    <path d="M 311.797701 64.671264 
L 357.774713 64.671264 
" clip-path="url(#pf5ab999b67)" style="fill: none; stroke: #7eb8f7; stroke-width: 2; stroke-linecap: square"/>
   </g>
   <g id="line2d_7">
    <path d="M 426.74023 64.671264 
L 472.717241 64.671264 
" clip-path="url(#pf5ab999b67)" style="fill: none; stroke: #7eb8f7; stroke-width: 2; stroke-linecap: square"/>
   </g>
   <g id="line2d_8">
    <path d="M 472.717241 179.613793 
L 472.717241 64.671264 
" clip-path="url(#pf5ab999b67)" style="fill: none; stroke: #7eb8f7; stroke-width: 2; stroke-linecap: square"/>
   </g>
   <g id="line2d_9">
    <path d="M 70.418391 179.613793 
L 472.717241 179.613793 
" clip-path="url(#pf5ab999b67)" style="fill: none; stroke: #7eb8f7; stroke-width: 2; stroke-linecap: square"/>
   </g>
   <g id="line2d_10">
    <path d="M 242.832184 64.671264 
L 242.832184 102.027586 
" clip-path="url(#pf5ab999b67)" style="fill: none; stroke: #7eb8f7; stroke-width: 2; stroke-linecap: square"/>
   </g>
   <g id="line2d_11">
    <path d="M 242.832184 142.257471 
L 242.832184 179.613793 
" clip-path="url(#pf5ab999b67)" style="fill: none; stroke: #7eb8f7; stroke-width: 2; stroke-linecap: square"/>
   </g>
   <g id="line2d_12">
    <path d="M 357.774713 64.671264 
L 364.671264 53.177011 
L 371.567816 76.165517 
L 378.464368 53.177011 
L 385.36092 76.165517 
L 392.257471 53.177011 
L 399.154023 76.165517 
L 406.050575 53.177011 
L 412.947126 76.165517 
L 419.843678 53.177011 
L 426.74023 64.671264 
" clip-path="url(#pf5ab999b67)" style="fill: none; stroke: #7eb8f7; stroke-width: 2; stroke-linecap: square"/>
   </g>
   <g id="text_1">
    <!-- 220 V -->
    <g style="fill: #7eb8f7" transform="translate(19.964256 124.625966) scale(0.09 -0.09)">
     <defs>
      <path id="DejaVuSans-32" d="M 1228 531 
L 3431 531 
L 3431 0 
L 469 0 
L 469 531 
Q 828 903 1448 1529 
Q 2069 2156 2228 2338 
Q 2531 2678 2651 2914 
Q 2772 3150 2772 3378 
Q 2772 3750 2511 3984 
Q 2250 4219 1831 4219 
Q 1534 4219 1204 4116 
Q 875 4013 500 3803 
L 500 4441 
Q 881 4594 1212 4672 
Q 1544 4750 1819 4750 
Q 2544 4750 2975 4387 
Q 3406 4025 3406 3419 
Q 3406 3131 3298 2873 
Q 3191 2616 2906 2266 
Q 2828 2175 2409 1742 
Q 1991 1309 1228 531 
z
" transform="scale(0.015625)"/>
      <path id="DejaVuSans-30" d="M 2034 4250 
Q 1547 4250 1301 3770 
Q 1056 3291 1056 2328 
Q 1056 1369 1301 889 
Q 1547 409 2034 409 
Q 2525 409 2770 889 
Q 3016 1369 3016 2328 
Q 3016 3291 2770 3770 
Q 2525 4250 2034 4250 
z
M 2034 4750 
Q 2819 4750 3233 4129 
Q 3647 3509 3647 2328 
Q 3647 1150 3233 529 
Q 2819 -91 2034 -91 
Q 1250 -91 836 529 
Q 422 1150 422 2328 
Q 422 3509 836 4129 
Q 1250 4750 2034 4750 
z
" transform="scale(0.015625)"/>
      <path id="DejaVuSans-20" transform="scale(0.015625)"/>
      <path id="DejaVuSans-56" d="M 1831 0 
L 50 4666 
L 709 4666 
L 2188 738 
L 3669 4666 
L 4325 4666 
L 2547 0 
L 1831 0 
z
" transform="scale(0.015625)"/>
     </defs>
     <use xlink:href="#DejaVuSans-32"/>
     <use xlink:href="#DejaVuSans-32" transform="translate(63.623047 0)"/>
     <use xlink:href="#DejaVuSans-30" transform="translate(127.246094 0)"/>
     <use xlink:href="#DejaVuSans-20" transform="translate(190.869141 0)"/>
     <use xlink:href="#DejaVuSans-56" transform="translate(222.65625 0)"/>
    </g>
   </g>
   <g id="text_2">
    <!-- I -->
    <g style="fill: #7eb8f7" transform="translate(163.199805 67.706577) scale(0.11 -0.11)">
     <defs>
      <path id="DejaVuSans-Bold-49" d="M 588 4666 
L 1791 4666 
L 1791 0 
L 588 0 
L 588 4666 
z
" transform="scale(0.015625)"/>
     </defs>
     <use xlink:href="#DejaVuSans-Bold-49"/>
    </g>
   </g>
   <g id="text_3">
    <!-- Wattímetro -->
    <g style="fill: #7eb8f7" transform="translate(199.579993 32.339776) scale(0.09 -0.09)">
     <defs>
      <path id="DejaVuSans-Bold-57" d="M 191 4666 
L 1344 4666 
L 2150 1275 
L 2950 4666 
L 4109 4666 
L 4909 1275 
L 5716 4666 
L 6859 4666 
L 5759 0 
L 4372 0 
L 3525 3547 
L 2688 0 
L 1300 0 
L 191 4666 
z
" transform="scale(0.015625)"/>
      <path id="DejaVuSans-Bold-61" d="M 2106 1575 
Q 1756 1575 1579 1456 
Q 1403 1338 1403 1106 
Q 1403 894 1545 773 
Q 1688 653 1941 653 
Q 2256 653 2472 879 
Q 2688 1106 2688 1447 
L 2688 1575 
L 2106 1575 
z
M 3816 1997 
L 3816 0 
L 2688 0 
L 2688 519 
Q 2463 200 2181 54 
Q 1900 -91 1497 -91 
Q 953 -91 614 226 
Q 275 544 275 1050 
Q 275 1666 698 1953 
Q 1122 2241 2028 2241 
L 2688 2241 
L 2688 2328 
Q 2688 2594 2478 2717 
Q 2269 2841 1825 2841 
Q 1466 2841 1156 2769 
Q 847 2697 581 2553 
L 581 3406 
Q 941 3494 1303 3539 
Q 1666 3584 2028 3584 
Q 2975 3584 3395 3211 
Q 3816 2838 3816 1997 
z
" transform="scale(0.015625)"/>
      <path id="DejaVuSans-Bold-74" d="M 1759 4494 
L 1759 3500 
L 2913 3500 
L 2913 2700 
L 1759 2700 
L 1759 1216 
Q 1759 972 1856 886 
Q 1953 800 2241 800 
L 2816 800 
L 2816 0 
L 1856 0 
Q 1194 0 917 276 
Q 641 553 641 1216 
L 641 2700 
L 84 2700 
L 84 3500 
L 641 3500 
L 641 4494 
L 1759 4494 
z
" transform="scale(0.015625)"/>
      <path id="DejaVuSans-Bold-ed" d="M 538 3500 
L 1656 3500 
L 1656 0 
L 538 0 
L 538 3500 
z
M 1590 5119 
L 2474 5119 
L 1321 3944 
L 709 3944 
L 1590 5119 
z
" transform="scale(0.015625)"/>
      <path id="DejaVuSans-Bold-6d" d="M 3781 2919 
Q 3994 3244 4286 3414 
Q 4578 3584 4928 3584 
Q 5531 3584 5847 3212 
Q 6163 2841 6163 2131 
L 6163 0 
L 5038 0 
L 5038 1825 
Q 5041 1866 5042 1909 
Q 5044 1953 5044 2034 
Q 5044 2406 4934 2573 
Q 4825 2741 4581 2741 
Q 4263 2741 4089 2478 
Q 3916 2216 3909 1719 
L 3909 0 
L 2784 0 
L 2784 1825 
Q 2784 2406 2684 2573 
Q 2584 2741 2328 2741 
Q 2006 2741 1831 2477 
Q 1656 2213 1656 1722 
L 1656 0 
L 531 0 
L 531 3500 
L 1656 3500 
L 1656 2988 
Q 1863 3284 2130 3434 
Q 2397 3584 2719 3584 
Q 3081 3584 3359 3409 
Q 3638 3234 3781 2919 
z
" transform="scale(0.015625)"/>
      <path id="DejaVuSans-Bold-65" d="M 4031 1759 
L 4031 1441 
L 1416 1441 
Q 1456 1047 1700 850 
Q 1944 653 2381 653 
Q 2734 653 3104 758 
Q 3475 863 3866 1075 
L 3866 213 
Q 3469 63 3072 -14 
Q 2675 -91 2278 -91 
Q 1328 -91 801 392 
Q 275 875 275 1747 
Q 275 2603 792 3093 
Q 1309 3584 2216 3584 
Q 3041 3584 3536 3087 
Q 4031 2591 4031 1759 
z
M 2881 2131 
Q 2881 2450 2695 2645 
Q 2509 2841 2209 2841 
Q 1884 2841 1681 2658 
Q 1478 2475 1428 2131 
L 2881 2131 
z
" transform="scale(0.015625)"/>
      <path id="DejaVuSans-Bold-72" d="M 3138 2547 
Q 2991 2616 2845 2648 
Q 2700 2681 2553 2681 
Q 2122 2681 1889 2404 
Q 1656 2128 1656 1613 
L 1656 0 
L 538 0 
L 538 3500 
L 1656 3500 
L 1656 2925 
Q 1872 3269 2151 3426 
Q 2431 3584 2822 3584 
Q 2878 3584 2943 3579 
Q 3009 3575 3134 3559 
L 3138 2547 
z
" transform="scale(0.015625)"/>
      <path id="DejaVuSans-Bold-6f" d="M 2203 2784 
Q 1831 2784 1636 2517 
Q 1441 2250 1441 1747 
Q 1441 1244 1636 976 
Q 1831 709 2203 709 
Q 2569 709 2762 976 
Q 2956 1244 2956 1747 
Q 2956 2250 2762 2517 
Q 2569 2784 2203 2784 
z
M 2203 3584 
Q 3106 3584 3614 3096 
Q 4122 2609 4122 1747 
Q 4122 884 3614 396 
Q 3106 -91 2203 -91 
Q 1297 -91 786 396 
Q 275 884 275 1747 
Q 275 2609 786 3096 
Q 1297 3584 2203 3584 
z
" transform="scale(0.015625)"/>
     </defs>
     <use xlink:href="#DejaVuSans-Bold-57"/>
     <use xlink:href="#DejaVuSans-Bold-61" transform="translate(106.677734 0)"/>
     <use xlink:href="#DejaVuSans-Bold-74" transform="translate(174.158203 0)"/>
     <use xlink:href="#DejaVuSans-Bold-74" transform="translate(221.960938 0)"/>
     <use xlink:href="#DejaVuSans-Bold-ed" transform="translate(269.763672 0)"/>
     <use xlink:href="#DejaVuSans-Bold-6d" transform="translate(304.041016 0)"/>
     <use xlink:href="#DejaVuSans-Bold-65" transform="translate(408.240234 0)"/>
     <use xlink:href="#DejaVuSans-Bold-74" transform="translate(476.0625 0)"/>
     <use xlink:href="#DejaVuSans-Bold-72" transform="translate(523.865234 0)"/>
     <use xlink:href="#DejaVuSans-Bold-6f" transform="translate(573.181641 0)"/>
    </g>
   </g>
   <g id="text_4">
    <!-- V -->
    <g style="fill: #7eb8f7" transform="translate(238.5757 125.177841) scale(0.11 -0.11)">
     <defs>
      <path id="DejaVuSans-Bold-56" d="M 31 4666 
L 1241 4666 
L 2478 1222 
L 3713 4666 
L 4922 4666 
L 3194 0 
L 1759 0 
L 31 4666 
z
" transform="scale(0.015625)"/>
     </defs>
     <use xlink:href="#DejaVuSans-Bold-56"/>
    </g>
   </g>
   <g id="text_5">
    <!-- Z  (φ=60°, I=10 A) -->
    <g style="fill: #7eb8f7" transform="translate(349.89419 42.832184) scale(0.09 -0.09)">
     <defs>
      <path id="DejaVuSans-5a" d="M 359 4666 
L 4025 4666 
L 4025 4184 
L 1075 531 
L 4097 531 
L 4097 0 
L 288 0 
L 288 481 
L 3238 4134 
L 359 4134 
L 359 4666 
z
" transform="scale(0.015625)"/>
      <path id="DejaVuSans-28" d="M 1984 4856 
Q 1566 4138 1362 3434 
Q 1159 2731 1159 2009 
Q 1159 1288 1364 580 
Q 1569 -128 1984 -844 
L 1484 -844 
Q 1016 -109 783 600 
Q 550 1309 550 2009 
Q 550 2706 781 3412 
Q 1013 4119 1484 4856 
L 1984 4856 
z
" transform="scale(0.015625)"/>
      <path id="DejaVuSans-3c6" d="M 2591 3034 
Q 2388 3034 2388 2581 
L 2388 438 
Q 2684 438 2981 763 
Q 3247 1053 3247 1750 
Q 3247 2400 2978 2750 
Q 2759 3034 2591 3034 
z
M 2591 3525 
Q 3028 3525 3425 3113 
Q 3853 2672 3853 1750 
Q 3853 903 3425 400 
Q 3022 -75 2388 -75 
L 2388 -1331 
L 1816 -1331 
L 1816 -78 
Q 1194 -78 775 400 
Q 350 888 350 1747 
Q 350 2641 775 3097 
Q 1094 3438 1613 3525 
L 1613 3016 
Q 1406 2944 1225 2700 
Q 956 2341 956 1747 
Q 956 1116 1225 756 
Q 1466 434 1816 434 
L 1816 2581 
Q 1816 3525 2591 3525 
z
" transform="scale(0.015625)"/>
      <path id="DejaVuSans-3d" d="M 678 2906 
L 4684 2906 
L 4684 2381 
L 678 2381 
L 678 2906 
z
M 678 1631 
L 4684 1631 
L 4684 1100 
L 678 1100 
L 678 1631 
z
" transform="scale(0.015625)"/>
      <path id="DejaVuSans-36" d="M 2113 2584 
Q 1688 2584 1439 2293 
Q 1191 2003 1191 1497 
Q 1191 994 1439 701 
Q 1688 409 2113 409 
Q 2538 409 2786 701 
Q 3034 994 3034 1497 
Q 3034 2003 2786 2293 
Q 2538 2584 2113 2584 
z
M 3366 4563 
L 3366 3988 
Q 3128 4100 2886 4159 
Q 2644 4219 2406 4219 
Q 1781 4219 1451 3797 
Q 1122 3375 1075 2522 
Q 1259 2794 1537 2939 
Q 1816 3084 2150 3084 
Q 2853 3084 3261 2657 
Q 3669 2231 3669 1497 
Q 3669 778 3244 343 
Q 2819 -91 2113 -91 
Q 1303 -91 875 529 
Q 447 1150 447 2328 
Q 447 3434 972 4092 
Q 1497 4750 2381 4750 
Q 2619 4750 2861 4703 
Q 3103 4656 3366 4563 
z
" transform="scale(0.015625)"/>
      <path id="DejaVuSans-b0" d="M 1600 4347 
Q 1350 4347 1178 4173 
Q 1006 4000 1006 3750 
Q 1006 3503 1178 3333 
Q 1350 3163 1600 3163 
Q 1850 3163 2022 3333 
Q 2194 3503 2194 3750 
Q 2194 3997 2020 4172 
Q 1847 4347 1600 4347 
z
M 1600 4750 
Q 1800 4750 1984 4673 
Q 2169 4597 2303 4453 
Q 2447 4313 2519 4134 
Q 2591 3956 2591 3750 
Q 2591 3338 2302 3052 
Q 2013 2766 1594 2766 
Q 1172 2766 890 3047 
Q 609 3328 609 3750 
Q 609 4169 896 4459 
Q 1184 4750 1600 4750 
z
" transform="scale(0.015625)"/>
      <path id="DejaVuSans-2c" d="M 750 794 
L 1409 794 
L 1409 256 
L 897 -744 
L 494 -744 
L 750 256 
L 750 794 
z
" transform="scale(0.015625)"/>
      <path id="DejaVuSans-49" d="M 628 4666 
L 1259 4666 
L 1259 0 
L 628 0 
L 628 4666 
z
" transform="scale(0.015625)"/>
      <path id="DejaVuSans-31" d="M 794 531 
L 1825 531 
L 1825 4091 
L 703 3866 
L 703 4441 
L 1819 4666 
L 2450 4666 
L 2450 531 
L 3481 531 
L 3481 0 
L 794 0 
L 794 531 
z
" transform="scale(0.015625)"/>
      <path id="DejaVuSans-41" d="M 2188 4044 
L 1331 1722 
L 3047 1722 
L 2188 4044 
z
M 1831 4666 
L 2547 4666 
L 4325 0 
L 3669 0 
L 3244 1197 
L 1141 1197 
L 716 0 
L 50 0 
L 1831 4666 
z
" transform="scale(0.015625)"/>
      <path id="DejaVuSans-29" d="M 513 4856 
L 1013 4856 
Q 1481 4119 1714 3412 
Q 1947 2706 1947 2009 
Q 1947 1309 1714 600 
Q 1481 -109 1013 -844 
L 513 -844 
Q 928 -128 1133 580 
Q 1338 1288 1338 2009 
Q 1338 2731 1133 3434 
Q 928 4138 513 4856 
z
" transform="scale(0.015625)"/>
     </defs>
     <use xlink:href="#DejaVuSans-5a"/>
     <use xlink:href="#DejaVuSans-20" transform="translate(68.505859 0)"/>
     <use xlink:href="#DejaVuSans-20" transform="translate(100.292969 0)"/>
     <use xlink:href="#DejaVuSans-28" transform="translate(132.080078 0)"/>
     <use xlink:href="#DejaVuSans-3c6" transform="translate(171.09375 0)"/>
     <use xlink:href="#DejaVuSans-3d" transform="translate(237.060547 0)"/>
     <use xlink:href="#DejaVuSans-36" transform="translate(320.849609 0)"/>
     <use xlink:href="#DejaVuSans-30" transform="translate(384.472656 0)"/>
     <use xlink:href="#DejaVuSans-b0" transform="translate(448.095703 0)"/>
     <use xlink:href="#DejaVuSans-2c" transform="translate(498.095703 0)"/>
     <use xlink:href="#DejaVuSans-20" transform="translate(529.882812 0)"/>
     <use xlink:href="#DejaVuSans-49" transform="translate(561.669922 0)"/>
     <use xlink:href="#DejaVuSans-3d" transform="translate(591.162109 0)"/>
     <use xlink:href="#DejaVuSans-31" transform="translate(674.951172 0)"/>
     <use xlink:href="#DejaVuSans-30" transform="translate(738.574219 0)"/>
     <use xlink:href="#DejaVuSans-20" transform="translate(802.197266 0)"/>
     <use xlink:href="#DejaVuSans-41" transform="translate(833.984375 0)"/>
     <use xlink:href="#DejaVuSans-29" transform="translate(902.392578 0)"/>
    </g>
   </g>
  </g>
 </g>
 <defs>
  <clipPath id="pf5ab999b67">
   <rect x="7.2" y="7.2" width="100%" height="195.402299"/>
  </clipPath>
 </defs>
</svg>
