<svg style="background:#0f1117;" xmlns:xlink="http://www.w3.org/1999/xlink" width="100%" height="auto" viewBox="0 0 329.76 202.56" xmlns="http://www.w3.org/2000/svg" version="1.1">
 
 <defs>
  <style type="text/css">*{stroke-linejoin: round; stroke-linecap: butt}</style>
 </defs>
 <g id="figure_1">
  <g id="axes_1">
   <g id="patch_2">
    <path d="M 22.68 129.28 
C 27.453656 129.28 32.032438 127.383406 35.407922 124.007922 
C 38.783406 120.632438 40.68 116.053656 40.68 111.28 
C 40.68 106.506344 38.783406 101.927562 35.407922 98.552078 
C 32.032438 95.176594 27.453656 93.28 22.68 93.28 
C 17.906344 93.28 13.327562 95.176594 9.952078 98.552078 
C 6.576594 101.927562 4.68 106.506344 4.68 111.28 
C 4.68 116.053656 6.576594 120.632438 9.952078 124.007922 
C 13.327562 127.383406 17.906344 129.28 22.68 129.28 
L 22.68 129.28 
z
" clip-path="url(#pf277b12b29)" style="fill: none; stroke: #7eb8f7; stroke-width: 2; stroke-linejoin: miter"/>
   </g>
   <g id="patch_3">
    <path d="M 109.08 57.28 
C 113.853656 57.28 118.432438 55.383406 121.807922 52.007922 
C 125.183406 48.632438 127.08 44.053656 127.08 39.28 
C 127.08 34.506344 125.183406 29.927562 121.807922 26.552078 
C 118.432438 23.176594 113.853656 21.28 109.08 21.28 
C 104.306344 21.28 99.727562 23.176594 96.352078 26.552078 
C 92.976594 29.927562 91.08 34.506344 91.08 39.28 
C 91.08 44.053656 92.976594 48.632438 96.352078 52.007922 
C 99.727562 55.383406 104.306344 57.28 109.08 57.28 
L 109.08 57.28 
z
" clip-path="url(#pf277b12b29)" style="fill: none; stroke: #7eb8f7; stroke-width: 2; stroke-linejoin: miter"/>
   </g>
   <g id="line2d_1">
    <path d="M 22.68 183.28 
L 22.68 129.28 
L 22.68 129.28 
M 22.68 93.28 
L 22.68 93.28 
L 22.68 39.28 
" clip-path="url(#pf277b12b29)" style="fill: none; stroke: #7eb8f7; stroke-width: 2; stroke-linecap: round"/>
   </g>
   <g id="line2d_2">
    <path d="M 31.68 111.28 
L 30.93 109.416503 
L 30.18 107.68 
L 29.43 106.188831 
L 28.68 105.044617 
L 27.93 104.325334 
L 27.18 104.08 
L 26.43 104.325334 
L 25.68 105.044617 
L 24.93 106.188831 
L 24.18 107.68 
L 23.43 109.416503 
L 22.68 111.28 
L 21.93 113.143497 
L 21.18 114.88 
L 20.43 116.371169 
L 19.68 117.515383 
L 18.93 118.234666 
L 18.18 118.48 
L 17.43 118.234666 
L 16.68 117.515383 
L 15.93 116.371169 
L 15.18 114.88 
L 14.43 113.143497 
L 13.68 111.28 
" clip-path="url(#pf277b12b29)" style="fill: none; stroke: #7eb8f7; stroke-width: 2; stroke-linecap: round"/>
   </g>
   <g id="line2d_3">
    <path d="M 22.68 39.28 
L 29.88 39.28 
L 37.08 39.28 
" clip-path="url(#pf277b12b29)" style="fill: none; stroke: #7eb8f7; stroke-width: 2; stroke-linecap: round"/>
   </g>
   <g id="line2d_4">
    <path d="M 37.08 39.28 
L 91.08 39.28 
L 91.08 39.28 
M 127.08 39.28 
L 127.08 39.28 
L 181.08 39.28 
" clip-path="url(#pf277b12b29)" style="fill: none; stroke: #7eb8f7; stroke-width: 2; stroke-linecap: round"/>
   </g>
   <g id="line2d_5">
    <path d="M 181.08 39.28 
L 235.08 39.28 
L 238.08 30.28 
L 244.08 48.28 
L 250.08 30.28 
L 256.08 48.28 
L 262.08 30.28 
L 268.08 48.28 
L 271.08 39.28 
L 325.08 39.28 
" clip-path="url(#pf277b12b29)" style="fill: none; stroke: #7eb8f7; stroke-width: 2; stroke-linecap: round"/>
   </g>
   <g id="line2d_6">
    <path d="M 325.08 39.28 
L 325.08 111.28 
L 325.08 183.28 
" clip-path="url(#pf277b12b29)" style="fill: none; stroke: #7eb8f7; stroke-width: 2; stroke-linecap: round"/>
   </g>
   <g id="line2d_7">
    <path d="M 325.08 183.28 
L 173.88 183.28 
L 22.68 183.28 
" clip-path="url(#pf277b12b29)" style="fill: none; stroke: #7eb8f7; stroke-width: 2; stroke-linecap: round"/>
   </g>
   <g id="line2d_8">
    <path d="M 22.68 183.28 
L 22.68 183.28 
L 22.68 183.28 
" clip-path="url(#pf277b12b29)" style="fill: none; stroke: #7eb8f7; stroke-width: 2; stroke-linecap: round"/>
   </g>
   <g id="line2d_9">
    <path d="M 181.08 39.28 
L 181.08 111.28 
L 181.08 183.28 
" clip-path="url(#pf277b12b29)" style="fill: none; stroke-dasharray: 7.4,3.2; stroke-dashoffset: 0; stroke: #7eb8f7; stroke-width: 2"/>
   </g>
   <g id="text_1">
    <!-- 220 V -->
    <g style="fill: #7eb8f7" transform="translate(6.671562 195.238281) scale(0.11 -0.11)">
     <defs>
      <path id="DejaVuSans-32" d="M 1228 531 
L 3431 531 
L 3431 0 
L 469 0 
L 469 531 
Q 828 903 1448 1529 
Q 2069 2156 2228 2338 
Q 2531 2678 2651 2914 
Q 2772 3150 2772 3378 
Q 2772 3750 2511 3984 
Q 2250 4219 1831 4219 
Q 1534 4219 1204 4116 
Q 875 4013 500 3803 
L 500 4441 
Q 881 4594 1212 4672 
Q 1544 4750 1819 4750 
Q 2544 4750 2975 4387 
Q 3406 4025 3406 3419 
Q 3406 3131 3298 2873 
Q 3191 2616 2906 2266 
Q 2828 2175 2409 1742 
Q 1991 1309 1228 531 
z
" transform="scale(0.015625)"/>
      <path id="DejaVuSans-30" d="M 2034 4250 
Q 1547 4250 1301 3770 
Q 1056 3291 1056 2328 
Q 1056 1369 1301 889 
Q 1547 409 2034 409 
Q 2525 409 2770 889 
Q 3016 1369 3016 2328 
Q 3016 3291 2770 3770 
Q 2525 4250 2034 4250 
z
M 2034 4750 
Q 2819 4750 3233 4129 
Q 3647 3509 3647 2328 
Q 3647 1150 3233 529 
Q 2819 -91 2034 -91 
Q 1250 -91 836 529 
Q 422 1150 422 2328 
Q 422 3509 836 4129 
Q 1250 4750 2034 4750 
z
" transform="scale(0.015625)"/>
      <path id="DejaVuSans-20" transform="scale(0.015625)"/>
      <path id="DejaVuSans-56" d="M 1831 0 
L 50 4666 
L 709 4666 
L 2188 738 
L 3669 4666 
L 4325 4666 
L 2547 0 
L 1831 0 
z
" transform="scale(0.015625)"/>
     </defs>
     <use xlink:href="#DejaVuSans-32"/>
     <use xlink:href="#DejaVuSans-32" transform="translate(63.623047 0)"/>
     <use xlink:href="#DejaVuSans-30" transform="translate(127.246094 0)"/>
     <use xlink:href="#DejaVuSans-20" transform="translate(190.869141 0)"/>
     <use xlink:href="#DejaVuSans-56" transform="translate(222.65625 0)"/>
    </g>
   </g>
   <g id="text_2">
    <!-- A -->
    <g style="fill: #7eb8f7" transform="translate(104.291562 43.143125) scale(0.14 -0.14)">
     <defs>
      <path id="DejaVuSans-41" d="M 2188 4044 
L 1331 1722 
L 3047 1722 
L 2188 4044 
z
M 1831 4666 
L 2547 4666 
L 4325 0 
L 3669 0 
L 3244 1197 
L 1141 1197 
L 716 0 
L 50 0 
L 1831 4666 
z
" transform="scale(0.015625)"/>
     </defs>
     <use xlink:href="#DejaVuSans-41"/>
    </g>
   </g>
   <g id="text_3">
    <!-- W -->
    <g style="fill: #7eb8f7" transform="translate(103.641875 15.392344) scale(0.11 -0.11)">
     <defs>
      <path id="DejaVuSans-57" d="M 213 4666 
L 850 4666 
L 1831 722 
L 2809 4666 
L 3519 4666 
L 4500 722 
L 5478 4666 
L 6119 4666 
L 4947 0 
L 4153 0 
L 3169 4050 
L 2175 0 
L 1381 0 
L 213 4666 
z
" transform="scale(0.015625)"/>
     </defs>
     <use xlink:href="#DejaVuSans-57"/>
    </g>
   </g>
   <g id="text_4">
    <!-- Z (φ = 60°) -->
    <g style="fill: #7eb8f7" transform="translate(221.791016 13.746406) scale(0.11 -0.11)">
     <defs>
      <path id="DejaVuSans-5a" d="M 359 4666 
L 4025 4666 
L 4025 4184 
L 1075 531 
L 4097 531 
L 4097 0 
L 288 0 
L 288 481 
L 3238 4134 
L 359 4134 
L 359 4666 
z
" transform="scale(0.015625)"/>
      <path id="DejaVuSans-28" d="M 1984 4856 
Q 1566 4138 1362 3434 
Q 1159 2731 1159 2009 
Q 1159 1288 1364 580 
Q 1569 -128 1984 -844 
L 1484 -844 
Q 1016 -109 783 600 
Q 550 1309 550 2009 
Q 550 2706 781 3412 
Q 1013 4119 1484 4856 
L 1984 4856 
z
" transform="scale(0.015625)"/>
      <path id="DejaVuSans-3c6" d="M 2591 3034 
Q 2388 3034 2388 2581 
L 2388 438 
Q 2684 438 2981 763 
Q 3247 1053 3247 1750 
Q 3247 2400 2978 2750 
Q 2759 3034 2591 3034 
z
M 2591 3525 
Q 3028 3525 3425 3113 
Q 3853 2672 3853 1750 
Q 3853 903 3425 400 
Q 3022 -75 2388 -75 
L 2388 -1331 
L 1816 -1331 
L 1816 -78 
Q 1194 -78 775 400 
Q 350 888 350 1747 
Q 350 2641 775 3097 
Q 1094 3438 1613 3525 
L 1613 3016 
Q 1406 2944 1225 2700 
Q 956 2341 956 1747 
Q 956 1116 1225 756 
Q 1466 434 1816 434 
L 1816 2581 
Q 1816 3525 2591 3525 
z
" transform="scale(0.015625)"/>
      <path id="DejaVuSans-3d" d="M 678 2906 
L 4684 2906 
L 4684 2381 
L 678 2381 
L 678 2906 
z
M 678 1631 
L 4684 1631 
L 4684 1100 
L 678 1100 
L 678 1631 
z
" transform="scale(0.015625)"/>
      <path id="DejaVuSans-36" d="M 2113 2584 
Q 1688 2584 1439 2293 
Q 1191 2003 1191 1497 
Q 1191 994 1439 701 
Q 1688 409 2113 409 
Q 2538 409 2786 701 
Q 3034 994 3034 1497 
Q 3034 2003 2786 2293 
Q 2538 2584 2113 2584 
z
M 3366 4563 
L 3366 3988 
Q 3128 4100 2886 4159 
Q 2644 4219 2406 4219 
Q 1781 4219 1451 3797 
Q 1122 3375 1075 2522 
Q 1259 2794 1537 2939 
Q 1816 3084 2150 3084 
Q 2853 3084 3261 2657 
Q 3669 2231 3669 1497 
Q 3669 778 3244 343 
Q 2819 -91 2113 -91 
Q 1303 -91 875 529 
Q 447 1150 447 2328 
Q 447 3434 972 4092 
Q 1497 4750 2381 4750 
Q 2619 4750 2861 4703 
Q 3103 4656 3366 4563 
z
" transform="scale(0.015625)"/>
      <path id="DejaVuSans-b0" d="M 1600 4347 
Q 1350 4347 1178 4173 
Q 1006 4000 1006 3750 
Q 1006 3503 1178 3333 
Q 1350 3163 1600 3163 
Q 1850 3163 2022 3333 
Q 2194 3503 2194 3750 
Q 2194 3997 2020 4172 
Q 1847 4347 1600 4347 
z
M 1600 4750 
Q 1800 4750 1984 4673 
Q 2169 4597 2303 4453 
Q 2447 4313 2519 4134 
Q 2591 3956 2591 3750 
Q 2591 3338 2302 3052 
Q 2013 2766 1594 2766 
Q 1172 2766 890 3047 
Q 609 3328 609 3750 
Q 609 4169 896 4459 
Q 1184 4750 1600 4750 
z
" transform="scale(0.015625)"/>
      <path id="DejaVuSans-29" d="M 513 4856 
L 1013 4856 
Q 1481 4119 1714 3412 
Q 1947 2706 1947 2009 
Q 1947 1309 1714 600 
Q 1481 -109 1013 -844 
L 513 -844 
Q 928 -128 1133 580 
Q 1338 1288 1338 2009 
Q 1338 2731 1133 3434 
Q 928 4138 513 4856 
z
" transform="scale(0.015625)"/>
     </defs>
     <use xlink:href="#DejaVuSans-5a"/>
     <use xlink:href="#DejaVuSans-20" transform="translate(68.505859 0)"/>
     <use xlink:href="#DejaVuSans-28" transform="translate(100.292969 0)"/>
     <use xlink:href="#DejaVuSans-3c6" transform="translate(139.306641 0)"/>
     <use xlink:href="#DejaVuSans-20" transform="translate(205.273438 0)"/>
     <use xlink:href="#DejaVuSans-3d" transform="translate(237.060547 0)"/>
     <use xlink:href="#DejaVuSans-20" transform="translate(320.849609 0)"/>
     <use xlink:href="#DejaVuSans-36" transform="translate(352.636719 0)"/>
     <use xlink:href="#DejaVuSans-30" transform="translate(416.259766 0)"/>
     <use xlink:href="#DejaVuSans-b0" transform="translate(479.882812 0)"/>
     <use xlink:href="#DejaVuSans-29" transform="translate(529.882812 0)"/>
    </g>
    <!-- I = 10 A -->
    <g style="fill: #7eb8f7" transform="translate(230.843672 24.392344) scale(0.11 -0.11)">
     <defs>
      <path id="DejaVuSans-49" d="M 628 4666 
L 1259 4666 
L 1259 0 
L 628 0 
L 628 4666 
z
" transform="scale(0.015625)"/>
      <path id="DejaVuSans-31" d="M 794 531 
L 1825 531 
L 1825 4091 
L 703 3866 
L 703 4441 
L 1819 4666 
L 2450 4666 
L 2450 531 
L 3481 531 
L 3481 0 
L 794 0 
L 794 531 
z
" transform="scale(0.015625)"/>
     </defs>
     <use xlink:href="#DejaVuSans-49"/>
     <use xlink:href="#DejaVuSans-20" transform="translate(29.492188 0)"/>
     <use xlink:href="#DejaVuSans-3d" transform="translate(61.279297 0)"/>
     <use xlink:href="#DejaVuSans-20" transform="translate(145.068359 0)"/>
     <use xlink:href="#DejaVuSans-31" transform="translate(176.855469 0)"/>
     <use xlink:href="#DejaVuSans-30" transform="translate(240.478516 0)"/>
     <use xlink:href="#DejaVuSans-20" transform="translate(304.101562 0)"/>
     <use xlink:href="#DejaVuSans-41" transform="translate(335.888672 0)"/>
    </g>
   </g>
  </g>
 </g>
 <defs>
  <clipPath id="pf277b12b29">
   <rect x="0" y="0" width="100%" height="202.56"/>
  </clipPath>
 </defs>
</svg>
